{"glyphs":{"0":{"ha":776,"x_min":63,"x_max":714,"o":"m 389 -14 q 203 50 275 -14 q 97 229 131 114 q 63 499 63 344 q 97 767 63 653 q 203 943 131 881 q 390 1006 275 1006 q 571 943 499 1006 q 678 766 643 881 q 714 497 714 651 q 678 228 714 343 q 570 50 642 114 q 389 -14 499 -14 m 389 61 q 496 113 457 61 q 552 263 535 165 q 569 497 569 360 q 552 732 569 635 q 496 880 535 829 q 390 931 457 931 q 282 880 322 931 q 224 732 242 829 q 207 497 207 635 q 224 263 207 360 q 282 113 242 165 q 389 61 322 61 z "},"1":{"ha":776,"x_min":92,"x_max":663,"o":"m 133 0 l 133 58 l 226 58 q 284 65 258 58 q 325 94 310 72 q 340 158 340 115 l 340 888 q 245 783 288 824 q 161 743 203 743 q 111 764 131 743 q 92 818 92 785 q 180 851 133 829 q 294 925 226 874 l 392 997 l 481 997 l 481 158 q 496 94 481 115 q 538 65 511 72 q 594 58 564 58 l 663 58 l 663 0 l 133 0 z "},"2":{"ha":776,"x_min":85,"x_max":689,"o":"m 85 0 l 85 101 l 317 369 q 433 519 390 456 q 495 639 476 582 q 514 760 514 696 q 499 852 514 813 q 452 914 483 892 q 372 936 421 936 q 276 907 310 936 q 231 831 243 878 q 219 729 219 785 q 159 737 186 729 q 116 765 132 744 q 100 819 100 785 q 131 915 100 874 q 222 981 161 957 q 372 1006 283 1006 q 523 977 460 1006 q 620 897 586 949 q 654 774 654 844 q 644 697 654 735 q 614 622 633 660 q 567 545 594 585 q 503 463 539 506 q 422 371 467 419 l 188 111 l 508 111 q 593 143 571 111 q 625 215 615 175 l 631 240 l 689 240 l 682 0 l 85 0 z "},"3":{"ha":776,"x_min":81,"x_max":696,"o":"m 343 -14 q 193 8 251 -14 q 108 65 135 29 q 81 140 81 100 q 105 206 81 182 q 168 229 129 229 q 214 109 168 157 q 344 61 260 61 q 447 83 400 61 q 522 153 493 104 q 551 285 551 201 q 484 425 551 372 q 300 478 417 478 l 256 478 l 256 549 l 300 549 q 410 575 361 549 q 489 650 460 601 q 518 764 518 699 q 484 891 518 846 q 369 936 450 936 q 274 907 307 936 q 228 831 240 878 q 217 729 217 785 q 132 748 167 729 q 97 819 97 767 q 128 915 97 874 q 219 981 158 957 q 369 1006 281 1006 q 581 948 501 1006 q 661 785 661 890 q 632 670 661 722 q 553 581 603 618 q 439 529 503 544 q 522 512 478 525 q 606 471 567 499 q 671 398 646 443 q 696 283 696 353 q 664 142 696 200 q 579 51 632 85 q 465 1 526 17 q 343 -14 403 -14 z "},"4":{"ha":776,"x_min":24,"x_max":757,"o":"m 299 0 l 299 58 l 338 58 q 395 65 369 58 q 436 94 421 72 q 451 158 451 115 l 451 272 l 24 272 l 24 329 l 453 992 l 585 992 l 585 350 l 757 350 l 757 272 l 585 272 l 585 158 q 600 94 585 115 q 642 65 615 72 q 699 58 668 58 l 717 58 l 717 0 l 299 0 m 124 350 l 451 350 l 451 607 q 452 698 451 647 q 456 800 453 749 q 461 894 458 851 q 439 853 454 881 q 404 792 424 825 q 367 730 385 760 q 336 681 349 700 l 124 350 z "},"5":{"ha":776,"x_min":76,"x_max":675,"o":"m 339 -14 q 179 8 236 -14 q 99 63 122 31 q 76 126 76 96 q 98 187 76 165 q 164 208 119 208 q 183 138 164 169 q 239 87 201 106 q 332 68 276 68 q 434 90 389 68 q 505 164 479 113 q 531 303 531 215 q 473 466 531 413 q 319 519 415 519 q 211 510 247 519 q 149 489 175 500 l 115 499 l 160 992 l 624 992 l 631 782 l 572 782 l 567 824 q 558 856 564 843 q 536 874 551 868 q 492 881 521 881 l 222 881 l 196 574 q 232 584 210 579 q 286 592 254 589 q 358 596 318 596 q 520 563 449 596 q 633 466 592 531 q 675 303 675 401 q 660 197 675 246 q 618 110 646 149 q 549 43 590 71 q 456 1 508 15 q 339 -14 403 -14 z "},"6":{"ha":776,"x_min":85,"x_max":706,"o":"m 407 -14 q 242 38 315 -14 q 127 203 169 90 q 85 500 85 317 q 107 690 85 599 q 174 852 129 781 q 287 965 218 924 q 447 1006 356 1006 q 576 985 525 1006 q 651 931 626 964 q 676 860 676 897 q 649 799 676 821 q 569 776 622 776 q 558 859 569 822 q 519 917 546 896 q 447 939 492 939 q 331 892 378 939 q 258 756 283 846 q 228 531 233 665 q 310 581 263 558 q 426 603 358 603 q 630 527 554 603 q 706 318 706 451 q 670 146 706 221 q 568 28 635 71 q 407 -14 501 -14 m 411 63 q 495 88 461 63 q 547 167 529 114 q 564 304 564 221 q 522 478 564 424 q 399 532 479 532 q 331 520 363 532 q 272 490 299 508 q 226 451 246 471 q 278 153 229 243 q 411 63 328 63 z "},"7":{"ha":776,"x_min":82,"x_max":710,"o":"m 244 0 l 572 881 l 226 881 q 169 863 189 881 q 146 810 149 844 l 140 740 l 82 740 l 89 992 l 710 992 l 710 951 l 368 0 l 244 0 z "},"8":{"ha":776,"x_min":64,"x_max":713,"o":"m 379 -14 q 205 22 275 -14 q 99 117 135 57 q 64 249 64 176 q 92 361 64 315 q 167 440 119 407 q 275 503 215 474 q 182 569 222 533 q 119 652 142 606 q 96 757 96 699 q 126 878 96 821 q 223 970 157 935 q 396 1006 289 1006 q 544 975 483 1006 q 638 890 606 944 q 669 767 669 836 q 618 624 669 675 q 482 532 567 574 q 603 461 551 500 q 683 374 654 422 q 713 265 713 326 q 622 60 713 133 q 379 -14 532 -14 m 386 50 q 531 102 476 50 q 586 235 586 154 q 563 321 586 282 q 485 395 539 360 q 342 469 432 431 q 238 378 276 435 q 199 243 199 321 q 246 103 199 157 q 386 50 293 50 m 414 564 q 519 650 492 603 q 546 769 546 697 q 531 851 546 813 q 481 915 515 890 q 388 940 446 940 q 268 893 310 940 q 226 774 226 846 q 247 688 226 724 q 310 622 268 651 q 414 564 351 593 z "},"9":{"ha":776,"x_min":71,"x_max":692,"o":"m 315 -15 q 193 3 238 -15 q 131 48 149 21 q 114 104 114 75 q 127 148 114 131 q 156 171 140 165 q 213 94 175 128 q 317 61 251 61 q 487 164 432 61 q 549 476 542 267 q 468 411 518 440 q 344 382 418 382 q 202 413 264 382 q 106 508 140 444 q 71 664 71 571 q 106 841 71 764 q 208 962 142 918 q 368 1006 275 1006 q 535 957 463 1006 q 650 806 608 908 q 692 539 692 703 q 671 330 692 429 q 605 153 650 231 q 488 30 560 75 q 315 -15 417 -15 m 375 464 q 488 498 443 464 q 550 576 532 532 q 525 778 549 700 q 462 892 501 856 q 368 929 422 929 q 285 900 319 929 q 232 815 250 871 q 214 678 214 760 q 254 514 214 564 q 375 464 294 464 z "},"\u0000":{"ha":0,"x_min":0,"x_max":0,"o":""},"\r":{"ha":361,"x_min":0,"x_max":0,"o":""}," ":{"ha":361,"x_min":0,"x_max":0,"o":""}," ":{"ha":361,"x_min":0,"x_max":0,"o":""},"ༀ":{"ha":1113,"x_min":61,"x_max":1215,"o":"m 581 886 q 726 672 653 786 q 865 438 799 557 q 979 203 931 318 l 960 136 q 804 378 885 258 q 641 605 724 497 q 475 799 558 713 l 581 886 m 758 942 l 731 822 l 324 822 l 351 942 l 758 942 m 969 210 q 947 542 964 383 q 904 822 929 701 l 849 822 l 876 942 l 1051 942 l 1024 822 l 1024 122 l 960 136 l 969 210 m 960 150 l 1024 150 l 1024 136 l 960 136 l 960 150 m 256 942 q 171 753 201 849 q 140 565 140 657 q 170 410 140 469 q 254 324 200 351 q 378 297 308 297 q 492 326 456 297 q 529 397 529 354 q 492 467 529 442 q 382 492 456 492 q 347 490 364 492 q 314 485 329 488 l 269 532 q 351 718 301 628 q 456 879 401 808 l 564 861 l 550 818 q 431 699 486 763 q 344 579 376 636 l 331 603 q 375 611 351 611 q 532 560 471 611 q 593 410 593 510 q 527 239 593 303 q 356 175 461 175 q 155 270 231 175 q 79 551 79 365 q 86 693 79 622 q 104 822 93 764 l 61 822 l 89 942 l 256 942 m 611 1074 l 567 1108 q 653 1256 601 1211 q 783 1310 706 1300 q 904 1322 849 1318 q 1010 1335 960 1325 q 1111 1376 1075 1347 q 1171 1456 1147 1406 l 1215 1404 q 1132 1278 1181 1324 q 1000 1215 1083 1233 q 880 1199 940 1203 q 771 1188 819 1194 q 676 1158 711 1181 q 611 1074 640 1135 m 668 986 q 496 1122 569 1069 q 368 1201 422 1174 q 271 1239 314 1229 q 189 1249 228 1249 q 137 1244 163 1249 q 85 1232 111 1240 l 106 1354 q 156 1369 129 1365 q 208 1374 182 1374 q 302 1360 256 1374 q 403 1310 349 1346 q 526 1208 457 1274 q 689 1036 596 1142 l 668 986 m 589 1618 q 694 1578 654 1618 q 735 1472 735 1538 q 694 1367 735 1407 q 589 1326 654 1326 q 484 1367 525 1326 q 443 1472 443 1407 q 484 1578 443 1538 q 589 1618 525 1618 m 589 1549 q 533 1528 554 1549 q 513 1472 513 1507 q 533 1417 513 1438 q 589 1396 554 1396 q 644 1417 624 1396 q 665 1472 665 1438 q 644 1528 665 1507 q 589 1549 624 1549 z "},"ཀ":{"ha":978,"x_min":54,"x_max":917,"o":"m 917 942 l 889 822 l 889 -656 l 825 -611 q 823 -211 825 -390 q 817 114 821 -32 q 806 382 813 260 q 791 612 800 504 q 769 822 782 719 l 543 822 q 555 565 551 711 q 558 242 558 419 l 494 272 q 471 577 489 440 q 424 822 453 714 l 278 822 q 263 658 278 731 q 216 524 249 585 q 128 404 183 463 l 54 518 q 140 605 104 561 q 194 701 175 649 q 213 822 213 754 l 89 822 l 117 942 l 917 942 z "},"ཁ":{"ha":972,"x_min":89,"x_max":904,"o":"m 153 -350 l 89 -306 l 89 942 l 889 942 l 861 822 q 891 566 879 707 q 904 276 903 425 l 849 253 q 656 403 756 357 q 435 449 557 449 q 409 448 424 449 q 382 446 394 447 l 350 486 q 410 721 375 608 q 482 924 444 833 l 603 906 q 495 715 543 817 q 417 524 447 614 l 411 574 q 442 576 428 576 q 656 519 553 576 q 851 333 758 463 l 844 311 q 815 572 843 440 q 742 822 788 704 l 208 822 q 183 604 193 717 q 165 357 172 492 q 156 49 158 222 q 153 -350 153 -124 z "},"ག":{"ha":978,"x_min":56,"x_max":917,"o":"m 889 -656 l 825 -611 q 823 -211 825 -390 q 817 114 821 -32 q 806 382 813 260 q 791 612 800 504 q 769 822 782 719 l 567 822 q 597 566 585 707 q 610 276 608 425 l 554 253 q 362 403 461 357 q 140 449 263 449 q 115 448 129 449 q 88 446 100 447 l 56 486 q 115 721 81 608 q 188 924 150 833 l 308 906 q 201 715 249 817 q 122 524 153 614 l 117 574 q 147 576 133 576 q 361 519 258 576 q 557 333 464 463 l 550 311 q 521 572 549 440 q 447 822 493 704 l 75 822 l 103 942 l 917 942 l 889 822 l 889 -656 z "},"གྷ":{"ha":992,"x_min":56,"x_max":917,"o":"m 889 221 l 825 244 q 816 441 821 356 q 804 593 811 526 q 789 715 797 660 q 769 822 781 771 l 567 822 q 591 638 582 739 q 601 429 600 536 l 546 406 q 357 501 454 472 q 140 529 260 529 q 115 528 129 529 q 88 526 100 528 l 56 567 q 119 758 82 665 q 196 924 156 850 l 311 906 q 201 756 250 836 q 122 604 153 675 l 117 646 q 147 649 133 649 q 357 608 257 649 q 549 474 457 568 l 542 460 q 517 644 540 551 q 453 822 493 738 l 75 822 l 103 942 l 917 942 l 889 822 l 889 221 m 468 -661 l 444 -603 q 590 -433 535 -504 q 675 -312 646 -362 q 715 -222 704 -261 q 726 -149 726 -183 q 684 -51 726 -85 q 560 -17 642 -17 q 453 -31 500 -17 q 375 -71 407 -44 l 339 -31 q 452 59 389 31 q 600 88 515 88 q 780 31 715 88 q 844 -119 844 -25 q 828 -224 844 -171 q 772 -338 813 -276 q 657 -478 731 -400 q 468 -661 583 -557 m 449 -211 q 365 -152 406 -175 q 274 -115 324 -129 q 156 -94 225 -101 l 132 -36 q 199 130 160 50 q 281 272 238 210 l 400 254 q 283 122 336 193 q 200 -11 231 51 l 182 24 q 313 -10 257 14 q 414 -81 368 -35 q 504 -199 460 -126 l 449 -211 m 194 215 l 222 335 l 801 335 l 774 215 l 194 215 z "},"ང":{"ha":801,"x_min":58,"x_max":840,"o":"m 776 81 q 673 222 721 165 q 577 313 625 279 q 474 360 529 346 q 349 375 419 375 q 225 369 293 375 q 100 351 157 363 l 58 403 q 105 658 78 536 q 161 879 132 781 l 274 861 q 184 649 224 764 q 121 436 144 535 l 119 474 q 219 496 165 489 q 318 503 272 503 q 472 481 404 503 q 600 410 540 458 q 718 284 660 363 q 840 92 776 206 l 776 81 m 89 822 l 117 942 l 740 942 l 713 822 l 89 822 z "},"ཅ":{"ha":883,"x_min":14,"x_max":828,"o":"m 463 883 q 495 801 488 844 q 503 710 503 757 q 498 653 503 679 q 482 607 493 628 l 465 651 q 521 678 489 668 q 593 688 553 688 q 765 622 703 688 q 828 447 828 556 q 787 293 828 358 q 675 192 746 228 q 515 157 604 157 q 363 188 425 157 q 257 269 301 218 q 176 386 213 321 q 102 522 140 451 q 14 657 64 592 l 61 688 q 180 597 122 626 q 307 567 238 567 q 406 599 371 567 q 442 688 442 632 q 421 782 442 736 q 351 869 400 828 l 463 883 m 571 565 q 497 556 529 565 q 437 535 465 547 q 377 515 408 524 q 306 506 346 506 q 235 517 265 506 l 232 511 q 309 403 272 453 q 383 315 346 353 q 466 255 421 276 q 568 233 511 233 q 697 281 647 233 q 746 408 746 328 q 703 523 746 481 q 571 565 660 565 m 806 942 l 778 822 l 126 822 l 154 942 l 806 942 z "},"ཆ":{"ha":989,"x_min":42,"x_max":947,"o":"m 275 163 q 106 232 171 163 q 42 428 42 301 q 102 618 42 544 q 281 692 163 692 q 399 665 346 692 q 494 581 451 639 q 591 665 539 639 q 708 692 643 692 q 888 618 828 692 q 947 428 947 544 q 883 232 947 301 q 714 163 818 163 q 581 201 635 163 q 499 303 526 239 q 472 447 472 368 l 517 447 q 490 303 517 368 q 409 201 463 239 q 275 163 356 163 m 272 279 q 415 332 365 279 q 464 492 464 385 l 464 513 l 525 513 l 525 492 q 574 332 525 385 q 717 279 624 279 q 840 316 794 279 q 885 428 885 353 q 846 528 885 490 q 715 565 807 565 q 595 540 647 565 q 494 458 543 514 q 394 540 446 514 q 274 565 342 565 q 143 528 182 565 q 104 428 104 490 q 150 316 104 353 q 272 279 196 279 m 464 564 l 464 613 q 457 729 464 681 q 437 815 450 778 q 401 883 424 851 l 513 883 q 519 816 517 853 q 524 730 522 779 q 525 613 525 681 l 525 564 l 464 564 m 149 822 l 176 942 l 869 942 l 842 822 l 149 822 z "},"ཇ":{"ha":847,"x_min":29,"x_max":868,"o":"m 161 879 l 274 861 q 167 608 214 743 q 90 354 119 474 l 81 386 q 222 409 146 401 q 361 417 297 417 q 510 397 444 417 q 635 335 576 378 q 749 222 693 292 q 868 50 806 151 l 804 39 q 701 160 749 111 q 605 237 653 208 q 502 278 557 265 q 376 290 447 290 q 222 283 307 290 q 64 264 136 276 l 29 314 q 89 618 54 475 q 161 879 124 761 m 690 675 l 663 556 l 138 556 l 138 675 l 690 675 m 768 942 l 740 822 l 89 822 l 117 942 l 768 942 z "},"ཉ":{"ha":743,"x_min":50,"x_max":701,"o":"m 272 -656 l 236 -601 q 388 -312 326 -436 q 489 -94 450 -187 q 548 69 528 -1 q 576 194 568 139 q 583 301 583 250 q 528 474 583 411 q 369 536 472 536 q 250 500 289 536 q 211 403 211 464 q 254 303 211 347 q 386 229 297 260 l 313 135 q 173 218 224 163 q 122 363 122 274 q 156 489 122 431 q 253 583 190 547 q 406 618 317 618 q 560 583 493 618 q 664 485 626 549 q 701 331 701 421 q 690 203 701 269 q 651 56 679 136 q 575 -126 624 -25 q 452 -358 526 -228 q 272 -656 378 -487 m 82 546 q 57 599 64 572 q 50 660 50 626 q 101 813 50 742 q 249 942 151 883 l 228 858 q 167 795 190 836 q 143 701 143 754 q 149 666 143 682 q 164 633 154 650 l 82 546 m 547 535 l 503 560 q 531 624 522 592 q 539 689 539 656 q 457 864 539 794 l 549 928 q 619 739 619 854 q 547 535 619 628 m 175 822 l 249 942 l 629 942 l 601 822 l 175 822 z "},"ཊ":{"ha":789,"x_min":75,"x_max":715,"o":"m 515 -647 q 307 -318 389 -460 q 178 -67 225 -176 q 113 127 132 42 q 94 288 94 213 q 135 466 94 390 q 247 583 175 542 q 413 625 318 625 q 555 579 496 625 q 636 443 614 533 l 621 397 q 548 469 586 446 q 461 493 510 493 q 269 425 325 493 q 214 243 214 357 q 223 126 214 186 q 256 -6 232 67 q 322 -169 279 -78 q 433 -381 365 -261 q 597 -656 500 -500 l 515 -647 m 599 254 q 595 573 599 422 q 588 846 592 724 l 715 942 q 694 703 704 829 q 676 452 685 578 q 663 213 668 326 l 599 254 m 690 822 l 75 822 l 103 942 l 715 942 l 690 822 z "},"ཋ":{"ha":839,"x_min":89,"x_max":825,"o":"m 89 28 l 89 942 l 604 942 l 660 822 l 208 822 q 164 474 179 658 q 149 82 149 289 l 153 14 l 89 28 m 153 14 l 125 61 q 252 219 190 163 q 383 297 314 275 q 542 319 453 319 q 769 300 657 319 l 753 258 q 665 367 718 308 q 533 475 611 425 l 619 547 q 731 401 676 483 q 825 232 785 319 l 781 175 q 646 189 704 185 q 513 193 588 193 q 378 178 436 193 q 266 126 319 164 q 153 14 213 88 m 519 463 q 387 485 453 463 q 265 547 321 507 q 171 638 208 586 l 182 703 q 320 617 244 646 q 492 588 396 588 q 636 631 590 588 q 682 742 682 674 q 658 817 682 785 q 596 867 635 849 l 604 942 q 721 835 681 897 q 761 686 761 774 q 733 572 761 622 q 650 492 704 521 q 519 463 596 463 m 153 42 l 153 28 l 89 28 l 89 42 l 153 42 z "},"ཌ":{"ha":804,"x_min":42,"x_max":772,"o":"m 42 -611 q 51 -129 42 -329 q 86 202 61 71 q 156 408 111 333 q 272 514 201 483 q 446 544 343 544 q 579 539 511 544 q 711 522 647 533 l 707 479 q 640 670 681 568 q 542 861 599 772 l 656 879 q 719 676 688 789 q 772 440 750 563 l 724 396 q 590 412 658 407 q 460 417 521 417 q 306 389 367 417 q 209 292 246 361 q 153 102 172 224 q 124 -206 133 -19 q 106 -656 114 -392 l 42 -611 m 89 822 l 117 942 l 740 942 l 713 822 l 89 822 z "},"ཌྷ":{"ha":807,"x_min":42,"x_max":775,"o":"m 42 144 q 76 356 53 272 q 142 487 99 439 q 252 554 185 535 q 419 574 319 574 q 567 567 492 574 q 713 550 643 561 l 710 507 q 642 684 683 589 q 543 861 601 779 l 657 879 q 721 689 689 794 q 775 468 753 583 l 726 424 q 576 440 654 435 q 429 446 499 446 q 285 432 342 446 q 195 381 229 418 q 141 278 161 344 q 106 108 121 213 l 42 144 m 92 822 l 119 942 l 743 942 l 715 822 l 92 822 m 407 -656 l 386 -599 q 513 -447 464 -511 q 588 -336 561 -383 q 625 -251 615 -289 q 635 -178 635 -212 q 599 -83 635 -117 q 496 -50 564 -50 q 402 -65 443 -50 q 333 -108 361 -81 l 297 -65 q 401 23 343 -6 q 535 51 458 51 q 692 -3 635 51 q 749 -147 749 -57 q 733 -252 749 -200 q 681 -362 718 -304 q 576 -492 643 -421 q 407 -656 510 -564 m 386 -237 q 313 -181 349 -203 q 236 -145 278 -158 q 135 -125 194 -132 l 111 -67 q 174 94 138 17 q 253 232 211 171 l 372 214 q 258 85 308 154 q 178 -46 207 15 l 163 -12 q 274 -44 226 -21 q 362 -111 322 -68 q 440 -224 401 -154 l 386 -237 m 171 183 l 199 299 l 708 299 l 681 183 l 171 183 z "},"ཎ":{"ha":926,"x_min":56,"x_max":865,"o":"m 349 897 l 465 881 q 350 705 393 800 q 307 503 307 610 q 375 308 307 372 q 556 243 443 243 q 705 287 657 243 q 753 404 753 331 q 701 521 753 478 q 547 564 650 564 q 400 535 464 564 q 288 430 336 506 q 207 217 240 354 q 152 -133 174 81 q 119 -656 131 -347 l 56 -611 q 74 -59 56 -286 q 131 315 93 168 q 226 544 169 463 q 360 658 283 625 q 533 690 436 690 q 758 618 678 690 q 838 426 838 546 q 806 300 838 357 q 713 210 775 243 q 556 178 650 178 q 383 218 457 178 q 269 334 310 258 q 229 517 229 410 q 262 724 229 624 q 349 897 294 824 m 865 942 l 838 822 l 89 822 l 117 942 l 865 942 z "},"ཏ":{"ha":789,"x_min":89,"x_max":729,"o":"m 264 -656 l 226 -601 q 388 -328 322 -446 q 494 -122 453 -210 q 556 31 535 -35 q 585 150 578 97 q 593 250 593 203 q 542 437 593 368 q 393 506 490 506 q 278 476 329 506 q 185 386 228 447 l 185 451 q 284 576 221 535 q 426 618 347 618 q 631 534 553 618 q 710 300 710 450 q 691 142 710 225 q 624 -49 672 58 q 488 -305 575 -157 q 264 -656 400 -453 m 206 213 l 142 257 q 128 482 136 364 q 110 718 119 600 q 89 942 100 836 l 217 854 q 209 558 213 722 q 206 213 206 393 m 115 822 l 89 942 l 729 942 l 701 822 l 115 822 z "},"ཐ":{"ha":839,"x_min":14,"x_max":778,"o":"m 750 14 l 686 28 l 690 96 q 675 481 690 299 q 631 822 660 663 l 179 822 l 235 942 l 778 942 l 750 822 l 750 14 m 686 28 q 574 131 626 96 q 462 180 521 167 q 326 193 403 193 q 193 189 251 193 q 58 175 135 185 l 14 232 q 109 401 54 319 q 219 547 164 483 l 306 475 q 175 367 229 425 q 86 258 121 308 l 69 300 q 297 319 182 319 q 456 299 386 319 q 587 224 525 278 q 714 75 649 171 l 686 28 m 319 463 q 189 492 243 463 q 106 572 135 521 q 78 686 78 622 q 118 835 78 774 q 235 942 158 897 l 243 867 q 181 817 204 849 q 157 742 157 785 q 203 631 157 674 q 347 588 249 588 q 519 617 443 588 q 657 703 594 646 l 668 638 q 574 547 631 586 q 453 485 518 507 q 319 463 388 463 m 686 42 l 750 42 l 750 28 l 686 28 l 686 42 z "},"ད":{"ha":804,"x_min":44,"x_max":775,"o":"m 161 879 l 275 861 q 206 737 238 803 q 151 605 175 671 q 110 479 128 539 l 106 522 q 238 539 169 533 q 371 544 307 544 q 547 513 475 544 q 664 403 619 481 q 733 190 708 326 q 766 -155 757 53 q 775 -656 775 -362 l 711 -611 q 692 -180 703 -358 q 662 115 682 -1 q 605 298 642 232 q 508 390 568 364 q 357 417 447 417 q 227 412 296 417 q 93 396 158 407 l 44 440 q 98 676 67 563 q 161 879 129 789 m 740 942 l 713 822 l 89 822 l 117 942 l 740 942 z "},"དྷ":{"ha":804,"x_min":44,"x_max":775,"o":"m 168 879 l 282 861 q 180 717 222 794 q 110 574 138 640 l 113 610 q 254 625 179 619 q 397 631 329 631 q 576 608 506 631 q 688 532 647 585 q 749 392 729 479 q 775 176 769 306 l 711 211 q 681 362 699 303 q 628 453 663 421 q 534 499 593 486 q 383 511 475 511 q 240 506 318 511 q 93 490 163 500 l 44 535 q 101 719 68 631 q 168 879 133 808 m 740 942 l 713 822 l 89 822 l 117 942 l 740 942 m 382 -656 l 360 -600 q 486 -437 438 -506 q 561 -319 535 -369 q 598 -228 588 -268 q 608 -150 608 -187 q 574 -50 608 -85 q 472 -15 539 -15 q 383 -31 421 -15 q 317 -76 344 -47 l 281 -32 q 381 58 325 29 q 511 88 438 88 q 665 32 610 88 q 721 -117 721 -24 q 706 -227 721 -172 q 653 -344 690 -282 q 549 -482 615 -406 q 382 -656 483 -558 m 365 -208 q 295 -148 329 -172 q 220 -110 261 -124 q 122 -89 179 -96 l 99 -31 q 162 133 125 56 q 238 272 199 211 l 357 254 q 244 123 294 194 q 165 -11 194 51 l 150 24 q 258 -9 211 15 q 343 -78 304 -33 q 419 -193 382 -122 l 365 -208 m 158 226 l 185 340 l 681 340 l 654 226 l 158 226 z "},"ན":{"ha":926,"x_min":56,"x_max":865,"o":"m 544 897 q 631 724 599 824 q 664 517 664 624 q 575 267 664 357 q 338 178 486 178 q 181 210 243 178 q 87 300 118 243 q 56 426 56 357 q 136 618 56 546 q 360 690 217 690 q 533 657 457 690 q 667 539 610 624 q 762 303 724 454 q 819 -84 800 151 q 838 -656 838 -319 l 774 -611 q 741 -108 763 -314 q 686 231 719 99 q 605 435 653 363 q 493 535 557 507 q 346 564 429 564 q 192 521 244 564 q 140 404 140 478 q 188 287 140 331 q 338 243 236 243 q 518 308 450 243 q 586 503 586 372 q 544 705 586 610 q 428 881 501 800 l 544 897 m 865 942 l 838 822 l 89 822 l 117 942 l 865 942 z "},"པ":{"ha":890,"x_min":44,"x_max":829,"o":"m 738 136 q 610 309 671 249 q 480 392 549 369 q 318 414 411 414 q 207 409 268 414 q 93 396 146 404 l 44 440 q 98 676 67 563 q 161 879 129 789 l 275 861 q 177 670 218 772 q 110 479 136 568 l 107 519 q 197 535 147 529 q 289 540 246 540 q 474 510 394 540 q 624 403 554 479 q 765 189 693 326 l 738 136 m 738 136 l 738 150 l 801 150 l 801 136 l 738 136 m 89 822 l 117 942 l 375 942 l 347 822 l 89 822 m 801 122 l 738 136 l 747 210 q 724 542 742 383 q 682 822 707 701 l 626 822 l 654 942 l 829 942 l 801 822 l 801 122 z "},"ཕ":{"ha":890,"x_min":44,"x_max":829,"o":"m 738 136 q 610 309 671 249 q 480 392 549 369 q 318 414 411 414 q 207 409 268 414 q 93 396 146 404 l 44 440 q 98 676 67 563 q 161 879 129 789 l 275 861 q 177 670 218 772 q 110 479 136 568 l 119 522 q 204 535 158 531 q 289 540 250 540 q 474 510 394 540 q 624 403 554 479 q 765 189 693 326 l 738 136 m 738 136 l 738 150 l 801 150 l 801 136 l 738 136 m 89 822 l 117 942 l 375 942 l 347 822 l 89 822 m 413 472 l 365 513 q 514 689 431 610 q 690 821 597 768 l 706 758 q 544 633 621 708 q 413 472 467 557 m 801 122 l 738 136 l 747 210 q 724 542 742 383 q 682 822 707 701 l 626 822 l 654 942 l 829 942 l 801 822 l 801 122 z "},"བ":{"ha":890,"x_min":44,"x_max":829,"o":"m 829 942 l 801 822 l 801 122 l 738 136 l 747 210 q 724 542 742 383 q 682 822 707 701 l 89 822 l 117 942 l 829 942 m 161 879 l 275 861 q 177 670 218 772 q 110 479 136 568 l 119 522 q 204 535 158 531 q 289 540 250 540 q 474 510 394 540 q 624 403 554 479 q 765 189 693 326 l 738 136 q 610 309 671 249 q 480 392 549 369 q 318 414 411 414 q 207 409 268 414 q 93 396 146 404 l 44 440 q 98 676 67 563 q 161 879 129 789 m 738 150 l 801 150 l 801 136 l 738 136 l 738 150 z "},"བྷ":{"ha":890,"x_min":44,"x_max":829,"o":"m 829 942 l 801 822 l 801 239 l 738 253 l 747 319 q 725 593 742 463 q 685 822 708 724 l 89 822 l 117 942 l 829 942 m 165 883 l 279 865 q 178 702 219 789 q 110 539 138 615 l 119 576 q 204 590 158 585 q 289 594 250 594 q 474 569 394 594 q 624 480 554 543 q 765 303 693 417 l 738 253 q 610 390 671 342 q 480 456 549 438 q 318 474 411 474 q 207 469 268 474 q 93 456 146 464 l 44 500 q 100 706 68 607 q 165 883 132 804 m 738 267 l 801 267 l 801 253 l 738 253 l 738 267 m 381 -656 l 358 -600 q 485 -437 436 -506 q 560 -319 533 -369 q 597 -228 586 -268 q 607 -150 607 -187 q 572 -50 607 -85 q 471 -15 538 -15 q 381 -31 419 -15 q 315 -76 343 -47 l 279 -32 q 380 58 324 29 q 510 88 436 88 q 664 32 608 88 q 719 -117 719 -24 q 704 -227 719 -172 q 651 -344 689 -282 q 548 -482 614 -406 q 381 -656 482 -558 m 364 -208 q 294 -148 328 -172 q 219 -110 260 -124 q 121 -89 178 -96 l 97 -31 q 160 133 124 56 q 236 272 197 211 l 356 254 q 243 123 293 194 q 164 -11 193 51 l 149 24 q 256 -9 210 15 q 342 -78 303 -33 q 418 -193 381 -122 l 364 -208 m 157 226 l 183 340 l 679 340 l 653 226 l 157 226 z "},"མ":{"ha":975,"x_min":46,"x_max":914,"o":"m 822 136 q 642 350 718 267 q 506 480 565 433 q 395 545 447 526 q 285 564 343 564 q 167 529 207 564 q 128 432 128 494 q 164 337 128 372 q 265 301 200 301 q 394 356 344 301 q 443 518 443 411 q 400 719 443 624 q 285 894 357 814 l 401 911 q 488 738 456 838 q 521 532 521 638 q 452 315 521 392 q 265 238 383 238 q 144 267 193 238 q 70 344 94 296 q 46 453 46 393 q 110 626 46 563 q 292 690 174 690 q 417 664 357 690 q 542 579 478 638 q 682 425 607 521 q 850 189 757 329 l 822 136 m 822 136 l 822 150 l 886 150 l 886 136 l 822 136 m 89 822 l 117 942 l 568 942 l 540 822 l 89 822 m 886 122 l 822 136 l 832 210 q 809 542 826 383 q 767 822 792 701 l 711 822 l 739 942 l 914 942 l 886 822 l 886 122 z "},"ཙ":{"ha":883,"x_min":14,"x_max":1013,"o":"m 463 883 q 495 801 488 844 q 503 710 503 757 q 498 653 503 679 q 482 607 493 628 l 465 651 q 521 678 489 668 q 593 688 553 688 q 765 622 703 688 q 828 447 828 556 q 787 293 828 358 q 675 192 746 228 q 515 157 604 157 q 363 188 425 157 q 257 269 301 218 q 176 386 213 321 q 102 522 140 451 q 14 657 64 592 l 61 688 q 180 597 122 626 q 307 567 238 567 q 406 599 371 567 q 442 688 442 632 q 421 782 442 736 q 351 869 400 828 l 463 883 m 571 565 q 497 556 529 565 q 437 535 465 547 q 377 515 408 524 q 306 506 346 506 q 235 517 265 506 l 232 511 q 309 403 272 453 q 383 315 346 353 q 466 255 421 276 q 568 233 511 233 q 697 281 647 233 q 746 408 746 328 q 703 523 746 481 q 571 565 660 565 m 806 942 l 778 822 l 126 822 l 154 942 l 806 942 m 763 942 q 771 1139 771 1033 q 915 1150 858 1139 q 1013 1182 971 1161 l 999 1083 q 919 1043 963 1058 q 822 1025 876 1028 q 815 983 819 1004 q 806 942 811 961 l 763 942 z "},"ཚ":{"ha":989,"x_min":42,"x_max":1076,"o":"m 275 163 q 106 232 171 163 q 42 428 42 301 q 102 618 42 544 q 281 692 163 692 q 399 665 346 692 q 494 581 451 639 q 591 665 539 639 q 708 692 643 692 q 888 618 828 692 q 947 428 947 544 q 883 232 947 301 q 714 163 818 163 q 581 201 635 163 q 499 303 526 239 q 472 447 472 368 l 517 447 q 490 303 517 368 q 409 201 463 239 q 275 163 356 163 m 272 279 q 415 332 365 279 q 464 492 464 385 l 464 513 l 525 513 l 525 492 q 574 332 525 385 q 717 279 624 279 q 840 316 794 279 q 885 428 885 353 q 846 528 885 490 q 715 565 807 565 q 595 540 647 565 q 494 458 543 514 q 394 540 446 514 q 274 565 342 565 q 143 528 182 565 q 104 428 104 490 q 150 316 104 353 q 272 279 196 279 m 464 564 l 464 613 q 457 729 464 681 q 437 815 450 778 q 401 883 424 851 l 513 883 q 519 816 517 853 q 524 730 522 779 q 525 613 525 681 l 525 564 l 464 564 m 149 822 l 176 942 l 869 942 l 842 822 l 149 822 m 826 942 q 835 1139 835 1033 q 978 1150 922 1139 q 1076 1182 1035 1161 l 1063 1083 q 983 1043 1026 1058 q 886 1025 940 1028 q 879 983 883 1004 q 869 942 875 961 l 826 942 z "},"ཛ":{"ha":847,"x_min":29,"x_max":975,"o":"m 161 879 l 274 861 q 167 608 214 743 q 90 354 119 474 l 81 386 q 222 409 146 401 q 361 417 297 417 q 510 397 444 417 q 635 335 576 378 q 749 222 693 292 q 868 50 806 151 l 804 39 q 701 160 749 111 q 605 237 653 208 q 502 278 557 265 q 376 290 447 290 q 222 283 307 290 q 64 264 136 276 l 29 314 q 89 618 54 475 q 161 879 124 761 m 690 675 l 663 556 l 138 556 l 138 675 l 690 675 m 768 942 l 740 822 l 89 822 l 117 942 l 768 942 m 725 942 q 733 1139 733 1033 q 877 1150 821 1139 q 975 1182 933 1161 l 961 1083 q 882 1043 925 1058 q 785 1025 839 1028 q 778 983 782 1004 q 768 942 774 961 l 725 942 z "},"ཛྷ":{"ha":847,"x_min":29,"x_max":975,"o":"m 161 879 l 272 861 q 167 685 214 779 q 90 507 119 592 l 81 532 q 216 554 143 547 q 351 561 289 561 q 549 538 465 561 q 708 460 633 514 q 868 318 783 407 l 813 300 q 671 386 735 356 q 536 430 607 417 q 367 443 465 443 q 216 436 299 443 q 64 417 133 429 l 29 467 q 89 689 54 585 q 161 879 124 793 m 689 747 l 664 636 l 117 636 l 138 747 l 689 747 m 768 942 l 742 831 l 89 831 l 115 942 l 768 942 m 725 942 q 733 1139 733 1033 q 877 1150 821 1139 q 975 1182 933 1161 l 961 1083 q 882 1043 925 1058 q 785 1025 839 1028 q 778 983 782 1004 q 768 942 774 961 l 725 942 m 475 -710 l 453 -654 q 579 -492 531 -560 q 654 -373 628 -424 q 691 -282 681 -322 q 701 -204 701 -242 q 667 -104 701 -139 q 565 -69 632 -69 q 476 -85 514 -69 q 410 -131 438 -101 l 374 -86 q 474 4 418 -25 q 604 33 531 33 q 758 -22 703 33 q 814 -171 814 -78 q 799 -281 814 -226 q 746 -398 783 -336 q 642 -536 708 -460 q 475 -710 576 -612 m 458 -262 q 388 -201 422 -225 q 313 -164 354 -178 q 215 -143 272 -150 l 192 -85 q 255 79 218 1 q 331 218 292 157 l 450 200 q 338 69 388 140 q 258 -65 288 -3 l 243 -31 q 351 -63 304 -39 q 436 -132 397 -87 q 513 -247 475 -176 l 458 -262 m 251 172 l 278 286 l 774 286 l 747 172 l 251 172 z "},"ཝ":{"ha":1035,"x_min":40,"x_max":964,"o":"m 913 -125 l 849 -111 l 858 -39 q 835 248 853 111 q 793 489 818 385 l 269 489 l 297 608 l 940 608 l 913 489 l 913 -125 m 849 -111 q 733 38 789 -14 q 615 108 678 89 q 469 128 553 128 q 373 123 426 128 q 274 110 319 118 l 225 154 q 281 365 249 264 q 346 546 313 465 l 460 528 q 359 361 400 451 q 290 193 318 271 l 296 236 q 370 249 331 244 q 444 254 410 254 q 614 226 540 254 q 751 131 688 199 q 882 -60 815 63 l 849 -111 m 849 -111 l 849 -97 l 913 -97 l 913 -111 l 849 -111 m 101 506 q 54 587 68 546 q 40 679 40 628 q 89 822 40 756 q 229 942 138 888 l 208 867 q 154 808 175 847 q 133 721 133 769 q 146 653 133 683 q 183 593 158 624 l 101 506 m 444 535 l 400 560 q 428 624 419 592 q 436 689 436 656 q 354 864 436 794 l 446 928 q 498 844 479 893 q 517 739 517 794 q 444 535 517 628 m 156 822 l 229 942 l 526 942 l 499 822 l 156 822 m 772 607 q 728 722 756 665 q 667 828 700 779 l 694 942 q 856 953 793 942 q 964 985 918 964 l 950 886 q 867 846 913 861 q 765 828 822 831 q 801 728 785 785 q 829 607 818 671 l 772 607 z "},"ཞ":{"ha":972,"x_min":56,"x_max":958,"o":"m 761 936 q 839 789 810 875 q 868 614 868 703 q 828 424 868 503 q 715 303 788 344 q 542 261 642 261 q 408 289 461 261 q 328 364 354 317 q 301 468 301 411 q 363 629 301 568 q 536 690 424 690 q 689 657 621 690 q 807 539 757 624 q 890 303 857 454 q 941 -84 924 151 q 958 -656 958 -319 l 894 -611 q 866 -108 885 -314 q 818 231 847 99 q 747 435 789 363 q 650 535 706 507 q 522 564 594 564 q 420 532 454 564 q 386 446 386 500 q 425 360 386 393 q 542 326 464 326 q 722 391 654 326 q 790 586 790 456 q 748 766 790 681 q 632 922 706 851 l 761 936 m 322 942 l 306 853 q 192 726 235 808 q 149 538 149 644 q 180 373 149 446 q 278 225 211 300 l 193 138 q 86 308 117 222 q 56 482 56 393 q 87 658 56 571 q 178 818 118 744 q 322 942 238 892 m 849 942 l 821 822 l 258 822 l 322 942 l 849 942 z "},"ཟ":{"ha":832,"x_min":38,"x_max":771,"o":"m 743 81 l 679 94 l 689 163 q 666 513 683 344 q 624 822 649 681 l 61 822 l 89 942 l 771 942 l 743 822 l 743 81 m 679 94 q 537 212 601 169 q 407 272 472 254 q 263 290 342 290 q 151 283 210 290 q 38 263 92 275 l 68 392 q 163 410 113 404 q 260 417 213 417 q 428 387 351 417 q 578 289 504 357 q 733 106 651 221 l 679 94 m 679 94 l 679 108 l 743 108 l 743 94 l 679 94 m 678 489 q 567 540 632 525 q 399 556 503 556 l 103 556 l 131 675 l 426 675 q 583 654 521 675 q 678 593 646 633 l 678 489 z "},"འ":{"ha":875,"x_min":57,"x_max":903,"o":"m 483 503 q 608 482 554 503 q 710 415 663 461 q 803 290 757 368 q 903 94 849 211 l 839 83 q 720 259 775 196 q 603 349 665 322 q 458 375 542 375 q 410 372 436 375 q 363 363 385 369 l 376 490 q 483 503 425 503 m 268 942 l 247 853 q 177 767 204 822 q 150 639 150 711 q 173 512 150 568 q 243 399 196 456 l 158 311 q 80 445 103 378 q 57 583 57 513 q 82 720 57 653 q 154 845 107 788 q 268 942 201 903 m 693 942 q 756 826 733 894 q 778 679 778 757 q 682 410 778 531 l 640 431 q 681 526 668 476 q 693 624 693 576 q 671 761 693 700 q 600 878 649 822 l 693 942 m 779 942 l 751 822 l 204 822 l 268 942 l 779 942 z "},"ཡ":{"ha":1007,"x_min":74,"x_max":946,"o":"m 543 942 l 515 822 q 538 734 531 781 q 546 642 546 688 q 485 422 546 496 q 314 349 425 349 q 153 419 206 349 q 100 613 100 490 q 108 722 100 665 q 131 822 117 778 l 74 822 l 101 942 l 260 942 q 188 797 214 869 q 161 651 161 724 q 203 516 161 557 q 321 475 244 475 q 443 515 401 475 q 485 636 485 556 q 464 742 485 696 q 407 822 443 788 l 435 942 l 543 942 m 492 571 q 640 533 575 571 q 760 415 704 494 q 872 210 817 336 l 854 136 q 729 323 786 256 q 616 418 672 390 q 492 446 560 446 l 492 571 m 946 942 l 918 822 l 918 122 l 854 136 l 864 210 q 841 542 858 383 q 799 822 824 701 l 743 822 l 771 942 l 946 942 m 854 150 l 918 150 l 918 136 l 854 136 l 854 150 z "},"ར":{"ha":865,"x_min":56,"x_max":914,"o":"m 278 578 q 476 552 389 578 q 635 469 563 526 q 774 319 707 413 q 914 92 842 226 l 850 81 q 721 259 782 188 q 597 373 660 331 q 457 433 533 415 q 281 451 381 451 q 56 424 154 451 l 86 553 q 172 572 122 565 q 278 578 222 578 m 417 883 q 465 671 465 793 q 453 555 465 607 q 417 454 440 503 l 358 464 q 386 615 386 526 q 366 744 386 688 q 303 853 346 801 l 417 883 m 758 942 l 731 822 l 107 822 l 135 942 l 758 942 z "},"ལ":{"ha":981,"x_min":57,"x_max":919,"o":"m 447 571 q 610 531 540 571 q 739 407 681 492 q 856 189 797 322 l 828 136 q 692 322 754 256 q 567 416 631 389 q 422 443 503 443 q 374 439 400 443 q 326 426 349 435 l 340 554 q 447 571 389 571 m 271 942 l 250 867 q 178 780 206 836 q 150 650 150 724 q 172 535 150 586 q 240 432 194 483 l 158 344 q 80 468 103 406 q 57 608 57 531 q 113 796 57 706 q 271 942 168 886 m 501 942 q 560 841 539 900 q 581 717 581 782 q 565 599 581 656 q 521 493 550 543 l 469 504 q 493 582 486 542 q 500 661 500 622 q 478 779 500 726 q 410 878 457 832 l 501 942 m 582 942 l 554 822 l 197 822 l 271 942 l 582 942 m 838 210 q 815 542 832 383 q 772 822 797 701 l 717 822 l 744 942 l 919 942 l 892 822 l 892 122 l 828 136 l 838 210 m 828 150 l 892 150 l 892 136 l 828 136 l 828 150 z "},"ཤ":{"ha":878,"x_min":-28,"x_max":817,"o":"m 817 942 l 789 822 l 789 -656 l 725 -611 q 723 -211 725 -390 q 717 114 721 -32 q 707 382 714 260 q 691 612 700 504 q 669 822 682 719 l 433 822 q 273 772 328 822 q 218 640 218 721 q 274 504 218 557 q 442 451 329 451 q 583 478 515 451 q 707 565 651 506 l 707 494 q 584 371 657 415 q 428 326 511 326 q 297 361 347 326 q 224 451 247 396 l 218 451 l 218 214 l 157 218 l 157 631 q 193 790 157 719 q 297 901 229 860 q 461 942 365 942 l 817 942 m 288 100 q 164 186 225 160 q 33 213 103 213 q -28 206 3 213 l -14 333 q 13 339 -1 338 q 39 340 26 340 q 200 287 128 340 q 346 114 272 233 l 288 100 z "},"ཥ":{"ha":850,"x_min":89,"x_max":878,"o":"m 153 -656 l 89 -611 l 89 942 l 389 942 q 553 901 486 942 q 657 790 621 860 q 693 631 693 719 l 693 218 l 632 214 l 632 451 l 626 451 q 553 361 603 396 q 422 326 503 326 q 281 371 347 326 q 171 494 215 415 l 171 565 q 282 478 221 506 q 408 451 343 451 q 576 504 521 451 q 632 640 632 557 q 578 772 632 721 q 417 822 524 822 l 208 822 q 187 606 196 717 q 172 368 178 494 q 161 91 165 242 q 155 -244 157 -60 q 153 -656 153 -428 m 563 100 l 504 114 q 650 287 578 233 q 811 340 722 340 q 838 339 824 340 q 864 333 851 338 l 878 206 q 817 213 847 213 q 686 186 747 213 q 563 100 625 160 z "},"ས":{"ha":938,"x_min":46,"x_max":876,"o":"m 360 886 q 531 672 447 786 q 685 440 614 558 q 804 207 756 321 l 785 136 q 534 506 669 333 q 254 810 399 679 l 360 886 m 240 879 l 339 861 l 336 818 q 210 692 268 758 q 118 564 153 625 l 113 597 q 301 478 215 554 q 457 288 386 403 l 401 271 q 247 398 331 344 q 69 475 164 451 l 46 533 q 133 719 82 628 q 240 879 185 810 m 549 942 l 521 822 l 75 822 l 103 942 l 549 942 m 849 150 l 849 136 l 785 136 l 785 150 l 849 150 m 876 942 l 849 822 l 849 122 l 785 136 l 794 210 q 772 542 789 383 q 729 822 754 701 l 674 822 l 701 942 l 876 942 z "},"ཧ":{"ha":781,"x_min":26,"x_max":739,"o":"m 310 -656 l 274 -601 q 426 -313 364 -437 q 526 -97 488 -189 q 585 65 565 -4 q 613 190 606 135 q 621 296 621 246 q 571 457 621 403 q 429 511 521 511 q 338 492 378 511 q 269 440 297 474 l 233 486 q 339 587 281 554 q 474 619 397 619 q 666 545 593 619 q 739 338 739 471 q 728 208 739 275 q 689 60 717 142 q 613 -123 661 -21 q 490 -356 564 -225 q 310 -656 415 -486 m 343 231 q 259 335 300 294 q 169 401 218 376 q 50 439 119 426 l 26 497 q 93 703 54 604 q 175 879 132 801 l 294 861 q 176 692 229 783 q 92 522 124 601 l 76 567 q 207 517 151 553 q 308 415 263 482 q 399 243 354 349 l 343 231 m 89 822 l 117 942 l 696 942 l 668 822 l 89 822 z "},"ཨ":{"ha":1113,"x_min":61,"x_max":1051,"o":"m 581 886 q 726 672 653 786 q 865 438 799 557 q 979 203 931 318 l 960 136 q 804 378 885 258 q 641 605 724 497 q 475 799 558 713 l 581 886 m 758 942 l 731 822 l 324 822 l 351 942 l 758 942 m 969 210 q 947 542 964 383 q 904 822 929 701 l 849 822 l 876 942 l 1051 942 l 1024 822 l 1024 122 l 960 136 l 969 210 m 960 150 l 1024 150 l 1024 136 l 960 136 l 960 150 m 256 942 q 171 753 201 849 q 140 565 140 657 q 170 410 140 469 q 254 324 200 351 q 378 297 308 297 q 492 326 456 297 q 529 397 529 354 q 492 467 529 442 q 382 492 456 492 q 347 490 364 492 q 314 485 329 488 l 269 532 q 351 718 301 628 q 456 879 401 808 l 564 861 l 550 818 q 431 699 486 763 q 344 579 376 636 l 331 603 q 375 611 351 611 q 532 560 471 611 q 593 410 593 510 q 527 239 593 303 q 356 175 461 175 q 155 270 231 175 q 79 551 79 365 q 86 693 79 622 q 104 822 93 764 l 61 822 l 89 942 l 256 942 z "},"ཀྵ":{"ha":978,"x_min":54,"x_max":942,"o":"m 917 942 l 889 822 l 889 176 l 825 201 q 816 413 821 321 q 805 576 811 504 q 790 707 799 647 q 769 822 781 767 l 543 822 q 555 640 551 744 q 558 408 558 536 l 493 439 q 469 652 488 556 q 424 822 451 749 l 274 822 q 255 703 271 756 q 208 606 239 650 q 128 519 178 563 l 54 633 q 135 688 103 661 q 187 748 168 715 q 208 822 206 781 l 89 822 l 117 942 l 917 942 m 217 -656 l 153 -621 l 153 340 l 463 340 q 622 304 556 340 q 722 206 688 268 q 757 67 757 144 l 757 -261 l 696 -265 l 696 -89 l 690 -89 q 618 -165 667 -135 q 496 -196 569 -196 q 345 -151 415 -196 q 228 -25 275 -106 l 228 32 q 347 -51 281 -25 q 482 -76 413 -76 q 642 -34 589 -76 q 696 75 696 8 q 644 180 696 139 q 490 221 592 221 l 272 221 q 248 53 258 140 q 231 -137 238 -33 q 222 -367 225 -240 q 217 -656 218 -494 m 626 -369 l 568 -356 q 724 -198 650 -244 q 879 -151 797 -151 q 904 -153 890 -151 q 929 -157 918 -154 l 942 -279 q 915 -275 931 -276 q 885 -274 899 -274 q 753 -295 814 -274 q 626 -369 693 -317 z "},"ཪ":{"ha":865,"x_min":56,"x_max":914,"o":"m 278 578 q 476 552 389 578 q 635 469 563 526 q 774 319 707 413 q 914 92 842 226 l 850 81 q 721 259 782 188 q 597 373 660 331 q 457 433 533 415 q 281 451 381 451 q 56 424 154 451 l 86 553 q 172 572 122 565 q 278 578 222 578 m 417 883 q 465 671 465 793 q 453 555 465 607 q 417 454 440 503 l 358 464 q 386 615 386 526 q 366 744 386 688 q 303 853 346 801 l 417 883 m 758 942 l 731 822 l 107 822 l 135 942 l 758 942 z "},"ཫ":{"ha":978,"x_min":89,"x_max":924,"o":"m 89 942 l 889 942 l 861 822 l 765 822 q 784 701 765 754 q 839 605 803 649 q 924 518 875 561 l 850 404 q 763 524 796 463 q 715 658 729 585 q 700 822 700 731 l 554 822 q 508 564 525 708 q 483 242 490 419 l 419 272 q 423 579 419 442 q 435 822 426 717 l 208 822 q 187 606 196 717 q 172 368 178 494 q 161 91 165 242 q 155 -244 157 -60 q 153 -656 153 -428 l 89 -611 l 89 942 z "},"ཬ":{"ha":867,"x_min":-49,"x_max":811,"o":"m -18 106 l -49 167 q 84 353 19 275 q 219 481 149 431 q 376 554 290 531 q 571 578 461 578 q 698 567 639 578 q 811 538 757 557 l 760 424 q 670 444 717 438 q 565 451 624 451 q 385 433 464 451 q 240 373 306 414 q 113 266 175 332 q -18 106 51 200 m 428 496 q 392 597 406 544 q 379 713 379 649 q 428 925 379 835 l 542 894 q 478 786 499 843 q 458 657 458 729 q 486 506 458 568 l 428 496 m 107 822 l 135 942 l 769 942 l 742 822 l 107 822 z "},"ྈ":{"ha":826,"x_min":42,"x_max":785,"o":"m 97 942 l 785 942 l 757 822 l 69 822 l 97 942 m 69 515 l 757 515 l 729 396 l 42 396 l 69 515 m 69 822 l 190 822 l 757 515 l 636 515 l 69 822 m 757 822 l 190 515 l 69 515 l 636 822 l 757 822 z "},"ྉ":{"ha":986,"x_min":63,"x_max":924,"o":"m 217 431 q 101 497 140 431 q 63 675 63 564 q 109 868 63 794 q 254 942 156 942 q 366 899 321 942 q 445 756 411 857 q 510 481 479 656 l 476 481 q 541 756 507 656 q 621 899 575 857 q 732 942 667 942 q 877 868 831 942 q 924 675 924 794 q 885 497 924 564 q 769 431 846 431 q 663 488 697 431 l 679 582 q 749 558 710 558 q 823 590 794 558 q 851 686 851 622 q 824 780 851 746 q 739 814 796 814 q 653 781 692 814 q 581 665 615 749 q 510 431 547 582 l 476 431 q 405 665 439 582 q 333 781 371 749 q 247 814 296 814 q 163 780 190 814 q 135 686 135 746 q 163 590 135 622 q 238 558 192 558 q 307 582 276 558 l 324 488 q 217 431 289 431 z "},"ྊ":{"ha":939,"x_min":63,"x_max":876,"o":"m 876 942 l 876 143 l 771 188 l 771 858 l 640 858 l 640 240 l 299 240 l 299 858 l 168 858 l 168 143 l 63 188 l 63 942 l 404 942 l 404 324 l 535 324 l 535 942 l 876 942 z "},"ྋ":{"ha":1021,"x_min":63,"x_max":979,"o":"m 481 589 q 661 565 576 589 q 819 488 746 540 l 849 368 q 714 424 776 404 q 590 453 651 444 q 456 461 528 461 q 400 458 429 461 q 346 449 371 456 l 360 575 q 417 585 388 582 q 481 589 446 589 m 268 942 l 250 872 q 181 789 207 843 q 156 665 156 735 q 177 554 156 604 q 243 456 199 504 l 161 368 q 85 485 107 425 q 63 621 63 546 q 116 802 63 715 q 268 942 169 889 m 506 939 q 564 843 543 900 q 585 724 585 786 q 569 613 585 665 q 525 513 554 560 l 474 522 q 497 595 490 558 q 504 671 504 632 q 483 783 504 733 q 414 876 461 833 l 506 939 m 588 942 l 560 822 l 194 822 l 268 942 l 588 942 m 785 456 q 764 599 771 531 q 757 721 757 668 q 800 894 757 838 q 921 950 843 950 q 947 948 933 950 q 971 942 960 946 l 979 822 q 933 831 957 831 q 855 791 882 831 q 828 661 828 751 q 829 590 828 628 q 835 501 831 553 q 849 368 840 449 l 785 456 z "},"ྌ":{"ha":986,"x_min":63,"x_max":924,"o":"m 254 431 q 109 505 156 431 q 63 697 63 579 q 101 875 63 808 q 217 942 140 942 q 324 885 289 942 l 307 790 q 238 814 276 814 q 163 782 192 814 q 135 686 135 750 q 163 592 135 626 q 247 558 190 558 q 333 591 296 558 q 405 707 371 624 q 476 942 439 790 l 510 942 q 581 707 547 790 q 653 591 615 624 q 739 558 692 558 q 824 592 796 558 q 851 686 851 626 q 823 782 851 750 q 749 814 794 814 q 679 790 710 814 l 663 885 q 769 942 697 942 q 885 875 846 942 q 924 697 924 808 q 877 505 924 579 q 732 431 831 431 q 621 473 667 431 q 541 616 575 515 q 476 892 507 717 l 510 892 q 445 616 479 717 q 366 473 411 515 q 254 431 321 431 z "},"༪":{"ha":938,"x_min":42,"x_max":896,"o":"m 756 942 q 727 637 753 768 q 641 404 701 506 q 476 222 581 303 q 210 67 371 140 l 181 121 q 400 263 314 186 q 535 431 486 339 q 604 633 583 522 q 631 878 625 744 l 458 878 q 433 749 454 818 q 380 618 413 681 q 308 511 347 556 l 200 576 q 297 738 258 644 q 350 942 336 832 l 756 942 m 489 597 q 607 682 554 657 q 715 707 660 707 q 814 683 774 707 q 875 617 854 658 q 896 525 896 575 q 867 419 896 465 q 772 311 839 372 l 733 357 q 805 444 786 407 q 824 525 824 482 q 795 606 824 576 q 715 635 767 635 q 631 618 668 635 q 540 553 593 601 l 88 133 l 42 183 l 489 597 z "},"༫":{"ha":949,"x_min":42,"x_max":907,"o":"m 474 440 l 443 483 q 579 598 538 540 q 621 724 621 656 q 588 810 621 778 q 488 843 556 843 q 349 803 411 843 q 233 701 288 763 l 194 744 q 290 864 240 817 q 397 935 340 911 q 517 958 454 958 q 638 931 588 958 q 714 856 688 904 q 740 744 740 808 q 708 627 740 682 q 615 526 675 572 q 474 440 556 479 m 875 142 q 754 252 808 208 q 652 321 700 296 q 554 356 604 346 q 444 367 504 367 q 347 358 393 367 q 263 335 301 349 l 285 451 q 365 476 319 467 q 463 486 411 486 q 578 471 525 486 q 682 422 632 456 q 787 330 732 388 q 907 189 842 272 l 875 142 m 489 708 q 607 793 554 768 q 715 818 660 818 q 814 794 774 818 q 875 728 854 769 q 896 636 896 686 q 867 530 896 576 q 772 422 839 483 l 733 468 q 805 556 786 518 q 824 636 824 593 q 795 717 824 688 q 715 746 767 746 q 631 729 668 746 q 540 664 593 713 l 88 244 l 42 294 l 489 708 z "},"༬":{"ha":938,"x_min":42,"x_max":896,"o":"m 828 31 q 707 135 761 93 q 605 199 653 176 q 507 232 557 222 q 397 242 457 242 q 300 233 346 242 q 215 210 254 224 l 238 326 q 318 351 272 342 q 415 361 364 361 q 531 347 478 361 q 635 299 585 332 q 740 212 685 267 q 860 78 794 157 l 828 31 m 468 301 l 444 344 q 539 414 510 379 q 568 492 568 449 q 546 553 568 531 q 478 576 524 576 q 385 555 426 576 q 308 500 344 533 l 269 543 q 376 650 318 615 q 503 685 435 685 q 631 638 585 685 q 676 517 676 592 q 628 401 676 453 q 468 301 579 349 m 468 624 l 456 660 q 499 708 486 683 q 513 763 513 733 q 487 826 513 803 q 408 849 461 849 q 288 814 342 849 q 189 722 233 779 l 150 765 q 234 873 190 831 q 328 936 278 915 q 433 957 378 957 q 572 913 522 957 q 621 796 621 868 q 583 701 621 742 q 468 624 546 660 m 489 625 q 607 710 554 685 q 715 735 660 735 q 814 710 774 735 q 875 644 854 686 q 896 553 896 603 q 867 447 896 493 q 772 339 839 400 l 733 385 q 805 472 786 435 q 824 553 824 510 q 795 633 824 604 q 715 663 767 663 q 631 646 668 663 q 540 581 593 629 l 88 161 l 42 211 l 489 625 z "},"༭":{"ha":960,"x_min":42,"x_max":925,"o":"m 869 588 q 810 572 847 578 q 722 565 774 565 q 547 607 628 565 q 398 721 465 649 q 275 885 331 793 l 354 878 l 128 743 l 156 818 q 281 631 218 713 q 415 494 344 550 q 575 410 486 439 q 779 382 664 382 q 856 387 819 382 q 925 401 893 392 l 925 339 q 817 314 869 321 q 714 307 764 307 q 503 333 596 307 q 333 415 410 360 q 185 557 256 469 q 42 765 114 644 l 360 957 q 488 794 421 865 q 631 681 556 722 q 786 640 706 640 q 834 642 814 640 q 869 649 854 644 l 869 588 m 513 792 q 631 876 578 851 q 739 901 683 901 q 838 877 797 901 q 899 811 878 853 q 919 719 919 769 q 891 613 919 660 q 796 506 863 567 l 757 551 q 828 639 810 601 q 847 719 847 676 q 819 800 847 771 q 739 829 790 829 q 654 813 692 829 q 564 747 617 796 l 111 328 l 65 378 l 513 792 z "},"༮":{"ha":938,"x_min":42,"x_max":896,"o":"m 268 957 q 249 821 256 889 q 242 689 242 753 q 247 584 242 633 q 264 499 253 535 l 193 507 l 485 564 l 488 493 l 144 425 q 125 552 132 479 q 118 693 118 625 q 124 808 118 751 q 143 915 131 865 l 268 957 m 607 957 q 576 801 588 883 q 564 631 564 718 q 594 365 564 500 q 676 96 625 231 l 619 67 q 499 347 543 211 q 454 618 454 483 q 461 767 454 692 q 482 915 468 843 l 607 957 m 489 564 q 607 649 554 624 q 715 674 660 674 q 814 649 774 674 q 875 583 854 625 q 896 492 896 542 q 867 385 896 432 q 772 278 839 339 l 733 324 q 805 411 786 374 q 824 492 824 449 q 795 572 824 543 q 715 601 767 601 q 631 585 668 601 q 540 519 593 568 l 88 100 l 42 150 l 489 564 z "},"༯":{"ha":938,"x_min":42,"x_max":896,"o":"m 119 957 q 150 750 126 850 q 216 572 174 650 q 319 447 258 493 q 463 401 381 401 q 535 431 510 401 q 560 494 560 460 q 515 570 560 540 q 375 607 469 600 l 333 704 q 498 869 406 811 q 675 928 590 928 l 660 794 q 569 787 621 799 q 467 750 517 775 q 386 686 418 725 l 354 719 q 563 669 493 715 q 632 535 632 624 q 601 420 632 469 q 519 343 571 371 q 401 315 467 315 q 235 362 301 315 q 132 486 169 408 q 78 660 94 564 q 63 856 63 757 q 64 901 63 878 q 67 944 65 924 l 119 957 m 489 625 q 607 710 554 685 q 715 735 660 735 q 814 710 774 735 q 875 644 854 686 q 896 553 896 603 q 867 447 896 493 q 772 339 839 400 l 733 385 q 805 472 786 435 q 824 553 824 510 q 795 633 824 604 q 715 663 767 663 q 631 646 668 663 q 540 581 593 629 l 88 161 l 42 211 l 489 625 z "},"༰":{"ha":992,"x_min":42,"x_max":950,"o":"m 318 911 q 423 884 382 911 q 484 815 464 857 q 504 725 504 772 q 484 635 504 675 q 432 565 464 594 q 364 511 400 535 l 369 532 q 472 478 421 497 q 578 458 524 458 q 674 494 636 458 q 713 613 713 531 q 694 750 713 685 q 631 888 675 815 l 739 956 q 791 832 775 897 q 807 685 807 767 q 772 523 807 593 q 669 413 736 453 q 510 374 603 374 q 423 383 471 374 q 326 408 375 392 q 236 444 278 424 l 236 472 q 342 567 299 513 q 386 689 386 621 q 354 788 386 750 q 268 825 322 825 q 169 790 201 825 q 138 697 138 756 q 182 560 138 629 l 75 500 q 50 566 58 532 q 42 635 42 600 q 82 781 42 719 q 186 877 122 843 q 318 911 250 911 m 543 757 q 661 842 608 817 q 769 867 714 867 q 868 842 828 867 q 929 776 908 818 q 950 685 950 735 q 922 578 950 625 q 826 471 893 532 l 788 517 q 859 604 840 567 q 878 685 878 642 q 849 765 878 736 q 769 794 821 794 q 685 778 722 794 q 594 713 647 761 l 142 293 l 96 343 l 543 757 z "},"༱":{"ha":938,"x_min":42,"x_max":896,"o":"m 471 957 l 518 911 l 154 535 l 146 613 q 420 538 304 594 q 619 374 536 481 q 760 94 701 267 l 704 72 q 475 358 632 254 q 78 483 318 461 l 69 542 l 471 957 m 489 625 q 607 710 554 685 q 715 735 660 735 q 814 710 774 735 q 875 644 854 686 q 896 553 896 603 q 867 447 896 493 q 772 339 839 400 l 733 385 q 805 472 786 435 q 824 553 824 510 q 795 633 824 604 q 715 663 767 663 q 631 646 668 663 q 540 581 593 629 l 88 161 l 42 211 l 489 625 z "},"༲":{"ha":938,"x_min":42,"x_max":896,"o":"m 515 967 q 653 909 604 967 q 703 764 703 851 q 678 647 703 696 q 603 561 653 599 q 478 486 553 524 l 514 518 q 547 510 529 513 q 586 507 565 507 q 676 515 629 507 q 767 538 724 522 l 785 476 q 658 421 725 442 q 533 400 592 400 q 456 410 493 400 q 393 438 418 419 l 393 496 q 495 553 451 517 q 563 635 539 589 q 588 733 588 682 q 559 827 588 794 q 474 860 531 860 q 336 776 389 860 q 283 511 283 693 q 291 295 283 397 q 315 83 299 193 l 256 72 q 221 288 233 182 q 208 506 208 394 q 247 759 208 657 q 356 914 286 861 q 515 967 425 967 m 489 786 q 607 871 554 846 q 715 896 660 896 q 814 872 774 896 q 875 806 854 847 q 896 714 896 764 q 867 608 896 654 q 772 500 839 561 l 733 546 q 805 633 786 596 q 824 714 824 671 q 795 794 824 765 q 715 824 767 824 q 631 807 668 824 q 540 742 593 790 l 88 322 l 42 372 l 489 786 z "},"༳":{"ha":938,"x_min":42,"x_max":896,"o":"m 400 328 q 236 365 307 328 q 126 470 165 403 q 88 628 88 538 q 126 800 88 726 q 236 915 165 874 q 400 956 307 956 q 570 915 497 956 q 684 801 643 874 q 725 629 725 728 q 684 471 725 539 q 570 365 643 403 q 400 328 497 328 m 457 417 q 573 460 529 417 q 617 576 617 504 q 580 719 617 654 q 481 822 543 783 q 342 861 418 861 q 231 817 274 861 q 189 701 189 774 q 226 563 189 628 q 324 457 263 497 q 457 417 385 417 m 489 806 q 607 890 554 865 q 715 915 660 915 q 814 891 774 915 q 875 825 854 867 q 896 733 896 783 q 867 627 896 674 q 772 519 839 581 l 733 565 q 805 653 786 615 q 824 733 824 690 q 795 814 824 785 q 715 843 767 843 q 631 826 668 843 q 540 761 593 810 l 88 342 l 42 392 l 489 806 z "},"༠":{"ha":763,"x_min":63,"x_max":700,"o":"m 375 328 q 211 365 282 328 q 101 470 140 403 q 63 628 63 538 q 101 800 63 726 q 211 915 140 874 q 375 956 282 956 q 545 915 472 956 q 659 801 618 874 q 700 629 700 728 q 659 471 700 539 q 545 365 618 403 q 375 328 472 328 m 432 417 q 548 460 504 417 q 592 576 592 504 q 555 719 592 654 q 456 822 518 783 q 317 861 393 861 q 206 817 249 861 q 164 701 164 774 q 201 563 164 628 q 299 457 238 497 q 432 417 360 417 z "},"༡":{"ha":672,"x_min":42,"x_max":617,"o":"m 617 942 q 588 637 614 768 q 502 404 563 506 q 337 222 442 303 q 71 67 232 140 l 42 121 q 261 263 175 186 q 396 431 347 339 q 465 633 444 522 q 492 878 486 744 l 319 878 q 294 749 315 818 q 241 618 274 681 q 169 511 208 556 l 61 576 q 158 738 119 644 q 211 942 197 832 l 617 942 z "},"༢":{"ha":719,"x_min":35,"x_max":747,"o":"m 314 440 l 283 483 q 419 598 378 540 q 461 724 461 656 q 428 810 461 778 q 328 843 396 843 q 190 803 251 843 q 74 701 128 763 l 35 744 q 131 864 81 817 q 238 935 181 911 q 357 958 294 958 q 478 931 428 958 q 554 856 528 904 q 581 744 581 808 q 548 627 581 682 q 456 526 515 572 q 314 440 396 479 m 715 142 q 594 252 649 208 q 492 321 540 296 q 394 356 444 346 q 285 367 344 367 q 188 358 233 367 q 103 335 142 349 l 125 451 q 206 476 160 467 q 303 486 251 486 q 419 471 365 486 q 522 422 472 456 q 627 330 572 388 q 747 189 682 272 l 715 142 z "},"༣":{"ha":717,"x_min":35,"x_max":744,"o":"m 713 31 q 592 135 646 93 q 490 199 538 176 q 392 232 442 222 q 282 242 342 242 q 185 233 231 242 q 100 210 139 224 l 122 326 q 203 351 157 342 q 300 361 249 361 q 416 347 363 361 q 519 299 469 332 q 624 212 569 267 q 744 78 679 157 l 713 31 m 353 301 l 329 344 q 424 414 394 379 q 453 492 453 449 q 431 553 453 531 q 363 576 408 576 q 270 555 311 576 q 193 500 229 533 l 154 543 q 261 650 203 615 q 388 685 319 685 q 515 638 469 685 q 561 517 561 592 q 513 401 561 453 q 353 301 464 349 m 353 624 l 340 660 q 384 708 371 683 q 397 763 397 733 q 372 826 397 803 q 293 849 346 849 q 172 814 226 849 q 74 722 118 779 l 35 765 q 119 873 75 831 q 213 936 163 915 q 318 957 263 957 q 456 913 407 957 q 506 796 506 868 q 468 701 506 742 q 353 624 431 660 z "},"༤":{"ha":953,"x_min":35,"x_max":918,"o":"m 863 588 q 803 572 840 578 q 715 565 767 565 q 540 607 621 565 q 391 721 458 649 q 268 885 324 793 l 347 878 l 121 743 l 149 818 q 274 631 211 713 q 408 494 338 550 q 568 410 479 439 q 772 382 657 382 q 849 387 813 382 q 918 401 886 392 l 918 339 q 810 314 863 321 q 707 307 757 307 q 496 333 589 307 q 326 415 403 360 q 178 557 249 469 q 35 765 107 644 l 353 957 q 481 794 414 865 q 624 681 549 722 q 779 640 699 640 q 827 642 807 640 q 863 649 847 644 l 863 588 z "},"༥":{"ha":621,"x_min":63,"x_max":621,"o":"m 213 957 q 193 821 200 889 q 186 689 186 753 q 192 584 186 633 q 208 499 197 535 l 138 507 l 429 564 l 432 493 l 89 425 q 69 552 76 479 q 63 693 63 625 q 69 808 63 751 q 88 915 75 865 l 213 957 m 551 957 q 520 801 532 883 q 508 631 508 718 q 539 365 508 500 q 621 96 569 231 l 564 67 q 443 347 488 211 q 399 618 399 483 q 406 767 399 692 q 426 915 413 843 l 551 957 z "},"༦":{"ha":717,"x_min":63,"x_max":675,"o":"m 119 957 q 150 750 126 850 q 216 572 174 650 q 319 447 258 493 q 463 401 381 401 q 535 431 510 401 q 560 494 560 460 q 515 570 560 540 q 375 607 469 600 l 333 704 q 498 869 406 811 q 675 928 590 928 l 660 794 q 569 787 621 799 q 467 750 517 775 q 386 686 418 725 l 354 719 q 563 669 493 715 q 632 535 632 624 q 601 420 632 469 q 519 343 571 371 q 401 315 467 315 q 235 362 301 315 q 132 486 169 408 q 78 660 94 564 q 63 856 63 757 q 64 901 63 878 q 67 944 65 924 l 119 957 z "},"༧":{"ha":890,"x_min":63,"x_max":828,"o":"m 339 911 q 444 884 403 911 q 505 815 485 857 q 525 725 525 772 q 505 635 525 675 q 453 565 485 594 q 385 511 421 535 l 390 532 q 493 478 442 497 q 599 458 544 458 q 695 494 657 458 q 733 613 733 531 q 715 750 733 685 q 651 888 696 815 l 760 956 q 812 832 796 897 q 828 685 828 767 q 792 523 828 593 q 690 413 757 453 q 531 374 624 374 q 444 383 492 374 q 347 408 396 392 q 257 444 299 424 l 257 472 q 363 567 319 513 q 407 689 407 621 q 375 788 407 750 q 289 825 343 825 q 190 790 222 825 q 158 697 158 756 q 203 560 158 629 l 96 500 q 71 566 79 532 q 63 635 63 600 q 103 781 63 719 q 207 877 143 843 q 339 911 271 911 z "},"༨":{"ha":704,"x_min":42,"x_max":732,"o":"m 443 957 l 490 911 l 126 535 l 118 613 q 392 538 276 594 q 591 374 508 481 q 732 94 674 267 l 676 72 q 447 358 604 254 q 50 483 290 461 l 42 542 l 443 957 z "},"༩":{"ha":701,"x_min":83,"x_max":660,"o":"m 390 967 q 528 909 479 967 q 578 764 578 851 q 553 647 578 696 q 478 561 528 599 q 353 486 428 524 l 389 518 q 422 510 404 513 q 461 507 440 507 q 551 515 504 507 q 642 538 599 522 l 660 476 q 533 421 600 442 q 408 400 467 400 q 331 410 368 400 q 268 438 293 419 l 268 496 q 370 553 326 517 q 438 635 414 589 q 463 733 463 682 q 434 827 463 794 q 349 860 406 860 q 211 776 264 860 q 158 511 158 693 q 166 295 158 397 q 190 83 174 193 l 131 72 q 96 288 108 182 q 83 506 83 394 q 122 759 83 657 q 231 914 161 861 q 390 967 300 967 z "},"-":{"ha":447,"x_min":56,"x_max":392,"o":"m 56 457 l 56 565 l 392 565 l 392 457 l 56 457 z "},"‐":{"ha":447,"x_min":56,"x_max":392,"o":"m 56 457 l 56 565 l 392 565 l 392 457 l 56 457 z "},"࿚":{"ha":833,"x_min":83,"x_max":778,"o":"m 83 442 l 263 338 l 83 233 l 83 442 m 388 558 l 567 454 l 388 350 l 388 558 m 599 790 l 778 686 l 599 582 l 599 790 z "},"࿙":{"ha":833,"x_min":56,"x_max":750,"o":"m 750 442 l 750 233 l 571 338 l 750 442 m 446 558 l 446 350 l 267 454 l 446 558 m 235 790 l 235 582 l 56 686 l 235 790 z "},"༄":{"ha":1326,"x_min":28,"x_max":1282,"o":"m 944 351 q 786 378 854 351 q 663 451 718 404 q 557 558 607 497 q 456 685 507 618 q 344 822 404 753 q 206 956 283 892 q 28 1072 129 1019 l 82 1107 q 273 994 190 1060 q 422 858 356 929 q 546 717 488 786 q 665 593 604 649 q 795 504 725 538 q 954 471 865 471 q 1096 497 1039 471 q 1181 569 1153 524 q 1210 671 1210 614 q 1155 794 1210 746 q 994 843 1100 843 q 894 822 925 843 q 863 772 863 801 q 893 725 863 743 q 989 707 924 707 q 1035 711 1013 707 q 1079 725 1058 715 l 1061 607 q 1021 590 1044 596 q 972 583 997 583 q 881 606 919 583 q 822 669 843 629 q 801 761 801 710 q 826 860 801 815 q 898 931 850 904 q 1017 957 946 957 q 1148 924 1090 957 q 1238 828 1206 890 q 1271 683 1271 767 q 1228 508 1271 582 q 1113 392 1186 433 q 944 351 1039 351 m 910 114 q 731 140 808 114 q 590 210 653 165 q 476 313 528 256 q 374 433 424 369 q 274 561 325 497 q 163 682 222 625 q 28 783 103 739 l 82 815 q 227 723 163 779 q 349 602 292 667 q 465 474 407 538 q 588 357 522 410 q 733 272 653 304 q 917 240 814 240 q 1120 288 1036 240 q 1269 429 1204 336 l 1282 364 q 1126 178 1217 242 q 910 114 1036 114 z "},"༅":{"ha":615,"x_min":-92,"x_max":574,"o":"m 236 351 q 44 418 121 351 q -92 599 -32 485 l -76 643 q 63 517 -12 563 q 246 471 138 471 q 388 497 331 471 q 473 569 444 524 q 501 671 501 614 q 447 794 501 746 q 286 843 392 843 q 185 822 217 843 q 154 772 154 801 q 185 725 154 743 q 281 707 215 707 q 327 711 304 707 q 371 725 350 715 l 353 607 q 313 590 336 596 q 264 583 289 583 q 173 606 211 583 q 114 669 135 629 q 93 761 93 710 q 117 860 93 815 q 190 931 142 904 q 308 957 238 957 q 440 924 382 957 q 530 828 497 890 q 563 683 563 767 q 520 508 563 582 q 404 392 478 433 q 236 351 331 351 m 229 114 q 96 145 151 114 q 1 233 40 176 q -69 364 -39 290 l -57 429 q 68 292 0 344 q 236 240 136 240 q 424 288 346 240 q 561 429 501 336 l 574 364 q 429 178 513 242 q 229 114 346 114 z "},"༆":{"ha":1326,"x_min":28,"x_max":1282,"o":"m 944 415 q 786 440 854 415 q 663 506 718 464 q 557 602 607 547 q 456 719 507 657 q 344 843 404 781 q 206 965 283 906 q 28 1072 129 1024 l 82 1107 q 273 1005 190 1064 q 422 881 356 946 q 546 753 488 815 q 665 640 604 690 q 795 559 725 589 q 954 529 865 529 q 1146 580 1082 529 q 1210 704 1210 631 q 1155 807 1210 765 q 994 849 1100 849 q 894 831 925 849 q 863 786 863 813 q 893 748 863 763 q 989 733 924 733 q 1035 737 1013 733 q 1079 747 1058 740 l 1061 635 q 1021 620 1044 625 q 972 615 997 615 q 881 635 919 615 q 822 692 843 656 q 801 775 801 728 q 826 867 801 825 q 898 933 850 908 q 1017 957 946 957 q 1148 927 1090 957 q 1238 844 1206 897 q 1271 717 1271 790 q 1228 557 1271 625 q 1113 452 1186 489 q 944 415 1039 415 m 947 -656 l 883 -611 q 869 -353 876 -458 q 851 -169 861 -247 q 828 -19 842 -90 l 783 100 l 992 100 l 947 -19 l 947 -656 m 910 194 q 731 217 808 194 q 590 279 653 240 q 476 368 528 318 q 374 474 424 418 q 274 587 325 531 q 163 694 222 643 q 28 783 103 744 l 82 815 q 227 735 163 783 q 349 630 292 686 q 465 518 407 574 q 588 417 522 463 q 733 343 653 371 q 917 315 814 315 q 1120 360 1036 315 q 1269 493 1204 404 l 1282 428 q 1126 254 1217 314 q 910 194 1036 194 z "},"༇":{"ha":1913,"x_min":28,"x_max":1843,"o":"m 1385 942 l 1460 942 l 1460 314 l 1385 314 l 1385 942 m 1768 942 l 1843 942 l 1843 314 l 1768 314 l 1768 942 m 1614 718 q 1555 742 1579 718 q 1531 801 1531 767 q 1555 860 1531 836 q 1614 885 1579 885 q 1673 860 1649 885 q 1697 801 1697 836 q 1673 742 1697 767 q 1614 718 1649 718 m 1614 371 q 1555 395 1579 371 q 1531 454 1531 419 q 1555 513 1531 489 q 1614 538 1579 538 q 1673 513 1649 538 q 1697 454 1697 489 q 1673 395 1697 419 q 1614 371 1649 371 m 82 1107 q 273 985 190 1056 q 422 838 356 915 q 546 685 488 760 q 665 551 604 611 q 795 454 725 490 q 954 418 865 418 q 1096 448 1039 418 q 1181 529 1153 478 q 1210 644 1210 581 q 1184 747 1210 703 q 1108 817 1158 792 q 983 843 1057 843 q 903 831 935 843 q 858 799 872 819 q 844 753 844 778 q 877 692 844 715 q 978 668 910 668 q 1024 672 1001 668 q 1068 686 1047 676 l 1050 568 q 1010 551 1033 557 q 961 544 986 544 q 867 569 907 544 q 805 640 826 594 q 783 742 783 685 q 808 850 783 801 q 883 928 833 899 q 1006 957 933 957 q 1143 920 1083 957 q 1237 816 1203 883 q 1271 657 1271 749 q 1228 467 1271 547 q 1113 342 1186 386 q 944 299 1039 299 q 786 327 854 299 q 663 406 718 356 q 557 520 607 456 q 456 657 507 585 q 344 803 404 729 q 206 947 283 878 q 28 1072 129 1015 l 82 1107 z "},"༈":{"ha":681,"x_min":56,"x_max":625,"o":"m 329 394 q 271 452 303 431 q 192 488 239 474 q 69 518 144 503 l 56 638 q 206 590 151 615 q 291 536 261 565 q 340 471 321 507 q 391 536 361 507 q 476 590 421 565 q 625 638 531 615 l 611 518 q 489 488 536 503 q 410 452 442 474 q 351 394 379 431 l 329 394 m 381 -656 l 317 -611 q 315 -309 317 -440 q 312 -76 314 -178 q 307 112 310 26 q 300 276 304 197 l 340 207 l 381 276 l 381 -656 m 321 186 q 278 244 303 224 q 214 277 253 265 q 111 299 175 289 l 97 418 q 226 374 179 397 q 298 323 272 350 q 340 263 324 296 q 383 323 358 296 q 456 374 408 350 q 583 418 503 397 l 569 299 q 467 277 507 289 q 403 244 428 265 q 360 186 379 224 l 321 186 m 367 669 q 317 674 339 669 q 272 688 296 678 l 272 694 q 319 789 319 739 q 261 844 319 844 q 187 810 215 844 q 154 697 158 775 l 97 697 q 144 878 101 815 q 272 942 188 942 q 357 913 331 942 q 383 843 383 885 q 347 753 383 793 l 338 781 q 363 770 351 774 q 392 767 375 767 q 482 805 444 767 q 526 942 519 843 l 583 942 q 528 735 578 801 q 367 669 478 669 z "},"༉":{"ha":838,"x_min":28,"x_max":796,"o":"m 508 460 l 467 497 q 530 590 511 549 q 549 675 549 631 q 513 781 549 744 q 401 818 478 818 q 246 775 325 818 q 60 629 167 732 l 28 682 q 178 837 111 781 q 308 917 246 893 q 435 942 369 942 q 571 910 518 942 q 649 828 624 879 q 675 714 675 776 q 639 588 675 646 q 508 460 603 529 m 750 -137 q 594 33 665 -29 q 460 121 524 94 q 328 147 396 147 q 243 131 281 147 q 165 78 206 114 l 139 132 q 242 235 188 203 q 367 268 296 268 q 513 228 446 268 q 648 108 581 189 q 792 -94 715 28 l 750 -137 m 754 126 q 624 287 686 228 q 501 372 563 346 q 374 397 440 397 q 286 381 325 397 q 211 328 247 364 l 185 382 q 288 485 233 453 q 413 518 342 518 q 617 431 528 518 q 796 169 707 343 l 754 126 z "},"༊":{"ha":1235,"x_min":56,"x_max":1207,"o":"m 796 -353 q 494 -298 631 -353 q 260 -143 358 -243 q 109 94 163 -43 q 56 394 56 231 q 104 687 56 557 q 241 910 153 817 q 449 1052 329 1003 q 713 1101 569 1101 q 822 1094 774 1101 q 915 1069 871 1086 l 896 1011 q 811 1031 856 1025 q 713 1038 767 1038 q 490 995 592 1038 q 313 872 389 953 q 196 676 238 792 q 154 414 154 561 q 201 138 154 264 q 335 -81 247 11 q 545 -224 422 -174 q 819 -275 668 -275 q 1021 -242 939 -275 q 1168 -154 1103 -210 l 1207 -204 q 1033 -315 1135 -276 q 796 -353 932 -353 m 826 460 l 785 497 q 848 590 829 549 q 867 675 867 631 q 831 781 867 744 q 719 818 796 818 q 564 775 643 818 q 378 629 485 732 l 346 682 q 497 837 429 781 q 626 917 564 893 q 753 942 688 942 q 890 910 836 942 q 968 828 943 879 q 993 714 993 776 q 957 588 993 646 q 826 460 921 529 m 1068 -137 q 913 33 983 -29 q 778 121 842 94 q 646 147 714 147 q 561 131 599 147 q 483 78 524 114 l 457 132 q 560 235 506 203 q 685 268 614 268 q 831 228 764 268 q 966 108 899 189 q 1110 -94 1033 28 l 1068 -137 m 1072 126 q 942 287 1004 228 q 819 372 881 346 q 692 397 758 397 q 604 381 643 397 q 529 328 565 364 l 503 382 q 606 485 551 453 q 731 518 660 518 q 935 431 846 518 q 1114 169 1025 343 l 1072 126 z "},"་":{"ha":292,"x_min":42,"x_max":250,"o":"m 250 942 l 192 785 l 100 785 l 42 942 l 250 942 z "},"༌":{"ha":292,"x_min":42,"x_max":250,"o":"m 250 942 l 192 785 l 100 785 l 42 942 l 250 942 z "},"།":{"ha":308,"x_min":50,"x_max":258,"o":"m 258 942 l 214 822 l 214 -656 l 150 -611 q 148 -211 150 -390 q 142 114 146 -32 q 131 382 138 260 q 116 612 125 504 q 94 822 107 719 l 50 942 l 258 942 z "},"༎":{"ha":558,"x_min":50,"x_max":508,"o":"m 258 942 l 214 822 l 214 -656 l 150 -611 q 148 -211 150 -390 q 142 114 146 -32 q 131 382 138 260 q 116 612 125 504 q 94 822 107 719 l 50 942 l 258 942 m 508 942 l 464 822 l 464 -656 l 400 -611 q 398 -211 400 -390 q 392 114 396 -32 q 381 382 388 260 q 366 612 375 504 q 344 822 357 719 l 300 942 l 508 942 z "},"༏":{"ha":308,"x_min":50,"x_max":258,"o":"m 214 -656 l 150 -611 q 147 -233 150 -396 q 138 59 144 -69 q 120 293 131 188 q 94 499 110 399 l 50 618 l 258 618 l 214 499 l 214 -656 m 108 785 l 50 942 l 258 942 l 200 785 l 108 785 z "},"༐":{"ha":308,"x_min":50,"x_max":258,"o":"m 214 -656 l 150 -611 q 141 -324 146 -449 q 130 -103 136 -200 q 115 75 124 -6 q 94 231 106 156 l 50 350 l 258 350 l 214 231 l 214 -656 m 108 489 l 50 646 l 258 646 l 200 489 l 108 489 m 108 785 l 50 942 l 258 942 l 200 785 l 108 785 z "},"༑":{"ha":586,"x_min":50,"x_max":536,"o":"m 353 -656 l 289 -611 q 280 -324 285 -449 q 269 -103 275 -200 q 253 75 263 -6 q 233 231 244 156 l 189 350 l 397 350 l 353 231 l 353 -656 m 247 489 l 189 646 l 397 646 l 339 489 l 247 489 m 108 785 l 50 942 l 258 942 l 200 785 l 108 785 m 386 785 l 328 942 l 536 942 l 478 785 l 386 785 z "},"༒":{"ha":1811,"x_min":14,"x_max":1797,"o":"m 965 -656 l 901 -611 q 892 -324 897 -449 q 881 -103 888 -200 q 866 75 875 -6 q 846 231 857 156 l 801 350 l 1010 350 l 965 231 l 965 -656 m 558 621 l 439 658 q 332 669 389 665 q 199 675 275 672 q 14 679 124 678 l 14 740 q 199 745 124 743 q 332 751 275 747 q 439 761 389 756 l 558 799 l 558 621 m 932 406 q 883 410 904 406 q 838 424 861 414 l 838 431 q 873 476 861 453 q 885 525 885 499 q 826 581 885 581 q 752 546 781 581 q 719 433 724 511 l 663 433 q 710 615 667 551 q 838 678 753 678 q 922 649 896 678 q 949 579 949 621 q 940 531 949 554 q 913 489 931 508 l 903 517 q 957 503 929 503 q 1047 541 1010 503 q 1092 678 1085 579 l 1149 678 q 1093 472 1143 538 q 932 406 1043 406 m 625 726 l 586 858 l 725 858 l 686 726 l 625 726 m 792 726 l 753 858 l 892 858 l 853 726 l 792 726 m 958 726 l 919 858 l 1058 858 l 1019 726 l 958 726 m 906 917 q 747 969 810 917 q 656 1121 683 1021 l 707 1153 q 783 1058 736 1089 q 906 1028 829 1028 q 1028 1058 982 1028 q 1104 1153 1075 1089 l 1156 1121 q 1065 969 1129 1021 q 906 917 1001 917 m 1125 726 l 1086 858 l 1225 858 l 1186 726 l 1125 726 m 906 1175 q 956 1194 938 1175 q 975 1244 975 1214 q 963 1292 975 1272 q 935 1331 951 1313 q 906 1369 919 1349 q 876 1331 892 1349 q 848 1292 860 1313 q 836 1244 836 1272 q 856 1194 836 1214 q 906 1175 875 1175 m 906 1106 q 806 1144 844 1106 q 767 1244 767 1182 q 780 1310 767 1285 q 812 1357 793 1336 q 847 1401 831 1378 q 871 1460 864 1425 l 940 1460 q 964 1401 947 1425 q 999 1357 981 1378 q 1031 1310 1018 1336 q 1044 1244 1044 1285 q 1006 1144 1044 1182 q 906 1106 967 1106 m 1253 621 l 1253 799 l 1372 761 q 1480 751 1424 756 q 1612 745 1536 747 q 1797 740 1688 743 l 1797 679 q 1612 675 1688 678 q 1480 669 1536 672 q 1372 658 1424 665 l 1253 621 z "},"༔":{"ha":528,"x_min":69,"x_max":458,"o":"m 257 596 q 117 650 165 596 q 69 785 69 704 q 126 930 69 875 q 271 985 182 985 q 410 931 361 985 q 458 796 458 878 q 402 651 458 707 q 257 596 346 596 m 257 -54 q 117 0 165 -54 q 69 135 69 54 q 126 280 69 225 q 271 335 182 335 q 410 281 361 335 q 458 146 458 228 q 402 1 458 57 q 257 -54 346 -54 m 306 24 q 362 43 343 24 q 381 97 381 63 q 359 173 381 136 q 302 233 338 210 q 224 257 267 257 q 167 238 186 257 q 147 183 147 218 q 169 108 147 144 q 226 47 190 71 q 306 24 263 24 m 81 431 l 81 500 l 433 500 l 433 431 l 81 431 m 307 674 q 362 693 343 674 q 381 747 381 713 q 359 824 381 788 q 301 883 338 860 q 222 907 265 907 q 167 888 186 907 q 147 833 147 868 q 169 758 147 794 q 227 697 190 721 q 307 674 264 674 z "},"྅":{"ha":779,"x_min":56,"x_max":751,"o":"m 129 -119 q 169 -107 149 -111 q 215 -103 189 -103 q 337 -128 279 -103 q 456 -212 394 -154 q 590 -368 518 -271 q 751 -608 661 -465 l 714 -656 q 541 -442 615 -526 q 408 -310 467 -358 q 295 -242 349 -262 q 185 -222 242 -222 q 142 -225 161 -222 q 107 -233 122 -228 l 129 -119 m 225 171 q 171 227 190 194 q 151 304 151 260 q 173 397 151 353 q 232 474 194 440 q 318 528 269 508 q 419 547 367 547 q 547 513 489 547 q 640 417 606 479 q 675 271 675 356 q 639 122 675 192 q 530 -17 603 51 q 344 -165 457 -86 l 299 -122 q 454 13 396 -47 q 540 128 513 74 q 567 242 567 183 q 514 385 567 332 q 363 439 461 439 q 264 414 294 439 q 233 349 233 389 q 297 254 233 292 l 225 171 m 124 536 q 72 603 89 568 q 56 676 56 638 q 78 772 56 725 q 141 858 101 819 q 233 919 181 896 q 344 942 285 942 q 458 915 408 942 q 538 840 508 888 q 567 732 567 793 q 515 592 567 653 q 358 481 463 532 l 332 517 q 430 601 401 558 q 458 692 458 644 q 417 794 458 753 q 285 835 375 835 q 182 807 214 835 q 150 729 150 779 q 165 669 150 694 q 206 618 179 643 l 124 536 z "},"࿐":{"ha":2249,"x_min":28,"x_max":2208,"o":"m 1740 349 q 1521 383 1619 349 q 1335 471 1422 417 q 1165 585 1249 525 q 993 700 1082 646 q 801 788 904 754 q 572 822 699 822 q 308 765 433 822 q 57 579 183 707 l 28 639 q 315 866 158 790 q 644 942 471 942 q 864 908 765 942 q 1049 819 963 874 q 1219 705 1136 765 q 1388 590 1301 644 q 1576 502 1475 536 q 1799 468 1676 468 q 1991 497 1893 468 q 2208 592 2089 525 l 2208 524 q 1972 391 2090 433 q 1740 349 1853 349 m 843 -172 q 698 -43 764 -90 q 572 24 632 4 q 449 43 513 43 q 378 31 410 43 q 314 -7 346 19 l 288 47 q 382 136 335 108 q 488 164 429 164 q 624 132 561 164 q 751 35 688 100 q 885 -129 814 -29 l 843 -172 m 851 50 q 731 169 789 125 q 617 233 674 214 q 499 251 560 251 q 419 240 454 251 q 350 201 383 228 l 324 256 q 424 344 374 317 q 538 372 475 372 q 728 302 644 372 q 893 93 811 232 l 851 50 m 621 286 l 578 324 q 641 409 622 372 q 660 488 660 446 q 632 568 660 540 q 544 596 604 596 q 388 552 468 596 q 199 403 308 508 l 171 460 q 331 615 261 558 q 460 695 401 671 q 578 719 519 719 q 697 693 651 719 q 765 623 743 667 q 786 526 786 579 q 751 408 786 463 q 621 286 715 353 z "},"࿑":{"ha":751,"x_min":56,"x_max":696,"o":"m 642 -656 q 417 -540 506 -608 q 288 -368 329 -472 q 246 -107 246 -264 q 364 -50 329 -78 q 399 15 399 -22 q 363 84 399 58 q 256 110 328 110 q 175 97 211 110 q 99 51 139 83 l 72 106 q 174 202 121 171 q 292 233 228 233 q 415 208 363 233 q 497 142 468 183 q 525 54 525 101 q 489 -46 525 -1 q 358 -125 453 -90 q 389 -329 358 -243 q 490 -482 419 -415 q 679 -610 560 -549 l 642 -656 m 654 78 q 511 207 576 160 q 387 274 446 254 q 265 293 328 293 q 194 281 226 293 q 131 243 163 269 l 104 297 q 199 386 151 358 q 304 414 246 414 q 440 382 378 414 q 563 285 501 350 q 696 121 625 221 l 654 78 m 654 272 q 534 392 592 347 q 419 455 476 436 q 301 474 363 474 q 210 457 250 474 q 131 404 169 440 l 104 458 q 216 563 160 531 q 340 594 272 594 q 531 524 447 594 q 696 315 614 454 l 654 272 m 424 522 l 381 560 q 444 638 425 604 q 463 710 463 671 q 434 790 463 761 q 347 818 406 818 q 228 791 289 818 q 83 699 167 764 l 56 756 q 183 867 128 826 q 287 924 239 907 q 381 942 335 942 q 536 885 483 942 q 589 749 589 828 q 553 637 589 689 q 424 522 518 585 z "},"࿒":{"ha":292,"x_min":42,"x_max":250,"o":"m 250 942 l 192 785 l 100 785 l 42 942 l 250 942 m 250 414 l 192 257 l 100 257 l 42 414 l 250 414 z "},"࿓":{"ha":1326,"x_min":28,"x_max":1271,"o":"m 82 1107 q 273 985 190 1056 q 422 838 356 915 q 546 685 488 760 q 665 551 604 611 q 795 454 725 490 q 954 418 865 418 q 1096 448 1039 418 q 1181 529 1153 478 q 1210 644 1210 581 q 1184 747 1210 703 q 1108 817 1158 792 q 983 843 1057 843 q 903 831 935 843 q 858 799 872 819 q 844 753 844 778 q 877 692 844 715 q 978 668 910 668 q 1024 672 1001 668 q 1068 686 1047 676 l 1050 568 q 1010 551 1033 557 q 961 544 986 544 q 867 569 907 544 q 805 640 826 594 q 783 742 783 685 q 808 850 783 801 q 883 928 833 899 q 1006 957 933 957 q 1143 920 1083 957 q 1237 816 1203 883 q 1271 657 1271 749 q 1228 467 1271 547 q 1113 342 1186 386 q 944 299 1039 299 q 786 327 854 299 q 663 406 718 356 q 557 520 607 456 q 456 657 507 585 q 344 803 404 729 q 206 947 283 878 q 28 1072 129 1015 l 82 1107 z "},"࿔":{"ha":621,"x_min":-89,"x_max":565,"o":"m 239 310 q 47 376 124 310 q -89 557 -29 443 l -74 601 q 65 475 -10 521 q 249 429 140 429 q 390 458 333 429 q 476 538 447 488 q 504 650 504 588 q 478 750 504 707 q 402 818 453 793 q 278 843 351 843 q 198 831 229 843 q 153 801 167 819 q 139 758 139 782 q 172 701 139 724 q 272 679 204 679 q 319 683 296 679 q 363 697 342 688 l 344 579 q 304 562 328 568 q 256 556 281 556 q 161 580 201 556 q 99 648 121 604 q 78 747 78 692 q 103 852 78 804 q 178 928 128 900 q 300 957 228 957 q 438 921 378 957 q 531 819 497 885 q 565 663 565 753 q 523 476 565 556 q 407 353 481 396 q 239 310 333 310 z "},"༺":{"ha":2222,"x_min":28,"x_max":2160,"o":"m 82 1107 q 273 985 190 1056 q 422 838 356 915 q 546 685 488 760 q 665 551 604 611 q 795 454 725 490 q 954 418 865 418 q 1096 448 1039 418 q 1181 529 1153 478 q 1210 644 1210 581 q 1184 747 1210 703 q 1108 817 1158 792 q 983 843 1057 843 q 903 831 935 843 q 858 799 872 819 q 844 753 844 778 q 877 692 844 715 q 978 668 910 668 q 1024 672 1001 668 q 1068 686 1047 676 l 1050 568 q 1010 551 1033 557 q 961 544 986 544 q 867 569 907 544 q 805 640 826 594 q 783 742 783 685 q 808 850 783 801 q 883 928 833 899 q 1006 957 933 957 q 1143 920 1083 957 q 1237 816 1203 883 q 1271 657 1271 749 q 1228 467 1271 547 q 1113 342 1186 386 q 944 299 1039 299 q 786 327 854 299 q 663 406 718 356 q 557 520 607 456 q 456 657 507 585 q 344 803 404 729 q 206 947 283 878 q 28 1072 129 1015 l 82 1107 m 1563 813 q 1660 787 1617 813 q 1731 717 1704 761 q 1757 618 1757 672 q 1731 521 1757 565 q 1660 450 1704 476 q 1563 424 1617 424 q 1465 450 1508 424 q 1394 521 1421 476 q 1368 618 1368 565 q 1394 717 1368 672 q 1465 787 1421 761 q 1563 813 1508 813 m 1563 743 q 1474 707 1511 743 q 1438 618 1438 671 q 1474 530 1438 567 q 1563 493 1511 493 q 1651 530 1615 493 q 1688 618 1688 567 q 1651 707 1688 671 q 1563 743 1615 743 m 1965 571 q 2063 545 2019 571 q 2133 475 2107 519 q 2160 376 2160 431 q 2133 279 2160 324 q 2063 208 2107 235 q 1965 182 2019 182 q 1867 208 1911 182 q 1797 279 1824 235 q 1771 376 1771 324 q 1797 475 1771 431 q 1867 545 1824 519 q 1965 571 1911 571 m 1965 501 q 1877 465 1914 501 q 1840 376 1840 429 q 1877 288 1840 325 q 1965 251 1914 251 q 2054 288 2018 251 q 2090 376 2090 325 q 2054 465 2090 429 q 1965 501 2018 501 m 1965 1054 q 2063 1028 2019 1054 q 2133 958 2107 1003 q 2160 860 2160 914 q 2133 763 2160 807 q 2063 692 2107 718 q 1965 665 2019 665 q 1867 692 1911 665 q 1797 763 1824 718 q 1771 860 1771 807 q 1797 958 1771 914 q 1867 1028 1824 1003 q 1965 1054 1911 1054 m 1965 985 q 1877 949 1914 985 q 1840 860 1840 913 q 1877 772 1840 808 q 1965 735 1914 735 q 2054 772 2018 735 q 2090 860 2090 808 q 2054 949 2090 913 q 1965 985 2018 985 z "},"༻":{"ha":2222,"x_min":63,"x_max":2194,"o":"m 2140 1107 l 2194 1072 q 2016 947 2093 1015 q 1878 803 1939 878 q 1767 657 1818 729 q 1665 520 1715 585 q 1560 406 1615 456 q 1436 327 1504 356 q 1278 299 1368 299 q 1110 342 1183 299 q 994 467 1036 386 q 951 657 951 547 q 985 816 951 749 q 1080 920 1019 883 q 1217 957 1140 957 q 1340 928 1290 957 q 1414 850 1389 899 q 1439 742 1439 801 q 1417 640 1439 685 q 1356 569 1396 594 q 1261 544 1317 544 q 1213 551 1236 544 q 1172 568 1189 557 l 1154 686 q 1199 672 1175 676 q 1244 668 1222 668 q 1346 692 1314 668 q 1378 753 1378 715 q 1364 799 1378 778 q 1319 831 1350 819 q 1239 843 1289 843 q 1115 817 1165 843 q 1038 747 1064 792 q 1013 644 1013 703 q 1041 529 1013 581 q 1126 448 1069 478 q 1268 418 1183 418 q 1428 454 1358 418 q 1558 551 1497 490 q 1676 685 1618 611 q 1801 838 1735 760 q 1949 985 1867 915 q 2140 1107 2032 1056 m 660 813 q 758 787 714 813 q 828 717 803 761 q 854 618 854 672 q 828 521 854 565 q 758 450 803 476 q 660 424 714 424 q 563 450 607 424 q 492 521 518 476 q 465 618 465 565 q 492 717 465 672 q 563 787 518 761 q 660 813 607 813 m 660 743 q 572 707 608 743 q 535 618 535 671 q 572 530 535 567 q 660 493 608 493 q 749 530 713 493 q 785 618 785 567 q 749 707 785 671 q 660 743 713 743 m 257 571 q 356 545 311 571 q 426 475 400 519 q 451 376 451 431 q 426 279 451 324 q 356 208 400 235 q 257 182 311 182 q 160 208 204 182 q 89 279 115 235 q 63 376 63 324 q 89 475 63 431 q 160 545 115 519 q 257 571 204 571 m 257 501 q 169 465 206 501 q 132 376 132 429 q 169 288 132 325 q 257 251 206 251 q 346 288 310 251 q 382 376 382 325 q 346 465 382 429 q 257 501 310 501 m 257 1054 q 356 1028 311 1054 q 426 958 400 1003 q 451 860 451 914 q 426 763 451 807 q 356 692 400 718 q 257 665 311 665 q 160 692 204 665 q 89 763 115 718 q 63 860 63 807 q 89 958 63 914 q 160 1028 115 1003 q 257 1054 204 1054 m 257 985 q 169 949 206 985 q 132 860 132 913 q 169 772 132 808 q 257 735 206 735 q 346 772 310 735 q 382 860 382 808 q 346 949 382 913 q 257 985 310 985 z "},"༼":{"ha":990,"x_min":42,"x_max":1157,"o":"m 69 -656 l 42 -603 q 169 -550 118 -579 q 253 -474 221 -521 q 304 -351 286 -426 q 330 -160 322 -275 q 339 119 338 -46 q 360 447 342 318 q 421 654 379 576 q 531 774 463 732 q 699 840 599 817 q 691 888 693 865 q 689 932 689 910 q 735 1117 689 1050 q 881 1221 781 1183 q 1006 1278 961 1251 q 1070 1342 1050 1306 q 1100 1436 1090 1379 l 1157 1422 q 1126 1278 1149 1339 q 1062 1177 1104 1218 q 949 1108 1019 1136 q 849 1047 886 1083 q 795 952 811 1011 q 779 800 779 893 q 662 756 713 782 q 576 687 611 731 q 518 572 540 643 q 485 393 496 501 q 472 129 474 285 q 458 -166 471 -43 q 419 -372 446 -289 q 346 -509 392 -456 q 232 -597 300 -562 q 69 -656 164 -631 z "},"༽":{"ha":990,"x_min":-167,"x_max":949,"o":"m 921 -656 q 758 -597 826 -631 q 644 -509 690 -562 q 572 -372 599 -456 q 532 -166 544 -289 q 518 129 519 -43 q 506 393 517 285 q 472 572 494 501 q 415 687 450 643 q 328 756 379 731 q 211 800 278 782 q 195 952 211 893 q 142 1047 179 1011 q 42 1108 106 1083 q -71 1177 -28 1136 q -136 1278 -114 1218 q -167 1422 -158 1339 l -110 1436 q -79 1342 -100 1379 q -15 1278 -58 1306 q 110 1221 29 1251 q 256 1117 210 1183 q 301 932 301 1050 q 299 888 301 910 q 292 840 297 865 q 460 774 392 817 q 569 654 528 732 q 631 447 611 576 q 651 119 650 318 q 660 -160 653 -46 q 686 -351 668 -275 q 737 -474 704 -426 q 821 -550 769 -521 q 949 -603 872 -579 l 921 -656 z "},"‍":{"ha":0,"x_min":0,"x_max":0,"o":""},"‌":{"ha":0,"x_min":0,"x_max":0,"o":""},"◌":{"ha":764,"x_min":100,"x_max":664,"o":"m 561 785 q 591 775 581 785 q 601 744 601 765 q 591 715 601 725 q 561 704 581 704 q 531 715 542 704 q 521 744 521 725 q 531 775 521 765 q 561 785 542 785 m 201 439 q 232 429 222 439 q 242 399 242 419 q 232 368 242 378 q 201 358 222 358 q 172 368 182 358 q 163 399 163 378 q 172 429 163 419 q 201 439 182 439 m 140 611 q 169 601 160 611 q 179 572 179 592 q 169 542 179 551 q 140 532 160 532 q 110 542 119 532 q 100 572 100 551 q 110 601 100 592 q 140 611 119 611 m 381 369 q 412 360 401 369 q 422 329 422 350 q 412 299 422 310 q 381 289 401 289 q 351 299 361 289 q 342 329 342 310 q 351 360 342 350 q 381 369 361 369 m 201 785 q 232 775 222 785 q 242 744 242 765 q 232 715 242 725 q 201 704 222 704 q 172 715 182 704 q 163 744 163 725 q 172 775 163 765 q 201 785 182 785 m 561 439 q 591 429 581 439 q 601 399 601 419 q 591 368 601 378 q 561 358 581 358 q 531 368 542 358 q 521 399 521 378 q 531 429 521 419 q 561 439 542 439 m 381 853 q 412 843 401 853 q 422 814 422 833 q 412 783 422 793 q 381 774 401 774 q 351 783 361 774 q 342 814 342 793 q 351 843 342 833 q 381 853 361 853 m 624 611 q 653 601 643 611 q 664 572 664 592 q 653 542 664 551 q 624 532 643 532 q 594 542 604 532 q 583 572 583 551 q 594 601 583 592 q 624 611 604 611 z "},"|":{"ha":213,"x_min":56,"x_max":157,"o":"m 56 -335 l 56 1056 l 157 1056 l 157 -335 l 56 -335 z "},"࿖":{"ha":1064,"x_min":61,"x_max":1003,"o":"m 1003 903 l 1003 418 l 585 418 l 585 106 l 1003 106 l 964 0 l 479 0 l 479 418 l 167 418 l 167 0 l 61 39 l 61 524 l 479 524 l 479 836 l 61 836 l 100 942 l 585 942 l 585 524 l 897 524 l 897 942 l 1003 903 z "},"࿘":{"ha":1064,"x_min":61,"x_max":1003,"o":"m 167 0 l 61 39 l 61 524 l 479 524 l 479 836 l 61 836 l 100 942 l 585 942 l 585 524 l 897 524 l 897 942 l 1003 903 l 1003 418 l 585 418 l 585 106 l 1003 106 l 964 0 l 479 0 l 479 418 l 167 418 l 167 0 m 326 196 q 277 216 297 196 q 257 265 257 236 q 277 315 257 294 q 326 335 297 335 q 376 315 356 335 q 396 265 396 294 q 376 216 396 236 q 326 196 356 196 m 738 196 q 688 216 708 196 q 668 265 668 236 q 688 315 668 294 q 738 335 708 335 q 787 315 767 335 q 807 265 807 294 q 787 216 807 236 q 738 196 767 196 m 326 607 q 277 627 297 607 q 257 676 257 647 q 277 726 257 706 q 326 746 297 746 q 376 726 356 746 q 396 676 396 706 q 376 627 396 647 q 326 607 356 607 m 738 607 q 688 627 708 607 q 668 676 668 647 q 688 726 668 706 q 738 746 708 746 q 787 726 767 746 q 807 676 807 706 q 787 627 807 647 q 738 607 767 607 z "},"࿕":{"ha":1064,"x_min":61,"x_max":1003,"o":"m 61 0 l 100 106 l 479 106 l 479 418 l 61 418 l 61 942 l 167 903 l 167 524 l 479 524 l 479 942 l 1003 942 l 964 836 l 585 836 l 585 524 l 1003 524 l 1003 0 l 897 39 l 897 418 l 585 418 l 585 0 l 61 0 z "},"࿗":{"ha":1064,"x_min":61,"x_max":1003,"o":"m 61 0 l 100 106 l 479 106 l 479 418 l 61 418 l 61 942 l 167 903 l 167 524 l 479 524 l 479 942 l 1003 942 l 964 836 l 585 836 l 585 524 l 1003 524 l 1003 0 l 897 39 l 897 418 l 585 418 l 585 0 l 61 0 m 326 196 q 277 216 297 196 q 257 265 257 236 q 277 315 257 294 q 326 335 297 335 q 376 315 356 335 q 396 265 396 294 q 376 216 396 236 q 326 196 356 196 m 738 196 q 688 216 708 196 q 668 265 668 236 q 688 315 668 294 q 738 335 708 335 q 787 315 767 335 q 807 265 807 294 q 787 216 807 236 q 738 196 767 196 m 326 607 q 277 627 297 607 q 257 676 257 647 q 277 726 257 706 q 326 746 297 746 q 376 726 356 746 q 396 676 396 706 q 376 627 396 647 q 326 607 356 607 m 738 607 q 688 627 708 607 q 668 676 668 647 q 688 726 668 706 q 738 746 708 746 q 787 726 767 746 q 807 676 807 706 q 787 627 807 647 q 738 607 767 607 z "},"༁":{"ha":1085,"x_min":61,"x_max":1024,"o":"m 1024 122 l 960 136 q 804 378 885 258 q 641 605 724 497 q 475 799 558 713 l 581 886 q 742 646 660 774 q 897 385 824 518 q 1024 122 969 251 m 356 175 q 155 270 231 175 q 79 551 79 365 q 86 693 79 622 q 104 822 93 764 l 61 822 l 89 942 l 256 942 q 171 753 201 849 q 140 565 140 657 q 170 410 140 469 q 254 324 200 351 q 378 297 308 297 q 492 326 456 297 q 529 397 529 354 q 492 467 529 442 q 382 492 456 492 q 347 490 364 492 q 314 485 329 488 l 269 532 q 351 718 301 628 q 456 879 401 808 l 564 861 l 550 818 q 431 699 486 763 q 344 579 376 636 l 331 603 q 375 611 351 611 q 532 560 471 611 q 593 410 593 510 q 527 239 593 303 q 356 175 461 175 m 324 822 l 351 942 l 758 942 l 731 822 l 324 822 z "},"༂":{"ha":1458,"x_min":83,"x_max":1389,"o":"m 567 503 q 692 482 638 503 q 793 415 746 461 q 886 290 840 368 q 986 94 932 211 l 922 83 q 803 259 858 196 q 687 349 749 322 q 542 375 625 375 q 494 372 519 375 q 446 363 468 369 l 460 490 q 567 503 508 503 m 351 942 l 331 853 q 260 767 288 822 q 233 639 233 711 q 256 512 233 568 q 326 399 279 456 l 242 311 q 163 445 186 378 q 140 583 140 513 q 165 720 140 653 q 238 845 190 788 q 351 942 285 903 m 776 942 q 839 826 817 894 q 861 679 861 757 q 765 410 861 531 l 724 431 q 764 526 751 476 q 776 624 776 576 q 754 761 776 700 q 683 878 732 822 l 776 942 m 863 942 l 835 822 l 288 822 l 351 942 l 863 942 m 386 1365 q 390 1393 386 1381 l 449 1393 q 447 1385 447 1389 q 447 1376 447 1381 q 463 1331 447 1349 q 507 1314 478 1314 q 553 1328 535 1314 q 571 1371 571 1342 q 558 1420 571 1397 q 529 1465 546 1443 q 500 1509 513 1486 q 488 1558 488 1532 q 490 1582 488 1572 q 494 1599 492 1592 l 549 1599 q 565 1549 549 1572 q 601 1501 581 1525 q 638 1449 622 1478 q 654 1382 654 1419 q 615 1282 654 1319 q 518 1244 576 1244 q 420 1279 454 1244 q 386 1365 386 1314 m 528 1028 q 243 1274 307 1028 l 294 1306 q 384 1179 329 1219 q 528 1139 439 1139 q 672 1179 618 1139 q 761 1306 726 1219 l 813 1274 q 710 1090 782 1153 q 528 1028 638 1028 m 138 304 q 331 144 249 218 q 481 11 414 69 q 608 -89 547 -47 q 736 -152 669 -131 q 886 -174 803 -174 q 992 -147 956 -174 q 1028 -82 1028 -119 q 1001 -24 1028 -46 q 926 -3 975 -3 q 857 -13 890 -3 q 796 -43 824 -24 l 776 76 q 831 109 797 97 q 899 121 864 121 q 1001 97 958 121 q 1069 29 1044 72 q 1093 -68 1093 -14 q 1064 -184 1093 -132 q 980 -267 1035 -236 q 844 -297 925 -297 q 691 -270 760 -297 q 560 -193 622 -243 q 429 -73 497 -143 q 278 84 361 -3 q 83 271 194 171 l 138 304 m 908 94 l 972 94 l 972 53 l 908 53 l 908 94 m 1188 564 q 1048 618 1096 564 q 1000 753 1000 672 q 1056 898 1000 843 q 1201 953 1113 953 q 1340 899 1292 953 q 1389 764 1389 846 q 1333 619 1389 675 q 1188 564 1276 564 m 1188 78 q 1048 132 1096 78 q 1000 267 1000 186 q 1056 412 1000 357 q 1201 467 1113 467 q 1340 413 1292 467 q 1389 278 1389 360 q 1333 133 1389 189 q 1188 78 1276 78 m 1236 156 q 1292 175 1274 156 q 1311 229 1311 194 q 1290 305 1311 268 q 1233 365 1268 342 q 1154 389 1197 389 q 1097 369 1117 389 q 1078 315 1078 350 q 1099 240 1078 276 q 1157 179 1121 203 q 1236 156 1193 156 m 1238 642 q 1292 661 1274 642 q 1311 715 1311 681 q 1290 792 1311 756 q 1232 851 1268 828 q 1153 875 1196 875 q 1097 856 1117 875 q 1078 801 1078 836 q 1099 726 1078 763 q 1158 665 1121 689 q 1238 642 1194 642 z "},"༃":{"ha":1542,"x_min":83,"x_max":1472,"o":"m 567 503 q 692 482 638 503 q 793 415 746 461 q 886 290 840 368 q 986 94 932 211 l 922 83 q 803 259 858 196 q 687 349 749 322 q 542 375 625 375 q 494 372 519 375 q 446 363 468 369 l 460 490 q 567 503 508 503 m 351 942 l 331 853 q 260 767 288 822 q 233 639 233 711 q 256 512 233 568 q 326 399 279 456 l 242 311 q 163 445 186 378 q 140 583 140 513 q 165 720 140 653 q 238 845 190 788 q 351 942 285 903 m 776 942 q 839 826 817 894 q 861 679 861 757 q 765 410 861 531 l 724 431 q 764 526 751 476 q 776 624 776 576 q 754 761 776 700 q 683 878 732 822 l 776 942 m 863 942 l 835 822 l 288 822 l 351 942 l 863 942 m 386 1365 q 390 1393 386 1381 l 449 1393 q 447 1385 447 1389 q 447 1376 447 1381 q 463 1331 447 1349 q 507 1314 478 1314 q 553 1328 535 1314 q 571 1371 571 1342 q 558 1420 571 1397 q 529 1465 546 1443 q 500 1509 513 1486 q 488 1558 488 1532 q 490 1582 488 1572 q 494 1599 492 1592 l 549 1599 q 565 1549 549 1572 q 601 1501 581 1525 q 638 1449 622 1478 q 654 1382 654 1419 q 615 1282 654 1319 q 518 1244 576 1244 q 420 1279 454 1244 q 386 1365 386 1314 m 528 1028 q 243 1274 307 1028 l 294 1306 q 384 1179 329 1219 q 528 1139 439 1139 q 672 1179 618 1139 q 761 1306 726 1219 l 813 1274 q 710 1090 782 1153 q 528 1028 638 1028 m 138 304 q 331 144 249 218 q 481 11 414 69 q 608 -89 547 -47 q 736 -152 669 -131 q 886 -174 803 -174 q 992 -147 956 -174 q 1028 -82 1028 -119 q 1001 -24 1028 -46 q 926 -3 975 -3 q 857 -13 890 -3 q 796 -43 824 -24 l 776 76 q 831 109 797 97 q 899 121 864 121 q 1001 97 958 121 q 1069 29 1044 72 q 1093 -68 1093 -14 q 1064 -184 1093 -132 q 980 -267 1035 -236 q 844 -297 925 -297 q 691 -270 760 -297 q 560 -193 622 -243 q 429 -73 497 -143 q 278 84 361 -3 q 83 271 194 171 l 138 304 m 908 94 l 972 94 l 972 53 l 908 53 l 908 94 m 1271 596 q 1131 650 1179 596 q 1083 785 1083 704 q 1140 930 1083 875 q 1285 985 1196 985 q 1424 931 1375 985 q 1472 796 1472 878 q 1416 651 1472 707 q 1271 596 1360 596 m 1271 -54 q 1131 0 1179 -54 q 1083 135 1083 54 q 1140 280 1083 225 q 1285 335 1196 335 q 1424 281 1375 335 q 1472 146 1472 228 q 1416 1 1472 57 q 1271 -54 1360 -54 m 1319 24 q 1376 43 1357 24 q 1394 97 1394 63 q 1373 173 1394 136 q 1316 233 1351 210 q 1238 257 1281 257 q 1181 238 1200 257 q 1161 183 1161 218 q 1183 108 1161 144 q 1240 47 1204 71 q 1319 24 1276 24 m 1094 431 l 1094 500 l 1447 500 l 1447 431 l 1094 431 m 1321 674 q 1376 693 1357 674 q 1394 747 1394 713 q 1373 824 1394 788 q 1315 883 1351 860 q 1236 907 1279 907 q 1181 888 1200 907 q 1161 833 1161 868 q 1183 758 1161 794 q 1241 697 1204 721 q 1321 674 1278 674 z "},"༓":{"ha":833,"x_min":28,"x_max":806,"o":"m 417 76 q 367 97 388 76 q 347 146 347 117 q 367 195 347 175 q 417 215 388 215 q 466 195 446 215 q 486 146 486 175 q 466 97 486 117 q 417 76 446 76 m 417 715 q 367 735 388 715 q 347 785 347 756 q 367 834 347 814 q 417 854 388 854 q 466 834 446 854 q 486 785 486 814 q 466 735 486 756 q 417 715 446 715 m 806 465 q 785 416 806 436 q 736 396 765 396 q 687 416 707 396 q 667 465 667 436 q 687 515 667 494 q 736 535 707 535 q 785 515 765 535 q 806 465 806 494 m 167 465 q 147 416 167 436 q 97 396 126 396 q 48 416 68 396 q 28 465 28 436 q 48 515 28 494 q 97 535 68 535 q 147 515 126 535 q 167 465 167 494 m 417 660 q 515 634 471 660 q 585 564 558 608 q 611 465 611 519 q 585 368 611 413 q 515 297 558 324 q 417 271 471 271 q 319 297 363 271 q 249 368 275 324 q 222 465 222 413 q 249 564 222 519 q 319 634 275 608 q 417 660 363 660 m 417 590 q 328 554 365 590 q 292 465 292 518 q 328 377 292 414 q 417 340 365 340 q 506 377 469 340 q 542 465 542 414 q 506 554 542 518 q 417 590 469 590 z "},"༕":{"ha":1083,"x_min":89,"x_max":994,"o":"m 994 942 l 994 -219 q 776 -98 892 -143 q 539 -33 660 -53 q 303 -14 418 -14 q 194 -19 247 -14 q 89 -35 140 -25 l 89 942 l 994 942 m 601 704 l 601 765 l 933 765 l 933 881 l 150 881 l 150 765 l 482 765 l 482 704 l 150 704 l 150 413 l 933 413 l 933 704 l 601 704 m 933 351 l 150 351 l 150 38 q 225 44 186 42 q 303 47 264 47 q 621 13 456 47 q 933 -107 786 -22 l 933 351 m 265 589 l 482 589 l 482 528 l 265 528 l 265 589 m 601 589 l 818 589 l 818 528 l 601 528 l 601 589 m 994 -81 q 774 74 876 21 q 579 147 671 128 q 404 167 488 167 q 333 164 368 167 q 265 156 299 161 l 265 240 q 333 249 299 246 q 404 251 368 251 q 581 229 490 251 q 760 159 671 207 q 933 32 850 111 l 994 -81 z "},"༖":{"ha":1000,"x_min":89,"x_max":911,"o":"m 911 -246 l 856 -246 l 856 807 l 911 807 l 911 -246 m 883 585 l 883 529 l 583 529 l 583 283 l 89 283 l 89 450 l 417 450 l 417 529 l 89 529 l 89 942 l 650 942 l 650 775 l 256 775 l 256 696 l 883 696 l 883 640 l 200 640 l 200 831 l 594 831 l 594 886 l 144 886 l 144 585 l 472 585 l 472 394 l 144 394 l 144 339 l 528 339 l 528 585 l 883 585 m 89 135 l 89 190 l 883 190 l 883 135 l 89 135 m 528 14 l 472 14 l 472 163 l 528 163 l 528 14 m 883 -107 l 883 -162 l 89 -162 l 89 42 l 883 42 l 883 -14 l 144 -14 l 144 -107 l 883 -107 z "},"༗":{"ha":958,"x_min":26,"x_max":919,"o":"m 865 871 l 919 849 q 883 724 917 782 q 786 629 849 667 q 632 585 724 592 q 425 533 499 575 q 303 414 351 490 q 236 278 263 351 q 207 139 210 204 l 168 93 q 203 183 175 151 q 271 222 231 214 q 340 228 301 229 q 413 232 378 226 q 557 292 496 244 q 651 424 618 339 q 686 632 685 508 l 747 632 q 703 394 746 493 q 588 240 661 296 q 421 171 515 185 q 342 167 382 165 q 279 165 303 169 q 226 137 249 160 q 199 69 204 114 l 136 61 q 148 160 138 107 q 175 267 158 214 q 209 367 192 321 q 243 444 226 414 q 388 593 293 542 q 632 654 482 644 q 765 688 715 660 q 839 762 815 715 q 865 871 863 808 m 35 538 l 92 507 q 89 466 90 485 q 88 429 88 447 q 97 344 88 382 q 128 265 106 306 q 174 158 161 201 q 189 79 188 115 l 136 61 q 123 138 136 101 q 78 235 110 175 q 39 332 51 283 q 26 439 26 381 q 28 487 26 463 q 35 538 31 511 m 207 736 q 218 667 214 700 q 222 606 222 633 q 213 527 222 561 q 194 460 204 493 q 185 386 185 428 q 192 291 185 340 q 204 186 200 242 l 160 181 q 149 250 157 215 q 135 320 142 285 q 128 390 128 356 q 136 465 128 431 q 153 533 144 499 q 161 608 161 567 q 156 672 161 636 q 142 750 151 707 l 207 736 m 625 619 q 626 603 626 611 q 626 588 626 596 q 597 440 626 504 q 509 340 567 376 q 365 304 451 304 q 296 311 331 304 q 232 332 261 318 l 257 388 q 309 370 281 376 q 365 364 338 364 q 477 392 433 364 q 543 470 521 421 q 565 583 565 519 q 565 599 565 590 q 564 614 565 607 l 625 619 m 390 825 q 397 780 394 804 q 400 731 400 756 q 380 618 400 676 q 314 485 360 560 l 243 444 q 275 510 258 474 q 306 585 292 546 q 328 661 319 624 q 338 732 338 699 q 335 787 338 760 q 328 838 333 814 l 390 825 m 518 871 l 578 846 q 566 752 576 793 q 527 667 556 711 q 443 560 499 624 l 404 596 q 462 668 440 636 q 495 730 483 700 q 512 794 507 760 q 518 871 517 828 m 669 828 l 728 803 q 696 712 725 757 q 593 604 667 667 l 558 640 q 622 705 599 675 q 656 765 646 735 q 669 828 667 794 z "},"༚":{"ha":514,"x_min":63,"x_max":451,"o":"m 257 571 q 355 545 311 571 q 425 475 399 519 q 451 376 451 431 q 425 279 451 324 q 355 208 399 235 q 257 182 311 182 q 158 208 203 182 q 88 279 114 235 q 63 376 63 324 q 88 475 63 431 q 158 545 114 519 q 257 571 203 571 m 257 501 q 169 465 206 501 q 132 376 132 429 q 169 288 132 325 q 257 251 206 251 q 346 288 310 251 q 382 376 382 325 q 346 465 382 429 q 257 501 310 501 z "},"༛":{"ha":958,"x_min":63,"x_max":896,"o":"m 701 571 q 799 545 756 571 q 869 475 843 519 q 896 376 896 431 q 869 279 896 324 q 799 208 843 235 q 701 182 756 182 q 603 208 647 182 q 533 279 558 235 q 507 376 507 324 q 533 475 507 431 q 603 545 558 519 q 701 571 647 571 m 701 501 q 613 465 650 501 q 576 376 576 429 q 613 288 576 325 q 701 251 650 251 q 790 288 754 251 q 826 376 826 325 q 790 465 826 429 q 701 501 754 501 m 257 571 q 355 545 311 571 q 425 475 399 519 q 451 376 451 431 q 425 279 451 324 q 355 208 399 235 q 257 182 311 182 q 158 208 203 182 q 88 279 114 235 q 63 376 63 324 q 88 475 63 431 q 158 545 114 519 q 257 571 203 571 m 257 501 q 169 465 206 501 q 132 376 132 429 q 169 288 132 325 q 257 251 206 251 q 346 288 310 251 q 382 376 382 325 q 346 465 382 429 q 257 501 310 501 z "},"༜":{"ha":958,"x_min":63,"x_max":896,"o":"m 701 571 q 799 545 756 571 q 869 475 843 519 q 896 376 896 431 q 869 279 896 324 q 799 208 843 235 q 701 182 756 182 q 603 208 647 182 q 533 279 558 235 q 507 376 507 324 q 533 475 507 431 q 603 545 558 519 q 701 571 647 571 m 701 501 q 613 465 650 501 q 576 376 576 429 q 613 288 576 325 q 701 251 650 251 q 790 288 754 251 q 826 376 826 325 q 790 465 826 429 q 701 501 754 501 m 257 571 q 355 545 311 571 q 425 475 399 519 q 451 376 451 431 q 425 279 451 324 q 355 208 399 235 q 257 182 311 182 q 158 208 203 182 q 88 279 114 235 q 63 376 63 324 q 88 475 63 431 q 158 545 114 519 q 257 571 203 571 m 257 501 q 169 465 206 501 q 132 376 132 429 q 169 288 132 325 q 257 251 206 251 q 346 288 310 251 q 382 376 382 325 q 346 465 382 429 q 257 501 310 501 m 479 971 q 577 945 533 971 q 647 875 621 919 q 674 776 674 831 q 647 679 674 724 q 577 608 621 635 q 479 582 533 582 q 381 608 425 582 q 311 679 338 635 q 285 776 285 724 q 311 875 285 831 q 381 945 338 919 q 479 971 425 971 m 479 901 q 391 865 428 901 q 354 776 354 829 q 391 688 354 725 q 479 651 428 651 q 568 688 532 651 q 604 776 604 725 q 568 865 604 829 q 479 901 532 901 z "},"༝":{"ha":503,"x_min":56,"x_max":447,"o":"m 447 231 l 397 181 l 56 522 l 106 572 l 447 231 m 106 181 l 56 231 l 397 572 l 447 522 l 106 181 z "},"༞":{"ha":919,"x_min":56,"x_max":864,"o":"m 447 231 l 397 181 l 56 522 l 106 572 l 447 231 m 106 181 l 56 231 l 397 572 l 447 522 l 106 181 m 864 231 l 814 181 l 472 522 l 522 572 l 864 231 m 522 181 l 472 231 l 814 572 l 864 522 l 522 181 z "},"༟":{"ha":931,"x_min":63,"x_max":875,"o":"m 257 571 q 355 545 311 571 q 425 475 399 519 q 451 376 451 431 q 425 279 451 324 q 355 208 399 235 q 257 182 311 182 q 158 208 203 182 q 88 279 114 235 q 63 376 63 324 q 88 475 63 431 q 158 545 114 519 q 257 571 203 571 m 257 501 q 169 465 206 501 q 132 376 132 429 q 169 288 132 325 q 257 251 206 251 q 346 288 310 251 q 382 376 382 325 q 346 465 382 429 q 257 501 310 501 m 875 231 l 825 181 l 483 522 l 533 572 l 875 231 m 533 181 l 483 231 l 825 572 l 875 522 l 533 181 z "},"༴":{"ha":403,"x_min":56,"x_max":347,"o":"m 56 651 q 239 572 165 638 q 347 396 313 506 l 314 363 q 208 463 271 428 q 56 504 144 499 l 56 651 m 56 360 q 239 280 165 346 q 347 104 313 214 l 314 71 q 56 213 228 200 l 56 360 m 303 942 l 244 785 l 153 785 l 94 942 l 303 942 z "},"༶":{"ha":833,"x_min":28,"x_max":806,"o":"m 417 76 q 358 101 382 76 q 333 160 333 125 q 358 219 333 196 q 417 243 382 243 q 476 219 453 243 q 500 160 500 196 q 476 101 500 125 q 417 76 453 76 m 417 688 q 358 712 382 688 q 333 771 333 736 q 358 831 333 807 q 417 854 382 854 q 476 831 453 854 q 500 771 500 807 q 476 712 500 736 q 417 688 453 688 m 806 465 q 782 406 806 431 q 722 382 758 382 q 663 406 688 382 q 639 465 639 431 q 663 525 639 501 q 722 549 688 549 q 782 525 758 549 q 806 465 806 501 m 194 465 q 171 406 194 431 q 111 382 147 382 q 52 406 76 382 q 28 465 28 431 q 52 525 28 501 q 111 549 76 549 q 171 525 147 549 q 194 465 194 501 z "},"༸":{"ha":868,"x_min":63,"x_max":806,"o":"m 476 915 q 503 847 493 886 q 514 761 514 807 q 498 654 514 703 q 447 560 482 606 l 447 601 l 535 601 q 688 644 639 601 q 736 763 736 686 q 725 839 736 804 q 690 914 714 874 l 778 957 q 799 883 792 924 q 806 794 806 843 q 767 615 806 685 q 662 514 729 546 q 507 482 594 482 l 360 482 l 353 500 q 408 594 388 544 q 428 699 428 644 q 415 785 428 749 q 367 860 401 821 l 476 915 m 157 822 l 186 844 l 206 844 q 167 785 179 818 q 154 708 154 751 q 172 631 154 668 q 225 557 190 593 l 143 469 q 63 654 63 556 q 107 810 63 739 q 236 942 151 882 l 521 942 l 493 822 l 157 822 z "},"྾":{"ha":1053,"x_min":56,"x_max":997,"o":"m 924 0 l 997 74 l 129 942 l 56 868 l 924 0 m 129 0 l 997 868 l 924 942 l 56 74 l 129 0 z "},"྿":{"ha":1053,"x_min":56,"x_max":997,"o":"m 924 0 l 997 74 l 129 942 l 56 868 l 924 0 m 526 56 q 477 76 497 56 q 457 125 457 96 q 477 174 457 154 q 526 194 497 194 q 576 174 556 194 q 596 125 596 154 q 576 76 596 96 q 526 56 556 56 m 181 401 q 131 422 151 401 q 111 471 111 442 q 131 520 111 500 q 181 540 151 540 q 230 520 210 540 q 250 471 250 500 q 230 422 250 442 q 181 401 210 401 m 129 0 l 997 868 l 924 942 l 56 74 l 129 0 m 526 747 q 477 767 497 747 q 457 817 457 788 q 477 866 457 846 q 526 886 497 886 q 576 866 556 886 q 596 817 596 846 q 576 767 596 788 q 526 747 556 747 m 872 401 q 823 422 843 401 q 803 471 803 442 q 823 520 803 500 q 872 540 843 540 q 922 520 901 540 q 942 471 942 500 q 922 422 942 442 q 872 401 901 401 z "},"࿀":{"ha":1028,"x_min":56,"x_max":972,"o":"m 514 122 q 274 166 376 122 q 113 288 171 210 q 56 469 56 365 q 113 652 56 574 q 274 774 171 731 q 514 817 376 817 q 755 774 651 817 q 915 652 858 731 q 972 469 972 574 q 915 288 972 365 q 755 166 858 210 q 514 122 651 122 m 514 192 q 718 226 631 192 q 854 324 806 261 q 903 469 903 386 q 854 615 903 553 q 718 713 806 678 q 514 747 631 747 q 310 713 397 747 q 174 615 222 678 q 125 469 125 553 q 174 324 125 386 q 310 226 222 261 q 514 192 397 192 z "},"࿁":{"ha":753,"x_min":56,"x_max":697,"o":"m 376 226 q 208 257 281 226 q 96 342 136 288 q 56 469 56 397 q 96 597 56 543 q 208 682 136 651 q 376 713 281 713 q 545 682 474 713 q 657 597 617 651 q 697 469 697 543 q 657 342 697 397 q 545 257 617 288 q 376 226 474 226 m 376 296 q 559 344 490 296 q 628 469 628 392 q 559 595 628 547 q 376 643 490 643 q 194 595 263 643 q 125 469 125 547 q 194 344 125 392 q 376 296 263 296 z "},"࿂":{"ha":1028,"x_min":56,"x_max":972,"o":"m 514 164 q 361 206 431 164 q 250 317 292 247 q 208 469 208 386 q 250 623 208 554 q 361 733 292 692 q 514 775 431 775 q 667 733 599 775 q 778 623 736 692 q 819 469 819 554 q 778 317 819 386 q 667 206 736 247 q 514 164 599 164 m 458 -12 q 306 15 379 -12 q 177 91 233 43 q 88 200 121 139 q 56 328 56 261 q 101 457 56 410 q 213 504 146 504 l 213 435 q 149 408 174 435 q 125 328 125 382 q 152 223 125 274 q 226 133 179 172 q 333 72 272 94 q 458 49 393 49 l 458 -12 m 514 -51 q 465 -31 485 -51 q 444 18 444 -11 q 465 67 444 47 q 514 88 485 88 q 563 67 543 88 q 583 18 583 47 q 563 -31 583 -11 q 514 -51 543 -51 m 514 233 q 633 265 579 233 q 718 351 686 297 q 750 469 750 404 q 718 588 750 535 q 633 674 686 642 q 514 706 579 706 q 395 674 449 706 q 310 588 342 642 q 278 469 278 535 q 310 351 278 404 q 395 265 342 297 q 514 233 449 233 m 514 851 q 465 872 485 851 q 444 921 444 892 q 465 970 444 950 q 514 990 485 990 q 563 970 543 990 q 583 921 583 950 q 563 872 583 892 q 514 851 543 851 m 815 435 l 815 504 q 878 531 854 504 q 903 611 903 557 q 876 715 903 665 q 802 805 849 765 q 695 867 756 844 q 569 890 635 890 l 569 951 q 722 924 649 951 q 851 848 794 896 q 940 739 907 800 q 972 611 972 678 q 927 482 972 529 q 815 435 882 435 z "},"࿃":{"ha":1083,"x_min":56,"x_max":1028,"o":"m 542 -17 q 353 21 442 -17 q 198 126 265 58 q 93 281 131 193 q 56 469 56 369 q 93 658 56 569 q 198 813 131 746 q 353 918 265 881 q 542 956 442 956 q 730 918 642 956 q 885 813 818 881 q 990 658 953 746 q 1028 469 1028 569 q 990 281 1028 369 q 885 126 953 193 q 730 21 818 58 q 542 -17 642 -17 m 542 53 q 703 85 628 53 q 836 175 779 118 q 926 308 893 232 q 958 469 958 383 q 926 631 958 556 q 836 764 893 707 q 703 853 779 821 q 542 886 628 886 q 380 853 456 886 q 247 764 304 821 q 158 631 190 707 q 125 469 125 556 q 158 308 125 383 q 247 175 190 232 q 380 85 304 118 q 542 53 456 53 m 542 164 q 389 206 458 164 q 278 317 319 247 q 236 469 236 386 q 278 623 236 554 q 389 733 319 692 q 542 775 458 775 q 695 733 626 775 q 806 623 764 692 q 847 469 847 554 q 806 317 847 386 q 695 206 764 247 q 542 164 626 164 m 542 233 q 660 265 607 233 q 746 351 714 297 q 778 469 778 404 q 746 588 778 535 q 660 674 714 642 q 542 706 607 706 q 423 674 476 706 q 338 588 369 642 q 306 469 306 535 q 338 351 306 404 q 423 265 369 297 q 542 233 476 233 m 507 469 l 576 469 l 576 11 l 507 11 l 507 469 z "},"࿄":{"ha":794,"x_min":42,"x_max":753,"o":"m 397 -190 q 217 -174 297 -190 q 90 -126 136 -157 q 42 -56 43 -96 q 99 1 78 -29 q 135 79 119 31 q 161 188 151 132 q 174 306 171 243 q 233 481 181 417 q 374 554 285 546 l 374 561 q 333 591 349 569 q 317 639 317 613 q 340 695 317 671 q 397 719 364 719 q 454 695 431 719 q 478 639 478 671 q 462 591 478 613 q 421 561 446 569 l 421 554 q 563 481 511 546 q 621 306 615 417 q 633 188 624 243 q 660 79 643 132 q 696 1 675 31 q 753 -56 717 -29 q 705 -126 751 -96 q 578 -174 658 -157 q 397 -190 499 -190 m 397 -61 q 223 -42 296 -61 q 135 13 150 -22 l 172 38 q 208 15 178 26 q 286 -5 238 3 q 397 -12 335 -12 q 508 -5 460 -12 q 587 15 557 3 q 622 38 617 26 l 660 13 q 572 -42 644 -22 q 397 -61 500 -61 m 397 -142 q 586 -121 504 -142 q 694 -72 668 -100 q 646 -13 665 -46 q 613 65 626 19 q 586 178 596 119 q 572 303 576 238 q 522 454 567 401 q 397 507 476 507 q 274 454 318 507 q 222 303 229 401 q 208 178 218 238 q 182 65 199 119 q 149 -13 168 19 q 100 -72 129 -46 q 208 -121 126 -100 q 397 -142 290 -142 m 397 251 q 263 265 318 251 q 193 306 207 278 l 224 335 q 276 310 231 321 q 397 300 322 300 q 518 310 472 300 q 571 335 564 321 l 601 306 q 532 265 588 278 q 397 251 476 251 m 397 360 q 287 369 332 360 q 231 399 242 379 l 257 435 q 297 417 264 425 q 397 408 329 408 q 498 417 465 408 q 538 435 531 425 l 564 399 q 508 369 554 379 q 397 360 463 360 m 397 607 q 420 617 411 607 q 429 639 429 626 q 420 661 429 651 q 397 671 411 671 q 374 661 383 671 q 365 639 365 651 q 374 617 365 626 q 397 607 383 607 m 374 686 q 288 750 339 726 q 144 774 236 774 l 144 821 q 247 813 206 821 q 319 788 288 806 q 382 742 351 771 l 413 742 q 476 788 444 771 q 548 813 507 806 q 650 821 589 821 l 650 774 q 507 750 558 774 q 421 686 456 726 l 397 700 l 374 686 m 374 738 l 374 889 q 315 854 343 881 q 272 794 288 828 l 224 803 q 285 894 244 856 q 374 939 326 932 l 374 1011 l 421 1011 l 421 939 q 509 894 468 932 q 571 803 550 856 l 522 794 q 481 854 508 828 q 421 889 453 881 l 421 738 l 374 738 z "},"࿅":{"ha":658,"x_min":56,"x_max":603,"o":"m 329 156 q 192 193 254 156 q 93 292 131 231 q 56 429 56 354 q 93 567 56 504 q 192 666 131 629 q 329 703 254 703 q 467 666 404 703 q 566 567 529 629 q 603 429 603 504 q 566 292 603 354 q 467 193 529 231 q 329 156 404 156 m 306 -181 l 306 -108 q 217 -62 258 -101 q 156 28 176 -24 l 204 36 q 247 -24 219 3 q 306 -58 275 -50 l 306 94 l 353 94 l 353 -58 q 413 -24 385 -50 q 454 36 440 3 l 503 28 q 441 -62 482 -24 q 353 -108 400 -101 l 353 -181 l 306 -181 m 76 10 l 76 57 q 219 81 168 57 q 306 144 271 106 l 306 171 l 353 171 l 353 144 q 439 81 388 106 q 582 57 490 57 l 582 10 q 480 17 521 10 q 408 43 439 25 q 344 89 376 61 l 314 89 q 251 43 283 61 q 178 17 219 25 q 76 10 138 10 m 217 326 q 189 338 200 326 q 178 364 178 349 q 189 390 178 379 q 217 401 200 401 q 243 390 232 401 q 254 364 254 379 q 243 338 254 349 q 217 326 232 326 m 329 203 q 385 210 358 203 q 436 231 413 217 q 341 274 381 231 q 301 382 301 318 q 302 402 301 392 q 304 422 303 413 q 265 445 285 438 q 225 453 246 453 q 151 426 181 453 q 121 361 121 400 q 124 340 121 351 q 133 317 128 328 q 215 234 163 265 q 329 203 267 203 m 442 326 q 415 338 426 326 q 404 364 404 349 q 415 390 404 379 q 442 401 426 401 q 469 390 458 401 q 481 364 481 379 q 469 338 481 349 q 442 326 458 326 m 329 522 q 303 533 314 522 q 292 560 292 544 q 303 586 292 575 q 329 597 314 597 q 356 586 344 597 q 367 560 367 575 q 356 533 367 544 q 329 522 344 522 m 306 688 l 306 714 q 219 778 271 754 q 76 801 168 801 l 76 849 q 178 841 138 849 q 251 816 219 833 q 314 769 283 799 l 344 769 q 408 816 376 799 q 480 841 439 833 q 582 849 521 849 l 582 801 q 439 778 490 801 q 353 714 388 754 l 353 688 l 306 688 m 306 765 l 306 917 q 247 882 275 908 q 204 822 219 856 l 156 831 q 217 922 176 883 q 306 967 258 960 l 306 1039 l 353 1039 l 353 967 q 441 922 400 960 q 503 831 482 883 l 454 822 q 413 882 440 856 q 353 917 385 908 l 353 765 l 306 765 m 103 432 q 152 482 119 464 q 224 500 185 500 q 335 456 282 500 q 397 499 379 474 q 415 563 415 524 q 391 630 415 604 q 329 656 367 656 q 216 624 268 656 q 133 542 164 593 q 103 432 103 492 m 450 274 q 492 283 472 274 q 524 314 511 293 q 547 369 539 339 q 556 429 556 399 q 526 541 556 490 q 447 622 496 592 q 458 594 454 610 q 463 563 463 579 q 435 473 463 510 q 350 413 408 436 q 348 397 349 404 q 347 382 347 389 q 376 303 347 333 q 450 274 406 274 z "},"࿇":{"ha":1275,"x_min":28,"x_max":1247,"o":"m 638 156 q 501 193 563 156 q 401 292 439 231 q 364 429 364 354 q 401 567 364 504 q 501 666 439 629 q 638 703 563 703 q 775 666 713 703 q 874 567 838 629 q 911 429 911 504 q 874 292 911 354 q 775 193 838 231 q 638 156 713 156 m 614 -181 l 614 -108 q 526 -62 567 -101 q 464 28 485 -24 l 513 36 q 556 -24 528 3 q 614 -58 583 -50 l 614 117 l 644 111 q 574 52 608 75 q 497 19 540 29 q 385 10 453 10 l 385 57 q 528 81 476 57 q 614 144 579 106 l 614 171 l 661 171 l 661 144 q 747 81 696 106 q 890 57 799 57 l 890 10 q 778 19 822 10 q 701 52 735 29 q 631 111 668 75 l 661 117 l 661 -58 q 721 -24 693 -50 q 763 36 749 3 l 811 28 q 749 -62 790 -24 q 661 -108 708 -101 l 661 -181 l 614 -181 m 218 176 q 228 288 218 244 q 260 366 238 332 q 319 436 283 400 l 325 406 l 150 406 q 185 347 158 375 q 244 304 211 319 l 236 256 q 146 317 185 276 q 100 406 107 358 l 28 406 l 28 453 l 100 453 q 146 541 107 500 q 236 603 185 582 l 244 554 q 185 513 211 540 q 150 453 158 485 l 325 453 l 319 422 q 260 493 283 460 q 228 570 238 526 q 218 682 218 614 l 265 682 q 290 539 265 590 q 353 453 314 488 l 379 453 l 379 406 l 353 406 q 290 319 314 371 q 265 176 265 268 l 218 176 m 525 326 q 497 338 508 326 q 486 364 486 349 q 497 390 486 379 q 525 401 508 401 q 551 390 540 401 q 563 364 563 379 q 551 338 563 349 q 525 326 540 326 m 638 203 q 694 210 667 203 q 744 231 721 217 q 649 274 689 231 q 610 382 610 318 q 610 402 610 392 q 613 422 611 413 q 574 445 593 438 q 533 453 554 453 q 459 426 489 453 q 429 361 429 400 q 433 340 429 351 q 442 317 436 328 q 523 234 471 265 q 638 203 575 203 m 411 432 q 460 482 428 464 q 532 500 493 500 q 643 456 590 500 q 706 499 688 474 q 724 563 724 524 q 699 630 724 604 q 638 656 675 656 q 524 624 576 656 q 442 542 472 593 q 411 432 411 492 m 750 326 q 724 338 735 326 q 713 364 713 349 q 724 390 713 379 q 750 401 735 401 q 778 390 767 401 q 789 364 789 379 q 778 338 789 349 q 750 326 767 326 m 638 522 q 611 533 622 522 q 600 560 600 544 q 611 586 600 575 q 638 597 622 597 q 664 586 653 597 q 675 560 675 575 q 664 533 675 544 q 638 522 653 522 m 758 274 q 800 283 781 274 q 832 314 819 293 q 856 369 847 339 q 864 429 864 399 q 834 541 864 490 q 756 622 804 592 q 767 594 763 610 q 771 563 771 579 q 744 473 771 510 q 658 413 717 436 q 656 397 657 404 q 656 382 656 389 q 685 303 656 333 q 758 274 714 274 m 614 688 l 614 714 q 528 778 579 754 q 385 801 476 801 l 385 849 q 497 839 453 849 q 574 807 540 829 q 644 747 608 785 l 614 742 l 614 917 q 556 882 583 908 q 513 822 528 856 l 464 831 q 526 922 485 883 q 614 967 567 960 l 614 1039 l 661 1039 l 661 967 q 749 922 708 960 q 811 831 790 883 l 763 822 q 721 882 749 856 q 661 917 693 908 l 661 742 l 631 747 q 701 807 668 785 q 778 839 735 829 q 890 849 822 849 l 890 801 q 747 778 799 801 q 661 714 696 754 l 661 688 l 614 688 m 1010 176 q 986 319 1010 268 q 922 406 963 371 l 896 406 l 896 453 l 922 453 q 986 539 963 488 q 1010 682 1010 590 l 1057 682 q 1047 570 1057 614 q 1015 493 1038 526 q 956 422 993 460 l 950 453 l 1125 453 q 1090 513 1117 485 q 1031 554 1064 540 l 1039 603 q 1130 541 1092 582 q 1175 453 1168 500 l 1247 453 l 1247 406 l 1175 406 q 1130 317 1168 358 q 1039 256 1092 276 l 1031 304 q 1090 347 1064 319 q 1125 406 1117 375 l 950 406 l 956 436 q 1015 366 993 400 q 1047 288 1038 332 q 1057 176 1057 244 l 1010 176 z "},"࿈":{"ha":689,"x_min":56,"x_max":633,"o":"m 321 -162 l 56 558 l 90 586 q 153 560 117 569 q 232 551 189 551 q 294 558 264 551 q 344 574 324 564 q 395 558 365 564 q 457 551 425 551 q 536 560 500 551 q 599 586 572 569 l 633 558 l 368 -162 l 321 -162 m 344 -90 l 592 579 l 604 535 q 536 512 574 519 q 457 504 499 504 q 397 508 426 504 q 344 522 368 513 q 292 508 321 513 q 232 504 264 504 q 153 512 190 504 q 85 535 115 519 l 97 579 l 344 -90 m 321 213 l 199 544 l 249 544 l 344 285 l 440 544 l 490 544 l 368 213 l 321 213 m 321 564 l 321 571 q 280 601 296 579 q 264 649 264 622 q 288 705 264 681 q 344 729 311 729 q 401 705 378 729 q 425 649 425 681 q 409 601 425 622 q 368 571 393 579 l 368 564 l 321 564 m 344 617 q 367 626 358 617 q 376 649 376 636 q 367 671 376 661 q 344 681 358 681 q 322 671 331 681 q 313 649 313 661 q 322 626 313 636 q 344 617 331 617 m 321 747 l 321 899 q 263 864 290 890 q 219 804 235 838 l 171 813 q 233 903 192 865 q 321 949 274 942 l 321 1021 l 368 1021 l 368 949 q 456 903 415 942 q 518 813 497 865 l 469 804 q 428 864 456 838 q 368 899 400 890 l 368 747 l 321 747 m 360 751 q 423 798 392 781 q 495 823 454 815 q 597 831 536 831 l 597 783 q 454 760 506 783 q 368 696 403 736 l 344 710 l 321 696 q 235 760 286 736 q 92 783 183 783 l 92 831 q 194 823 153 831 q 267 798 235 815 q 329 751 299 781 l 360 751 z "},"࿉":{"ha":942,"x_min":56,"x_max":886,"o":"m 471 -17 q 162 88 268 -17 q 56 394 56 193 q 108 686 56 560 q 255 884 161 813 q 471 956 349 956 q 688 884 594 956 q 833 686 781 813 q 886 394 886 560 q 780 88 886 193 q 471 -17 674 -17 m 471 53 q 731 138 644 53 q 817 394 817 222 q 773 652 817 542 q 651 824 729 763 q 471 886 574 886 q 291 824 369 886 q 169 652 213 763 q 125 394 125 542 q 210 138 125 222 q 471 53 296 53 m 471 469 q 294 502 365 469 q 185 590 222 535 q 149 711 149 644 l 196 711 q 228 619 196 661 q 323 551 261 576 q 471 525 385 525 q 619 551 557 525 q 713 619 681 576 q 746 711 746 661 l 793 711 q 756 590 793 644 q 648 502 719 535 q 471 469 576 469 m 471 594 q 290 653 350 594 q 229 814 229 713 l 276 814 q 328 694 276 738 q 471 650 379 650 q 614 694 563 650 q 665 814 665 738 l 713 814 q 652 653 713 713 q 471 594 592 594 m 471 706 q 422 726 442 706 q 401 775 401 746 q 422 824 401 804 q 471 844 442 844 q 520 824 500 844 q 540 775 540 804 q 520 726 540 746 q 471 706 500 706 z "},"࿊":{"ha":1083,"x_min":56,"x_max":1028,"o":"m 542 -17 q 353 21 442 -17 q 198 126 265 58 q 93 281 131 193 q 56 469 56 369 q 93 658 56 569 q 198 813 131 746 q 353 918 265 881 q 542 956 442 956 q 730 918 642 956 q 885 813 818 881 q 990 658 953 746 q 1028 469 1028 569 q 990 281 1028 369 q 885 126 953 193 q 730 21 818 58 q 542 -17 642 -17 m 542 53 q 703 85 628 53 q 836 175 779 118 q 926 308 893 232 q 958 469 958 383 q 926 631 958 556 q 836 764 893 707 q 703 853 779 821 q 542 886 628 886 q 380 853 456 886 q 247 764 304 821 q 158 631 190 707 q 125 469 125 556 q 158 308 125 383 q 247 175 190 232 q 380 85 304 118 q 542 53 456 53 m 1000 469 q 935 297 990 358 q 788 235 879 235 q 619 289 686 235 q 510 457 553 343 q 425 594 475 553 q 296 635 375 635 q 172 588 219 635 q 125 469 125 542 l 83 469 q 149 642 94 581 q 296 704 204 704 q 464 651 397 704 q 574 482 531 597 q 659 345 610 386 q 788 304 708 304 q 911 351 864 304 q 958 469 958 397 l 1000 469 m 713 469 q 733 519 713 499 q 782 539 753 539 q 831 519 811 539 q 851 469 851 499 q 831 420 851 440 q 782 400 811 400 q 733 420 753 400 q 713 469 713 440 m 232 469 q 252 519 232 499 q 301 539 272 539 q 351 519 331 539 q 371 469 371 499 q 351 420 371 440 q 301 400 331 400 q 252 420 272 400 q 232 469 232 440 z "},"࿋":{"ha":1083,"x_min":56,"x_max":1028,"o":"m 542 -17 q 353 21 442 -17 q 198 126 265 58 q 93 281 131 193 q 56 469 56 369 q 93 658 56 569 q 198 813 131 746 q 353 918 265 881 q 542 956 442 956 q 730 918 642 956 q 885 813 818 881 q 990 658 953 746 q 1028 469 1028 569 q 990 281 1028 369 q 885 126 953 193 q 730 21 818 58 q 542 -17 642 -17 m 542 53 q 703 85 628 53 q 836 175 779 118 q 926 308 893 232 q 958 469 958 383 q 926 631 958 556 q 836 764 893 707 q 703 853 779 821 q 542 886 628 886 q 380 853 456 886 q 247 764 304 821 q 158 631 190 707 q 125 469 125 556 q 158 308 125 383 q 247 175 190 232 q 380 85 304 118 q 542 53 456 53 m 542 928 q 669 894 617 921 q 749 822 721 867 q 776 715 776 776 q 723 547 776 614 q 554 438 669 481 l 542 469 l 529 501 q 666 587 625 538 q 707 715 707 636 q 685 805 707 767 q 627 865 664 843 q 542 886 590 886 l 542 928 m 542 640 q 492 660 513 640 q 472 710 472 681 q 492 759 472 739 q 542 779 513 779 q 591 759 571 779 q 611 710 611 739 q 591 660 611 681 q 542 640 571 640 m 144 240 q 111 379 111 315 q 144 490 111 443 q 231 564 176 538 q 349 590 285 590 q 458 567 406 590 q 564 496 511 544 l 542 469 l 521 442 q 436 501 476 482 q 350 521 396 521 q 252 498 296 521 q 183 435 208 475 q 157 346 157 396 q 163 303 157 325 q 181 261 169 282 l 144 240 m 939 240 q 844 146 896 178 q 739 114 793 114 q 618 149 672 114 q 532 246 564 185 q 500 383 500 307 q 502 427 500 404 q 508 474 504 450 l 542 469 l 576 464 q 568 382 568 418 q 593 275 568 321 q 663 203 618 229 q 764 178 707 178 q 844 199 807 178 q 903 261 881 221 l 939 240 m 333 279 q 284 299 304 279 q 264 349 264 319 q 284 398 264 378 q 333 418 304 418 q 383 398 363 418 q 403 349 403 378 q 383 299 403 319 q 333 279 363 279 m 750 279 q 701 299 721 279 q 681 349 681 319 q 701 398 681 378 q 750 418 721 418 q 799 398 779 418 q 819 349 819 378 q 799 299 819 319 q 750 279 779 279 z "},"࿌":{"ha":1083,"x_min":56,"x_max":1028,"o":"m 542 -17 q 353 21 442 -17 q 198 126 265 58 q 93 281 131 193 q 56 469 56 369 q 93 658 56 569 q 198 813 131 746 q 353 918 265 881 q 542 956 442 956 q 730 918 642 956 q 885 813 818 881 q 990 658 953 746 q 1028 469 1028 569 q 990 281 1028 369 q 885 126 953 193 q 730 21 818 58 q 542 -17 642 -17 m 542 53 q 703 85 628 53 q 836 175 779 118 q 926 308 893 232 q 958 469 958 383 q 926 631 958 556 q 836 764 893 707 q 703 853 779 821 q 542 886 628 886 q 380 853 456 886 q 247 764 304 821 q 158 631 190 707 q 125 469 125 556 q 158 308 125 383 q 247 175 190 232 q 380 85 304 118 q 542 53 456 53 m 1000 469 q 935 297 990 358 q 788 235 879 235 q 619 289 686 235 q 510 457 553 343 q 425 594 475 553 q 296 635 375 635 q 172 588 219 635 q 125 469 125 542 l 83 469 q 149 642 94 581 q 296 704 204 704 q 464 651 397 704 q 574 482 531 597 q 659 345 610 386 q 788 304 708 304 q 911 351 864 304 q 958 469 958 397 l 1000 469 m 726 442 q 747 491 726 471 q 796 511 767 511 q 845 491 825 511 q 865 442 865 471 q 845 392 865 413 q 796 372 825 372 q 747 392 767 372 q 726 442 726 413 m 218 497 q 238 547 218 526 q 288 567 258 567 q 337 547 317 567 q 357 497 357 526 q 337 448 357 468 q 288 428 317 428 q 238 448 258 428 q 218 497 218 468 m 542 11 q 369 77 431 22 q 307 224 307 132 q 361 392 307 325 q 529 501 415 458 q 666 587 625 538 q 707 715 707 636 q 660 839 707 792 q 542 886 614 886 l 542 928 q 715 863 653 918 q 776 715 776 807 q 723 547 776 614 q 554 438 669 481 q 417 353 458 403 q 376 224 376 303 q 423 100 376 147 q 542 53 469 53 l 542 11 m 514 285 q 563 265 543 285 q 583 215 583 244 q 563 166 583 186 q 514 146 543 146 q 465 166 485 146 q 444 215 444 186 q 465 265 444 244 q 514 285 485 285 m 569 793 q 619 773 599 793 q 639 724 639 753 q 619 674 639 694 q 569 654 599 654 q 520 674 540 654 q 500 724 500 694 q 520 773 500 753 q 569 793 540 793 z "},"࿎":{"ha":932,"x_min":56,"x_max":869,"o":"m 447 231 l 397 181 l 56 522 l 106 572 l 447 231 m 106 181 l 56 231 l 397 572 l 447 522 l 106 181 m 675 575 q 773 549 729 575 q 843 479 817 524 q 869 381 869 435 q 843 283 869 328 q 773 213 817 239 q 675 186 729 186 q 577 213 621 186 q 507 283 533 239 q 481 381 481 328 q 507 479 481 435 q 577 549 533 524 q 675 575 621 575 m 675 506 q 587 469 624 506 q 550 381 550 433 q 587 292 550 329 q 675 256 624 256 q 764 292 728 256 q 800 381 800 329 q 764 469 800 433 q 675 506 728 506 z "},"࿏":{"ha":919,"x_min":56,"x_max":864,"o":"m 447 231 l 397 181 l 56 522 l 106 572 l 447 231 m 106 181 l 56 231 l 397 572 l 447 522 l 106 181 m 864 231 l 814 181 l 472 522 l 522 572 l 864 231 m 522 181 l 472 231 l 814 572 l 864 522 l 522 181 m 656 633 l 606 583 l 264 925 l 314 975 l 656 633 m 314 583 l 264 633 l 606 975 l 656 925 l 314 583 z "},"༘":{"ha":0,"x_min":-606,"x_max":17,"o":"m -606 -347 l -556 -326 q -508 -410 -533 -381 q -452 -451 -482 -440 q -389 -462 -422 -462 q -308 -436 -336 -462 q -281 -358 -281 -410 q -312 -260 -281 -299 q -386 -222 -343 -222 q -412 -231 -404 -222 q -419 -254 -419 -239 q -387 -314 -419 -289 q -293 -339 -354 -339 q -169 -300 -215 -339 q -124 -190 -124 -261 q -150 -96 -124 -136 q -218 -56 -176 -56 q -250 -82 -250 -56 q -240 -115 -250 -97 q -206 -145 -229 -133 q -147 -157 -183 -157 q -68 -131 -97 -157 q -39 -53 -39 -104 q -58 24 -39 -12 q -115 90 -78 60 l -79 132 q -6 42 -28 90 q 17 -54 17 -6 q -7 -144 17 -108 q -68 -196 -31 -179 q -149 -212 -106 -212 q -231 -194 -196 -212 q -286 -146 -267 -175 q -306 -83 -306 -117 q -281 -22 -306 -44 q -218 0 -257 0 q -143 -24 -178 0 q -88 -91 -108 -49 q -68 -189 -68 -133 q -130 -339 -68 -283 q -294 -394 -192 -394 q -394 -375 -354 -394 q -455 -324 -435 -356 q -475 -256 -475 -292 q -450 -190 -475 -212 q -385 -167 -425 -167 q -305 -192 -342 -167 q -246 -262 -268 -218 q -225 -360 -224 -306 q -273 -478 -226 -437 q -390 -518 -319 -518 q -517 -477 -462 -518 q -606 -347 -571 -436 z "},"༙":{"ha":0,"x_min":-694,"x_max":-514,"o":"m -558 -387 l -622 -343 q -628 -206 -625 -262 q -637 -108 -632 -150 q -650 -29 -643 -67 l -694 90 l -514 90 l -558 -29 l -558 -387 z "},"༵":{"ha":0,"x_min":-611,"x_max":-42,"o":"m -326 -578 q -611 -332 -547 -578 l -560 -300 q -470 -426 -525 -386 q -326 -467 -415 -467 q -182 -426 -236 -467 q -93 -300 -128 -386 l -42 -332 q -144 -515 -72 -453 q -326 -578 -217 -578 m -326 -69 q -221 -110 -261 -69 q -181 -215 -181 -150 q -221 -321 -181 -281 q -326 -361 -261 -361 q -431 -321 -390 -361 q -472 -215 -472 -281 q -431 -110 -472 -150 q -326 -69 -390 -69 m -326 -139 q -382 -160 -361 -139 q -403 -215 -403 -181 q -382 -271 -403 -250 q -326 -292 -361 -292 q -271 -271 -292 -292 q -250 -215 -250 -250 q -271 -160 -250 -181 q -326 -139 -292 -139 z "},"༷":{"ha":0,"x_min":-333,"x_max":-42,"o":"m -187 -69 q -82 -110 -122 -69 q -42 -215 -42 -150 q -82 -321 -42 -281 q -187 -361 -122 -361 q -292 -321 -251 -361 q -333 -215 -333 -281 q -292 -110 -333 -150 q -187 -69 -251 -69 m -187 -139 q -243 -160 -222 -139 q -264 -215 -264 -181 q -243 -271 -264 -250 q -187 -292 -222 -292 q -132 -271 -153 -292 q -111 -215 -111 -250 q -132 -160 -111 -181 q -187 -139 -153 -139 z "},"༹":{"ha":0,"x_min":39,"x_max":289,"o":"m 39 942 q 47 1139 47 1033 q 191 1150 135 1139 q 289 1182 247 1161 l 275 1083 q 196 1043 239 1058 q 99 1025 153 1028 q 92 983 96 1004 q 82 942 88 961 l 39 942 z "},"༾":{"ha":669,"x_min":42,"x_max":628,"o":"m 57 758 q 182 701 133 731 q 259 633 231 671 q 303 539 288 594 q 331 372 324 463 q 340 192 338 282 q 349 22 342 101 q 382 -115 357 -58 q 437 -213 406 -169 q 514 -295 468 -257 q 628 -371 560 -333 l 597 -426 q 432 -342 497 -386 q 328 -252 367 -299 q 269 -157 290 -206 q 233 -9 243 -92 q 222 164 224 74 q 214 342 219 254 q 189 506 208 431 q 135 622 171 575 q 42 699 100 668 l 57 758 z "},"༿":{"ha":669,"x_min":42,"x_max":628,"o":"m 613 758 l 628 699 q 535 622 569 668 q 481 506 500 575 q 456 342 461 431 q 448 164 450 254 q 437 -9 446 74 q 400 -157 428 -92 q 342 -252 381 -206 q 238 -342 303 -299 q 72 -426 172 -386 l 42 -371 q 156 -295 110 -333 q 233 -213 201 -257 q 288 -115 264 -169 q 320 22 313 -58 q 330 192 328 101 q 339 372 332 282 q 367 539 346 463 q 410 633 382 594 q 488 701 439 671 q 613 758 536 731 z "},"ཱ":{"ha":0,"x_min":57,"x_max":667,"o":"m 538 876 q 567 867 557 876 q 578 836 578 857 q 567 806 578 817 q 538 796 557 796 q 508 806 518 796 q 497 836 497 817 q 508 867 497 857 q 538 876 518 876 m 200 553 q 231 543 221 553 q 240 513 240 533 q 231 482 240 492 q 200 472 221 472 q 171 482 181 472 q 161 513 161 492 q 171 543 161 533 q 200 553 181 553 m 142 714 q 171 704 161 714 q 181 675 181 694 q 171 644 181 654 q 142 635 161 635 q 111 644 121 635 q 101 675 101 654 q 111 704 101 694 q 142 714 121 714 m 368 486 q 399 476 389 486 q 410 446 410 467 q 399 416 410 426 q 368 406 389 406 q 339 416 349 406 q 329 446 329 426 q 339 476 329 467 q 368 486 349 486 m 200 876 q 231 867 221 876 q 240 836 240 857 q 231 806 240 817 q 200 796 221 796 q 171 806 181 796 q 161 836 161 817 q 171 867 161 857 q 200 876 181 876 m 538 553 q 567 543 557 553 q 578 513 578 533 q 567 482 578 492 q 538 472 557 472 q 508 482 518 472 q 497 513 497 492 q 508 543 497 533 q 538 553 518 553 m 368 942 q 399 932 389 942 q 410 903 410 922 q 399 872 410 882 q 368 863 389 863 q 339 872 349 863 q 329 903 329 882 q 339 932 329 922 q 368 942 349 942 m 597 714 q 627 704 617 714 q 638 675 638 694 q 627 644 638 654 q 597 635 617 635 q 567 644 578 635 q 557 675 557 654 q 567 704 557 694 q 597 714 578 714 m 357 67 q 471 40 422 67 q 566 -51 519 13 q 667 -226 613 -115 l 611 -240 q 521 -131 563 -171 q 434 -74 479 -90 q 332 -58 389 -58 q 303 -60 318 -58 q 275 -65 289 -61 l 289 58 q 322 65 304 63 q 357 67 339 67 m 224 340 l 193 249 q 159 196 171 229 q 147 118 147 163 q 159 47 147 78 q 194 -21 171 15 l 110 -108 q 69 -25 81 -67 q 57 60 57 17 q 100 219 57 142 q 224 340 143 296 m 485 340 q 547 261 525 308 q 569 160 569 214 q 483 -26 569 56 l 454 -6 q 480 44 472 18 q 488 99 488 69 q 466 197 488 156 q 394 276 444 239 l 485 340 m 585 340 l 557 221 l 150 221 l 224 340 l 585 340 z "},"ི":{"ha":0,"x_min":42,"x_max":757,"o":"m 736 986 q 565 1169 638 1097 q 436 1280 492 1240 q 334 1335 381 1319 q 242 1350 288 1350 q 147 1328 179 1350 q 114 1271 114 1307 q 142 1217 114 1236 q 213 1197 169 1197 q 270 1207 244 1197 q 315 1235 296 1217 l 322 1154 q 258 1101 296 1118 q 176 1083 221 1083 q 76 1120 111 1083 q 42 1228 42 1157 q 53 1310 42 1268 q 92 1389 65 1353 q 164 1447 119 1425 q 272 1469 208 1469 q 376 1449 326 1469 q 478 1378 425 1428 q 598 1246 531 1329 q 757 1036 665 1163 l 736 986 z "},"ཱི":{"ha":0,"x_min":7,"x_max":722,"o":"m 586 876 q 616 867 606 876 q 626 836 626 857 q 616 806 626 817 q 586 796 606 796 q 556 806 567 796 q 546 836 546 817 q 556 867 546 857 q 586 876 567 876 m 249 553 q 279 543 269 553 q 289 513 289 533 q 279 482 289 492 q 249 472 269 472 q 219 482 229 472 q 210 513 210 492 q 219 543 210 533 q 249 553 229 553 m 190 714 q 219 704 210 714 q 229 675 229 694 q 219 644 229 654 q 190 635 210 635 q 160 644 169 635 q 150 675 150 654 q 160 704 150 694 q 190 714 169 714 m 417 486 q 448 476 438 486 q 458 446 458 467 q 448 416 458 426 q 417 406 438 406 q 388 416 397 406 q 378 446 378 426 q 388 476 378 467 q 417 486 397 486 m 249 876 q 279 867 269 876 q 289 836 289 857 q 279 806 289 817 q 249 796 269 796 q 219 806 229 796 q 210 836 210 817 q 219 867 210 857 q 249 876 229 876 m 586 553 q 616 543 606 553 q 626 513 626 533 q 616 482 626 492 q 586 472 606 472 q 556 482 567 472 q 546 513 546 492 q 556 543 546 533 q 586 553 567 553 m 417 942 q 448 932 438 942 q 458 903 458 922 q 448 872 458 882 q 417 863 438 863 q 388 872 397 863 q 378 903 378 882 q 388 932 378 922 q 417 942 397 942 m 646 714 q 676 704 665 714 q 686 675 686 694 q 676 644 686 654 q 646 635 665 635 q 616 644 626 635 q 606 675 606 654 q 616 704 606 694 q 646 714 626 714 m 406 67 q 519 40 471 67 q 615 -51 568 13 q 715 -226 661 -115 l 660 -240 q 569 -131 611 -171 q 483 -74 528 -90 q 381 -58 438 -58 q 352 -60 367 -58 q 324 -65 338 -61 l 338 58 q 370 65 353 63 q 406 67 388 67 m 272 340 l 242 249 q 208 196 219 229 q 196 118 196 163 q 208 47 196 78 q 243 -21 219 15 l 158 -108 q 117 -25 129 -67 q 106 60 106 17 q 149 219 106 142 q 272 340 192 296 m 533 340 q 596 261 574 308 q 618 160 618 214 q 532 -26 618 56 l 503 -6 q 528 44 521 18 q 536 99 536 69 q 515 197 536 156 q 443 276 493 239 l 533 340 m 633 340 l 606 221 l 199 221 l 272 340 l 633 340 m 701 986 q 530 1169 603 1097 q 401 1280 457 1240 q 299 1335 346 1319 q 207 1350 253 1350 q 112 1328 144 1350 q 79 1271 79 1307 q 107 1217 79 1236 q 178 1197 135 1197 q 235 1207 210 1197 q 281 1235 261 1217 l 288 1154 q 224 1101 261 1118 q 142 1083 186 1083 q 42 1120 76 1083 q 7 1228 7 1157 q 19 1310 7 1268 q 58 1389 31 1353 q 129 1447 85 1425 q 238 1469 174 1469 q 341 1449 292 1469 q 443 1378 390 1428 q 563 1246 496 1329 q 722 1036 631 1163 l 701 986 z "},"ུ":{"ha":0,"x_min":-28,"x_max":926,"o":"m 18 218 q 199 103 122 156 q 339 8 276 50 q 459 -62 401 -33 q 579 -107 517 -92 q 719 -122 642 -122 q 825 -95 789 -122 q 861 -31 861 -68 q 835 27 861 6 q 760 49 808 49 q 635 10 689 49 l 615 129 q 668 160 636 149 q 735 172 700 172 q 836 148 793 172 q 903 81 879 124 q 926 -17 926 38 q 897 -133 926 -81 q 813 -215 868 -185 q 678 -246 758 -246 q 535 -226 599 -246 q 414 -168 472 -206 q 292 -78 356 -131 q 152 38 229 -26 q -28 176 75 103 l 18 218 z "},"ཱུ":{"ha":0,"x_min":-15,"x_max":814,"o":"m 633 876 q 663 867 653 876 q 674 836 674 857 q 663 806 674 817 q 633 796 653 796 q 603 806 614 796 q 593 836 593 817 q 603 867 593 857 q 633 876 614 876 m 296 553 q 326 543 317 553 q 336 513 336 533 q 326 482 336 492 q 296 472 317 472 q 267 482 276 472 q 257 513 257 492 q 267 543 257 533 q 296 553 276 553 m 238 714 q 267 704 257 714 q 276 675 276 694 q 267 644 276 654 q 238 635 257 635 q 207 644 217 635 q 197 675 197 654 q 207 704 197 694 q 238 714 217 714 m 464 486 q 495 476 485 486 q 506 446 506 467 q 495 416 506 426 q 464 406 485 406 q 435 416 444 406 q 425 446 425 426 q 435 476 425 467 q 464 486 444 486 m 296 876 q 326 867 317 876 q 336 836 336 857 q 326 806 336 817 q 296 796 317 796 q 267 806 276 796 q 257 836 257 817 q 267 867 257 857 q 296 876 276 876 m 633 553 q 663 543 653 553 q 674 513 674 533 q 663 482 674 492 q 633 472 653 472 q 603 482 614 472 q 593 513 593 492 q 603 543 593 533 q 633 553 614 553 m 464 942 q 495 932 485 942 q 506 903 506 922 q 495 872 506 882 q 464 863 485 863 q 435 872 444 863 q 425 903 425 882 q 435 932 425 922 q 464 942 444 942 m 693 714 q 723 704 713 714 q 733 675 733 694 q 723 644 733 654 q 693 635 713 635 q 663 644 674 635 q 653 675 653 654 q 663 704 653 694 q 693 714 674 714 m 453 67 q 567 40 518 67 q 661 -51 615 13 q 763 -226 707 -115 l 707 -240 q 617 -131 658 -171 q 530 -74 575 -90 q 428 -58 485 -58 q 399 -60 414 -58 q 371 -65 385 -61 l 385 58 q 417 65 400 63 q 453 67 435 67 m 319 340 l 289 249 q 255 196 267 229 q 243 118 243 163 q 255 47 243 78 q 290 -21 267 15 l 206 -108 q 165 -25 176 -67 q 153 60 153 17 q 196 219 153 142 q 319 340 239 296 m 581 340 q 643 261 621 308 q 665 160 665 214 q 579 -26 665 56 l 550 -6 q 576 44 568 18 q 583 99 583 69 q 562 197 583 156 q 490 276 540 239 l 581 340 m 681 340 l 653 221 l 246 221 l 319 340 l 681 340 m 39 13 q 224 -185 149 -97 q 360 -337 300 -274 q 483 -433 421 -400 q 629 -467 546 -467 q 718 -440 688 -467 q 749 -378 749 -414 q 723 -319 749 -342 q 649 -296 697 -296 q 536 -332 583 -296 l 517 -212 q 565 -183 535 -193 q 626 -172 594 -172 q 726 -197 683 -172 q 791 -265 768 -222 q 814 -364 814 -308 q 788 -479 814 -428 q 711 -560 761 -531 q 588 -590 661 -590 q 463 -563 518 -590 q 358 -485 408 -536 q 256 -362 308 -433 q 138 -205 203 -292 q -15 -18 72 -118 l 39 13 m 685 -199 l 749 -226 l 749 -240 l 685 -240 l 685 -199 z "},"ྲྀ":{"ha":0,"x_min":42,"x_max":836,"o":"m 193 271 q 339 256 268 271 q 483 203 410 240 q 643 98 557 165 q 836 -72 729 31 l 772 -89 q 600 31 676 -17 q 458 104 524 78 q 329 141 392 131 q 200 151 267 151 q 117 147 156 151 q 42 135 78 143 l 56 254 q 193 271 114 271 m 607 876 q 637 867 626 876 q 647 836 647 857 q 637 806 647 817 q 607 796 626 796 q 577 806 588 796 q 567 836 567 817 q 577 867 567 857 q 607 876 588 876 m 269 553 q 300 543 290 553 q 310 513 310 533 q 300 482 310 492 q 269 472 290 472 q 240 482 250 472 q 231 513 231 492 q 240 543 231 533 q 269 553 250 553 m 211 714 q 240 704 231 714 q 250 675 250 694 q 240 644 250 654 q 211 635 231 635 q 181 644 190 635 q 171 675 171 654 q 181 704 171 694 q 211 714 190 714 m 438 486 q 469 476 458 486 q 479 446 479 467 q 469 416 479 426 q 438 406 458 406 q 408 416 418 406 q 399 446 399 426 q 408 476 399 467 q 438 486 418 486 m 269 876 q 300 867 290 876 q 310 836 310 857 q 300 806 310 817 q 269 796 290 796 q 240 806 250 796 q 231 836 231 817 q 240 867 231 857 q 269 876 250 876 m 607 553 q 637 543 626 553 q 647 513 647 533 q 637 482 647 492 q 607 472 626 472 q 577 482 588 472 q 567 513 567 492 q 577 543 567 533 q 607 553 588 553 m 438 942 q 469 932 458 942 q 479 903 479 922 q 469 872 479 882 q 438 863 458 863 q 408 872 418 863 q 399 903 399 882 q 408 932 399 922 q 438 942 418 942 m 667 714 q 697 704 686 714 q 707 675 707 694 q 697 644 707 654 q 667 635 686 635 q 637 644 647 635 q 626 675 626 654 q 637 704 626 694 q 667 714 647 714 m 72 986 l 51 1036 q 213 1246 143 1163 q 342 1378 283 1329 q 453 1449 400 1428 q 564 1469 506 1469 q 659 1451 621 1469 q 722 1403 697 1433 q 756 1338 746 1374 q 767 1269 767 1303 q 713 1134 767 1185 q 574 1083 660 1083 q 516 1093 543 1083 q 471 1122 489 1103 l 493 1235 q 538 1207 513 1217 q 596 1197 564 1197 q 667 1215 640 1197 q 694 1264 694 1232 q 661 1326 694 1303 q 567 1350 628 1350 q 474 1335 521 1350 q 372 1280 428 1319 q 244 1169 317 1240 q 72 986 171 1097 z "},"ཷ":{"ha":0,"x_min":42,"x_max":936,"o":"m 193 271 q 339 256 268 271 q 483 203 410 240 q 643 98 557 165 q 836 -72 729 31 l 772 -89 q 600 31 676 -17 q 458 104 524 78 q 329 141 392 131 q 200 151 267 151 q 117 147 156 151 q 42 135 78 143 l 56 254 q 193 271 114 271 m 607 876 q 637 867 626 876 q 647 836 647 857 q 637 806 647 817 q 607 796 626 796 q 577 806 588 796 q 567 836 567 817 q 577 867 567 857 q 607 876 588 876 m 269 553 q 300 543 290 553 q 310 513 310 533 q 300 482 310 492 q 269 472 290 472 q 240 482 250 472 q 231 513 231 492 q 240 543 231 533 q 269 553 250 553 m 211 714 q 240 704 231 714 q 250 675 250 694 q 240 644 250 654 q 211 635 231 635 q 181 644 190 635 q 171 675 171 654 q 181 704 171 694 q 211 714 190 714 m 438 486 q 469 476 458 486 q 479 446 479 467 q 469 416 479 426 q 438 406 458 406 q 408 416 418 406 q 399 446 399 426 q 408 476 399 467 q 438 486 418 486 m 269 876 q 300 867 290 876 q 310 836 310 857 q 300 806 310 817 q 269 796 290 796 q 240 806 250 796 q 231 836 231 817 q 240 867 231 857 q 269 876 250 876 m 607 553 q 637 543 626 553 q 647 513 647 533 q 637 482 647 492 q 607 472 626 472 q 577 482 588 472 q 567 513 567 492 q 577 543 567 533 q 607 553 588 553 m 438 942 q 469 932 458 942 q 479 903 479 922 q 469 872 479 882 q 438 863 458 863 q 408 872 418 863 q 399 903 399 882 q 408 932 399 922 q 438 942 418 942 m 667 714 q 697 704 686 714 q 707 675 707 694 q 697 644 707 654 q 667 635 686 635 q 637 644 647 635 q 626 675 626 654 q 637 704 626 694 q 667 714 647 714 m 72 986 l 51 1036 q 213 1246 143 1163 q 342 1378 283 1329 q 453 1449 400 1428 q 564 1469 506 1469 q 659 1451 621 1469 q 722 1403 697 1433 q 756 1338 746 1374 q 767 1269 767 1303 q 713 1134 767 1185 q 574 1083 660 1083 q 516 1093 543 1083 q 471 1122 489 1103 l 493 1235 q 538 1207 513 1217 q 596 1197 564 1197 q 667 1215 640 1197 q 694 1264 694 1232 q 661 1326 694 1303 q 567 1350 628 1350 q 474 1335 521 1350 q 372 1280 428 1319 q 244 1169 317 1240 q 72 986 171 1097 m 651 -397 q 756 -422 711 -397 q 844 -506 801 -447 q 936 -667 886 -564 l 883 -681 q 800 -583 839 -618 q 720 -534 761 -549 q 626 -519 679 -519 q 601 -521 614 -519 q 578 -525 589 -522 l 592 -404 q 621 -399 606 -400 q 651 -397 636 -397 m 540 -156 l 508 -250 q 481 -296 490 -268 q 471 -361 471 -324 q 481 -422 471 -396 q 511 -479 490 -449 l 426 -567 q 392 -495 401 -531 q 382 -422 382 -460 q 423 -272 382 -344 q 540 -156 464 -199 m 761 -156 q 824 -227 801 -185 q 846 -319 846 -269 q 761 -490 846 -411 l 738 -469 q 760 -426 753 -449 q 767 -378 767 -404 q 744 -289 767 -326 q 674 -219 722 -251 l 761 -156 m 864 -156 l 836 -275 l 465 -275 l 540 -156 l 864 -156 z "},"ླྀ":{"ha":0,"x_min":57,"x_max":864,"o":"m 647 876 q 677 867 667 876 q 688 836 688 857 q 677 806 688 817 q 647 796 667 796 q 617 806 628 796 q 607 836 607 817 q 617 867 607 857 q 647 876 628 876 m 310 553 q 340 543 331 553 q 350 513 350 533 q 340 482 350 492 q 310 472 331 472 q 281 482 290 472 q 271 513 271 492 q 281 543 271 533 q 310 553 290 553 m 251 714 q 281 704 271 714 q 290 675 290 694 q 281 644 290 654 q 251 635 271 635 q 221 644 231 635 q 211 675 211 654 q 221 704 211 694 q 251 714 231 714 m 478 486 q 509 476 499 486 q 519 446 519 467 q 509 416 519 426 q 478 406 499 406 q 449 416 458 406 q 439 446 439 426 q 449 476 439 467 q 478 486 458 486 m 310 876 q 340 867 331 876 q 350 836 350 857 q 340 806 350 817 q 310 796 331 796 q 281 806 290 796 q 271 836 271 817 q 281 867 271 857 q 310 876 290 876 m 647 553 q 677 543 667 553 q 688 513 688 533 q 677 482 688 492 q 647 472 667 472 q 617 482 628 472 q 607 513 607 492 q 617 543 607 533 q 647 553 628 553 m 478 942 q 509 932 499 942 q 519 903 519 922 q 509 872 519 882 q 478 863 499 863 q 449 872 458 863 q 439 903 439 882 q 449 932 439 922 q 478 942 458 942 m 707 714 q 737 704 726 714 q 747 675 747 694 q 737 644 747 654 q 707 635 726 635 q 677 644 688 635 q 667 675 667 654 q 677 704 667 694 q 707 714 688 714 m 421 -12 q 564 -47 501 -12 q 683 -153 626 -81 q 800 -343 739 -226 l 772 -392 q 644 -236 701 -292 q 528 -158 586 -181 q 399 -136 469 -136 q 355 -140 379 -136 q 310 -150 331 -143 l 324 -26 q 421 -12 365 -12 m 243 331 l 232 261 q 170 184 193 235 q 147 68 147 133 q 167 -39 147 8 q 229 -133 188 -86 l 149 -222 q 78 -109 99 -167 q 57 21 57 -51 q 106 195 57 111 q 243 331 154 279 m 469 328 q 525 235 506 289 q 544 119 544 181 q 530 13 544 64 q 488 -85 515 -39 l 438 -74 q 460 -5 453 -40 q 467 67 467 31 q 447 176 467 128 q 382 265 426 224 l 469 328 m 549 331 l 521 211 l 176 211 l 243 331 l 549 331 m 782 -324 q 762 -33 776 -171 q 726 211 747 106 l 674 211 l 701 331 l 864 331 l 836 211 l 836 -406 l 772 -392 l 782 -324 m 772 -378 l 836 -378 l 836 -392 l 772 -392 l 772 -378 m 106 986 l 85 1036 q 247 1246 176 1163 q 375 1378 317 1329 q 486 1449 433 1428 q 597 1469 539 1469 q 692 1451 654 1469 q 755 1403 731 1433 q 790 1338 779 1374 q 800 1269 800 1303 q 747 1134 800 1185 q 607 1083 693 1083 q 549 1093 576 1083 q 504 1122 522 1103 l 526 1235 q 572 1207 546 1217 q 629 1197 597 1197 q 701 1215 674 1197 q 728 1264 728 1232 q 694 1326 728 1303 q 600 1350 661 1350 q 508 1335 554 1350 q 406 1280 461 1319 q 277 1169 350 1240 q 106 986 204 1097 z "},"ཹ":{"ha":0,"x_min":57,"x_max":936,"o":"m 647 876 q 677 867 667 876 q 688 836 688 857 q 677 806 688 817 q 647 796 667 796 q 617 806 628 796 q 607 836 607 817 q 617 867 607 857 q 647 876 628 876 m 310 553 q 340 543 331 553 q 350 513 350 533 q 340 482 350 492 q 310 472 331 472 q 281 482 290 472 q 271 513 271 492 q 281 543 271 533 q 310 553 290 553 m 251 714 q 281 704 271 714 q 290 675 290 694 q 281 644 290 654 q 251 635 271 635 q 221 644 231 635 q 211 675 211 654 q 221 704 211 694 q 251 714 231 714 m 478 486 q 509 476 499 486 q 519 446 519 467 q 509 416 519 426 q 478 406 499 406 q 449 416 458 406 q 439 446 439 426 q 449 476 439 467 q 478 486 458 486 m 310 876 q 340 867 331 876 q 350 836 350 857 q 340 806 350 817 q 310 796 331 796 q 281 806 290 796 q 271 836 271 817 q 281 867 271 857 q 310 876 290 876 m 647 553 q 677 543 667 553 q 688 513 688 533 q 677 482 688 492 q 647 472 667 472 q 617 482 628 472 q 607 513 607 492 q 617 543 607 533 q 647 553 628 553 m 478 942 q 509 932 499 942 q 519 903 519 922 q 509 872 519 882 q 478 863 499 863 q 449 872 458 863 q 439 903 439 882 q 449 932 439 922 q 478 942 458 942 m 707 714 q 737 704 726 714 q 747 675 747 694 q 737 644 747 654 q 707 635 726 635 q 677 644 688 635 q 667 675 667 654 q 677 704 667 694 q 707 714 688 714 m 421 -12 q 564 -47 501 -12 q 683 -153 626 -81 q 800 -343 739 -226 l 772 -392 q 644 -236 701 -292 q 528 -158 586 -181 q 399 -136 469 -136 q 355 -140 379 -136 q 310 -150 331 -143 l 324 -26 q 421 -12 365 -12 m 243 331 l 232 261 q 170 184 193 235 q 147 68 147 133 q 167 -39 147 8 q 229 -133 188 -86 l 149 -222 q 78 -109 99 -167 q 57 21 57 -51 q 106 195 57 111 q 243 331 154 279 m 469 328 q 525 235 506 289 q 544 119 544 181 q 530 13 544 64 q 488 -85 515 -39 l 438 -74 q 460 -5 453 -40 q 467 67 467 31 q 447 176 467 128 q 382 265 426 224 l 469 328 m 549 331 l 521 211 l 176 211 l 243 331 l 549 331 m 782 -324 q 762 -33 776 -171 q 726 211 747 106 l 674 211 l 701 331 l 864 331 l 836 211 l 836 -406 l 772 -392 l 782 -324 m 772 -378 l 836 -378 l 836 -392 l 772 -392 l 772 -378 m 651 -633 q 756 -658 711 -633 q 844 -742 801 -683 q 936 -903 886 -800 l 883 -917 q 800 -819 839 -854 q 720 -770 761 -785 q 626 -756 679 -756 q 601 -757 614 -756 q 578 -761 589 -758 l 592 -640 q 621 -635 606 -636 q 651 -633 636 -633 m 540 -392 l 508 -486 q 481 -532 490 -504 q 471 -597 471 -560 q 481 -658 471 -632 q 511 -715 490 -685 l 426 -803 q 392 -731 401 -767 q 382 -658 382 -696 q 423 -508 382 -581 q 540 -392 464 -435 m 761 -392 q 824 -463 801 -421 q 846 -556 846 -506 q 761 -726 846 -647 l 738 -706 q 760 -662 753 -685 q 767 -614 767 -640 q 744 -525 767 -562 q 674 -456 722 -487 l 761 -392 m 864 -392 l 836 -511 l 465 -511 l 540 -392 l 864 -392 m 92 986 l 71 1036 q 233 1246 163 1163 q 361 1378 303 1329 q 472 1449 419 1428 q 583 1469 525 1469 q 678 1451 640 1469 q 741 1403 717 1433 q 776 1338 765 1374 q 786 1269 786 1303 q 733 1134 786 1185 q 593 1083 679 1083 q 535 1093 563 1083 q 490 1122 508 1103 l 513 1235 q 558 1207 532 1217 q 615 1197 583 1197 q 687 1215 660 1197 q 714 1264 714 1232 q 681 1326 714 1303 q 586 1350 647 1350 q 494 1335 540 1350 q 392 1280 447 1319 q 263 1169 336 1240 q 92 986 190 1097 z "},"ེ":{"ha":0,"x_min":42,"x_max":736,"o":"m 146 1344 q 94 1340 119 1344 q 42 1328 68 1336 l 63 1450 q 113 1465 86 1461 q 165 1469 139 1469 q 265 1459 219 1469 q 356 1421 311 1449 q 455 1344 401 1393 q 576 1220 508 1296 q 736 1036 644 1144 l 715 986 q 517 1166 601 1096 q 369 1275 433 1236 q 252 1329 306 1314 q 146 1344 199 1344 z "},"ཻ":{"ha":0,"x_min":42,"x_max":736,"o":"m 715 986 l 704 1001 q 551 1202 617 1124 q 434 1324 485 1281 q 341 1383 383 1367 q 257 1400 299 1400 q 219 1396 238 1400 q 181 1383 200 1392 l 201 1506 q 238 1521 218 1517 q 276 1525 258 1525 q 376 1505 331 1525 q 469 1433 421 1485 q 581 1285 517 1381 q 736 1036 644 1189 l 715 986 m 715 986 q 517 1082 601 1044 q 369 1140 433 1119 q 252 1169 306 1161 q 146 1178 199 1178 q 42 1161 94 1178 l 63 1283 q 113 1299 86 1294 q 165 1303 139 1303 q 265 1292 214 1303 q 377 1253 315 1282 q 519 1172 439 1225 q 708 1036 600 1119 l 715 986 z "},"ོ":{"ha":0,"x_min":42,"x_max":1172,"o":"m 568 1115 l 524 1150 q 610 1297 558 1253 q 740 1351 663 1342 q 862 1363 807 1360 q 967 1376 917 1367 q 1068 1418 1032 1389 q 1128 1497 1104 1447 l 1172 1446 q 1089 1320 1138 1365 q 957 1257 1040 1275 q 837 1240 897 1244 q 728 1229 776 1236 q 633 1199 668 1222 q 568 1115 597 1176 m 625 986 q 453 1143 526 1083 q 325 1235 379 1203 q 228 1278 271 1267 q 146 1290 185 1290 q 94 1286 119 1290 q 42 1274 68 1282 l 63 1396 q 113 1411 86 1407 q 165 1415 139 1415 q 259 1400 213 1415 q 360 1344 306 1385 q 483 1228 414 1303 q 646 1036 553 1154 l 625 986 z "},"ཽ":{"ha":0,"x_min":42,"x_max":1172,"o":"m 568 1074 l 529 1108 q 613 1208 563 1178 q 740 1246 664 1239 q 862 1252 807 1253 q 967 1257 917 1251 q 1068 1288 1032 1265 q 1128 1344 1104 1310 l 1172 1299 q 1089 1197 1138 1233 q 957 1146 1040 1160 q 838 1135 899 1136 q 728 1132 776 1135 q 633 1117 668 1128 q 568 1074 597 1106 m 625 986 q 415 1110 500 1068 q 267 1165 331 1151 q 146 1179 204 1179 q 42 1163 94 1179 l 63 1276 q 113 1292 86 1288 q 165 1296 139 1296 q 259 1285 213 1296 q 360 1247 306 1275 q 483 1166 414 1218 q 646 1032 553 1114 l 625 986 m 528 1218 l 514 1292 q 605 1407 550 1372 q 740 1449 660 1442 q 862 1455 807 1456 q 967 1460 917 1454 q 1068 1488 1032 1468 q 1128 1539 1104 1507 l 1172 1493 q 1120 1422 1149 1451 q 1053 1376 1092 1393 q 957 1349 1014 1358 q 838 1338 899 1339 q 728 1335 776 1338 q 609 1305 654 1329 q 528 1218 564 1281 m 528 1218 q 374 1323 438 1288 q 265 1370 311 1358 q 174 1382 218 1382 q 69 1365 122 1382 l 90 1479 q 140 1494 114 1490 q 193 1499 167 1499 q 263 1489 229 1499 q 338 1454 297 1479 q 429 1383 378 1429 q 549 1264 481 1338 l 528 1218 z "},"ཾ":{"ha":0,"x_min":42,"x_max":333,"o":"m 188 1313 q 293 1272 253 1313 q 333 1167 333 1232 q 293 1061 333 1101 q 188 1021 253 1021 q 83 1061 124 1021 q 42 1167 42 1101 q 83 1272 42 1232 q 188 1313 124 1313 m 188 1243 q 132 1222 153 1243 q 111 1167 111 1201 q 132 1111 111 1132 q 188 1090 153 1090 q 243 1111 222 1090 q 264 1167 264 1132 q 243 1222 264 1201 q 188 1243 222 1243 z "},"ཿ":{"ha":528,"x_min":69,"x_max":458,"o":"m 257 564 q 117 618 165 564 q 69 753 69 672 q 126 898 69 843 q 271 953 182 953 q 410 899 361 953 q 458 764 458 846 q 402 619 458 675 q 257 564 346 564 m 257 78 q 117 132 165 78 q 69 267 69 186 q 126 412 69 357 q 271 467 182 467 q 410 413 361 467 q 458 278 458 360 q 402 133 458 189 q 257 78 346 78 m 306 156 q 362 175 343 156 q 381 229 381 194 q 359 305 381 268 q 302 365 338 342 q 224 389 267 389 q 167 369 186 389 q 147 315 147 350 q 169 240 147 276 q 226 179 190 203 q 306 156 263 156 m 307 642 q 362 661 343 642 q 381 715 381 681 q 359 792 381 756 q 301 851 338 828 q 222 875 265 875 q 167 856 186 875 q 147 801 147 836 q 169 726 147 763 q 227 665 190 689 q 307 642 264 642 z "},"ྀ":{"ha":0,"x_min":42,"x_max":757,"o":"m 63 986 l 42 1036 q 203 1246 133 1163 q 332 1378 274 1329 q 443 1449 390 1428 q 554 1469 496 1469 q 649 1451 611 1469 q 712 1403 688 1433 q 747 1338 736 1374 q 757 1269 757 1303 q 703 1134 757 1185 q 564 1083 650 1083 q 506 1093 533 1083 q 461 1122 479 1103 l 483 1235 q 528 1207 503 1217 q 586 1197 554 1197 q 658 1215 631 1197 q 685 1264 685 1232 q 651 1326 685 1303 q 557 1350 618 1350 q 465 1335 511 1350 q 363 1280 418 1319 q 234 1169 307 1240 q 63 986 161 1097 z "},"ཱྀ":{"ha":0,"x_min":14,"x_max":729,"o":"m 538 876 q 567 867 557 876 q 578 836 578 857 q 567 806 578 817 q 538 796 557 796 q 508 806 518 796 q 497 836 497 817 q 508 867 497 857 q 538 876 518 876 m 200 553 q 231 543 221 553 q 240 513 240 533 q 231 482 240 492 q 200 472 221 472 q 171 482 181 472 q 161 513 161 492 q 171 543 161 533 q 200 553 181 553 m 142 714 q 171 704 161 714 q 181 675 181 694 q 171 644 181 654 q 142 635 161 635 q 111 644 121 635 q 101 675 101 654 q 111 704 101 694 q 142 714 121 714 m 368 486 q 399 476 389 486 q 410 446 410 467 q 399 416 410 426 q 368 406 389 406 q 339 416 349 406 q 329 446 329 426 q 339 476 329 467 q 368 486 349 486 m 200 876 q 231 867 221 876 q 240 836 240 857 q 231 806 240 817 q 200 796 221 796 q 171 806 181 796 q 161 836 161 817 q 171 867 161 857 q 200 876 181 876 m 538 553 q 567 543 557 553 q 578 513 578 533 q 567 482 578 492 q 538 472 557 472 q 508 482 518 472 q 497 513 497 492 q 508 543 497 533 q 538 553 518 553 m 368 942 q 399 932 389 942 q 410 903 410 922 q 399 872 410 882 q 368 863 389 863 q 339 872 349 863 q 329 903 329 882 q 339 932 329 922 q 368 942 349 942 m 597 714 q 627 704 617 714 q 638 675 638 694 q 627 644 638 654 q 597 635 617 635 q 567 644 578 635 q 557 675 557 654 q 567 704 557 694 q 597 714 578 714 m 357 67 q 471 40 422 67 q 566 -51 519 13 q 667 -226 613 -115 l 611 -240 q 521 -131 563 -171 q 434 -74 479 -90 q 332 -58 389 -58 q 303 -60 318 -58 q 275 -65 289 -61 l 289 58 q 322 65 304 63 q 357 67 339 67 m 224 340 l 193 249 q 159 196 171 229 q 147 118 147 163 q 159 47 147 78 q 194 -21 171 15 l 110 -108 q 69 -25 81 -67 q 57 60 57 17 q 100 219 57 142 q 224 340 143 296 m 485 340 q 547 261 525 308 q 569 160 569 214 q 483 -26 569 56 l 454 -6 q 480 44 472 18 q 488 99 488 69 q 466 197 488 156 q 394 276 444 239 l 485 340 m 585 340 l 557 221 l 150 221 l 224 340 l 585 340 m 35 986 l 14 1036 q 176 1246 106 1163 q 304 1378 246 1329 q 415 1449 363 1428 q 526 1469 468 1469 q 622 1451 583 1469 q 684 1403 660 1433 q 719 1338 708 1374 q 729 1269 729 1303 q 676 1134 729 1185 q 536 1083 622 1083 q 478 1093 506 1083 q 433 1122 451 1103 l 456 1235 q 501 1207 475 1217 q 558 1197 526 1197 q 630 1215 603 1197 q 657 1264 657 1232 q 624 1326 657 1303 q 529 1350 590 1350 q 437 1335 483 1350 q 335 1280 390 1319 q 206 1169 279 1240 q 35 986 133 1097 z "},"ྂ":{"ha":0,"x_min":42,"x_max":611,"o":"m 185 1365 q 189 1393 185 1381 l 247 1393 q 246 1385 246 1389 q 246 1376 246 1381 q 261 1331 246 1349 q 306 1314 276 1314 q 351 1328 333 1314 q 369 1371 369 1342 q 357 1420 369 1397 q 328 1465 344 1443 q 299 1509 311 1486 q 286 1558 286 1532 q 288 1582 286 1572 q 293 1599 290 1592 l 347 1599 q 363 1549 347 1572 q 400 1501 379 1525 q 437 1449 421 1478 q 453 1382 453 1419 q 414 1282 453 1319 q 317 1244 375 1244 q 219 1279 253 1244 q 185 1365 185 1314 m 326 1028 q 42 1274 106 1028 l 93 1306 q 183 1179 128 1219 q 326 1139 238 1139 q 471 1179 417 1139 q 560 1306 525 1219 l 611 1274 q 508 1090 581 1153 q 326 1028 436 1028 z "},"ྃ":{"ha":0,"x_min":42,"x_max":611,"o":"m 326 1028 q 42 1274 106 1028 l 93 1306 q 183 1179 128 1219 q 326 1139 238 1139 q 471 1179 417 1139 q 560 1306 525 1219 l 611 1274 q 508 1090 581 1153 q 326 1028 436 1028 m 326 1536 q 432 1496 392 1536 q 472 1390 472 1456 q 432 1285 472 1325 q 326 1244 392 1244 q 222 1285 263 1244 q 181 1390 181 1325 q 222 1496 181 1456 q 326 1536 263 1536 m 326 1467 q 271 1446 292 1467 q 250 1390 250 1425 q 271 1335 250 1356 q 326 1314 292 1314 q 382 1335 361 1314 q 403 1390 403 1356 q 382 1446 403 1425 q 326 1467 361 1467 z "},"྄":{"ha":0,"x_min":42,"x_max":528,"o":"m 528 -287 l 472 -322 q 323 -199 388 -243 q 206 -138 258 -156 q 106 -121 154 -121 q 73 -122 89 -121 q 42 -126 57 -124 l 49 -4 q 111 4 76 4 q 194 -8 153 4 q 282 -50 235 -19 q 389 -138 329 -81 q 528 -287 449 -196 z "},"྆":{"ha":0,"x_min":-356,"x_max":-42,"o":"m -42 1163 q -81 1062 -42 1103 q -196 1021 -121 1021 q -310 1063 -264 1021 q -356 1176 -356 1106 q -337 1265 -356 1226 q -293 1335 -318 1303 q -249 1399 -268 1368 q -231 1465 -231 1429 q -239 1531 -231 1500 l -176 1531 q -165 1488 -169 1513 q -160 1436 -160 1464 q -174 1367 -160 1399 q -208 1307 -189 1336 q -242 1247 -228 1278 q -257 1181 -257 1217 q -237 1126 -257 1143 q -187 1108 -218 1108 q -128 1127 -147 1108 q -108 1176 -108 1146 q -108 1185 -108 1181 q -110 1196 -108 1190 l -46 1196 q -42 1181 -43 1189 q -42 1163 -42 1172 z "},"྇":{"ha":0,"x_min":-194,"x_max":-14,"o":"m -14 1515 l -58 1396 l -58 1038 l -122 1082 q -128 1219 -125 1163 q -137 1317 -132 1275 q -150 1396 -143 1358 l -194 1515 l -14 1515 z "},"ྍ":{"ha":0,"x_min":42,"x_max":785,"o":"m 97 340 l 785 340 l 757 221 l 69 221 l 97 340 m 69 -86 l 757 -86 l 729 -206 l 42 -206 l 69 -86 m 69 221 l 190 221 l 757 -86 l 636 -86 l 69 221 m 757 221 l 190 -86 l 69 -86 l 636 221 l 757 221 z "},"ྎ":{"ha":0,"x_min":63,"x_max":924,"o":"m 476 -171 q 405 64 439 -19 q 333 180 371 147 q 247 213 296 213 q 163 178 190 213 q 135 85 135 144 q 163 -11 135 21 q 238 -43 192 -43 q 307 -19 276 -43 l 324 -114 q 217 -171 289 -171 q 101 -104 140 -171 q 63 74 63 -37 q 109 267 63 193 q 254 340 156 340 q 366 298 321 340 q 445 155 411 256 q 510 -121 479 54 l 476 -121 q 541 155 507 54 q 621 298 575 256 q 732 340 667 340 q 877 267 831 340 q 924 74 924 193 q 885 -104 924 -37 q 769 -171 846 -171 q 663 -114 697 -171 l 679 -19 q 749 -43 710 -43 q 823 -11 794 -43 q 851 85 851 21 q 824 178 851 144 q 739 213 796 213 q 653 180 692 213 q 581 64 615 147 q 510 -171 547 -19 l 476 -171 z "},"ྏ":{"ha":0,"x_min":63,"x_max":924,"o":"m 510 340 q 581 106 547 189 q 653 -10 615 22 q 739 -43 692 -43 q 824 -9 796 -43 q 851 85 851 25 q 823 181 851 149 q 749 213 794 213 q 679 189 710 213 l 663 283 q 769 340 697 340 q 885 274 846 340 q 924 96 924 207 q 877 -97 924 -22 q 732 -171 831 -171 q 621 -128 667 -171 q 541 15 575 -86 q 476 290 507 115 l 510 290 q 445 15 479 115 q 366 -128 411 -86 q 254 -171 321 -171 q 109 -97 156 -171 q 63 96 63 -22 q 101 274 63 207 q 217 340 140 340 q 324 283 289 340 l 307 189 q 238 213 276 213 q 163 181 192 213 q 135 85 135 149 q 163 -9 135 25 q 247 -43 190 -43 q 333 -10 296 -43 q 405 106 371 22 q 476 340 439 189 l 510 340 z "},"ྐ":{"ha":0,"x_min":54,"x_max":860,"o":"m 860 340 l 832 221 l 832 -656 l 768 -625 q 761 -337 765 -462 q 750 -115 757 -212 q 734 63 743 -18 q 713 221 725 144 l 518 221 q 528 7 525 128 q 532 -262 532 -114 l 467 -232 q 444 19 461 -93 q 399 221 426 132 l 274 221 q 256 83 271 144 q 210 -29 240 22 q 128 -129 179 -81 l 54 -15 q 136 52 103 18 q 188 127 169 86 q 208 221 206 168 l 92 221 l 119 340 l 860 340 z "},"ྑ":{"ha":0,"x_min":89,"x_max":842,"o":"m 153 -396 l 89 -371 l 89 340 l 831 340 l 803 221 q 830 -5 819 119 q 842 -258 840 -129 l 786 -282 q 609 -156 700 -194 q 406 -118 518 -118 q 383 -119 396 -118 q 358 -121 369 -119 l 326 -81 q 385 135 351 32 q 456 322 419 239 l 572 304 q 468 131 514 224 q 393 -43 422 39 l 388 4 q 415 7 404 7 q 611 -42 518 7 q 789 -206 704 -92 l 783 -225 q 756 2 782 -112 q 688 221 731 117 l 204 221 q 184 106 193 165 q 169 -24 175 47 q 160 -186 164 -96 q 153 -396 156 -276 z "},"ྒ":{"ha":0,"x_min":56,"x_max":847,"o":"m 819 -656 l 756 -625 q 749 -337 753 -462 q 738 -115 744 -212 q 723 63 732 -18 q 701 221 714 144 l 529 221 q 553 10 544 126 q 564 -228 563 -106 l 508 -251 q 334 -136 424 -171 q 133 -101 244 -101 q 111 -102 124 -101 q 88 -104 99 -103 l 56 -64 q 115 142 81 43 q 188 322 150 242 l 304 304 q 198 140 244 228 q 122 -26 151 51 l 117 19 q 144 22 131 22 q 335 -24 243 22 q 511 -176 428 -69 l 506 -194 q 480 17 504 -89 q 414 221 456 124 l 75 221 l 103 340 l 847 340 l 819 221 l 819 -656 z "},"ྒྷ":{"ha":0,"x_min":56,"x_max":778,"o":"m 750 -229 l 686 -210 q 673 -22 681 -99 q 655 113 665 56 q 631 221 644 169 l 490 221 q 511 89 504 161 q 519 -61 518 17 l 464 -85 q 307 -30 388 -46 q 126 -14 226 -14 q 108 -15 118 -14 q 88 -17 97 -15 l 56 24 q 115 184 81 107 q 188 322 150 261 l 299 304 q 196 183 242 249 q 122 61 150 118 l 117 106 q 129 106 122 106 q 140 107 136 107 q 311 79 229 107 q 467 -14 393 51 l 463 -29 q 440 99 461 35 q 381 221 418 163 l 75 221 l 103 340 l 778 340 l 750 221 l 750 -229 m 396 -656 l 382 -594 q 497 -547 457 -568 q 551 -508 536 -526 q 565 -468 565 -489 q 535 -420 565 -437 q 447 -403 504 -403 q 352 -413 393 -403 q 282 -444 311 -424 l 246 -408 q 349 -327 290 -353 q 485 -301 408 -301 q 631 -343 579 -301 q 682 -449 682 -385 q 669 -510 682 -482 q 626 -562 657 -537 q 538 -609 594 -586 q 396 -656 482 -632 m 326 -532 q 259 -507 292 -517 q 187 -492 226 -497 q 92 -483 147 -486 l 68 -425 q 132 -290 94 -354 q 210 -174 169 -225 l 329 -192 q 215 -295 265 -239 q 136 -401 165 -351 l 118 -374 q 268 -415 210 -383 q 382 -519 326 -447 l 326 -532 m 131 -228 l 158 -110 l 640 -110 l 613 -228 l 131 -228 z "},"ྔ":{"ha":0,"x_min":58,"x_max":840,"o":"m 779 -451 q 670 -328 719 -378 q 573 -250 621 -279 q 471 -208 525 -221 q 349 -196 417 -196 q 225 -202 293 -196 q 100 -219 157 -208 l 58 -168 q 106 71 78 -43 q 164 278 133 185 l 276 260 q 185 63 225 169 q 121 -135 144 -43 l 119 -99 q 219 -76 165 -83 q 318 -69 272 -69 q 467 -89 400 -69 q 593 -151 533 -108 q 713 -264 653 -194 q 840 -435 772 -333 l 779 -451 m 89 221 l 117 340 l 740 340 l 713 221 l 89 221 z "},"ྕ":{"ha":0,"x_min":14,"x_max":758,"o":"m 429 288 q 460 211 453 251 q 468 128 468 171 q 449 35 468 74 l 426 76 q 476 100 447 92 q 540 108 504 108 q 701 48 643 108 q 758 -111 758 -12 q 721 -251 758 -192 q 619 -343 683 -311 q 472 -375 554 -375 q 331 -347 389 -375 q 233 -272 274 -319 q 158 -165 192 -224 q 92 -42 125 -106 q 14 81 58 21 l 61 111 q 167 28 115 56 q 281 0 218 0 q 374 30 340 0 q 407 111 407 60 q 389 195 407 154 q 326 275 371 236 l 429 288 m 521 -11 q 457 -19 486 -11 q 401 -35 428 -26 q 344 -52 374 -44 q 279 -60 315 -60 q 249 -58 264 -60 q 224 -51 235 -56 l 221 -57 q 312 -178 269 -124 q 403 -265 354 -233 q 521 -297 453 -297 q 634 -256 590 -297 q 678 -147 678 -215 q 640 -49 678 -86 q 521 -11 601 -11 m 736 340 l 708 221 l 121 221 l 149 340 l 736 340 z "},"ྖ":{"ha":0,"x_min":42,"x_max":878,"o":"m 260 -369 q 102 -306 163 -369 q 42 -128 42 -243 q 97 44 42 -22 q 261 111 151 111 q 371 88 322 111 q 460 11 419 64 q 549 88 500 64 q 658 111 599 111 q 823 44 768 111 q 878 -128 878 -22 q 817 -306 878 -243 q 660 -369 757 -369 q 537 -334 586 -369 q 463 -239 488 -299 q 438 -106 438 -179 l 482 -106 q 457 -239 482 -179 q 383 -334 432 -299 q 260 -369 333 -369 m 257 -256 q 385 -210 340 -256 q 429 -68 429 -165 l 429 -47 l 490 -47 l 490 -68 q 535 -210 490 -165 q 663 -256 579 -256 q 774 -224 732 -256 q 815 -128 815 -192 q 781 -43 815 -75 q 665 -11 747 -11 q 554 -34 603 -11 q 460 -106 506 -57 q 365 -34 414 -57 q 254 -11 317 -11 q 139 -43 174 -11 q 104 -128 104 -75 q 146 -224 104 -192 q 257 -256 188 -256 m 429 -10 l 429 42 q 422 143 429 100 q 402 219 415 186 q 367 282 389 253 l 478 282 q 485 221 482 254 q 489 144 488 188 q 490 42 490 101 l 490 -10 l 429 -10 m 149 221 l 176 340 l 800 340 l 772 221 l 149 221 z "},"ྗ":{"ha":0,"x_min":29,"x_max":868,"o":"m 161 278 l 274 260 q 167 27 214 151 q 90 -207 119 -97 l 81 -175 q 219 -152 144 -160 q 358 -144 294 -144 q 553 -177 469 -144 q 710 -283 636 -210 q 868 -481 785 -357 l 807 -493 q 669 -359 732 -407 q 538 -291 607 -311 q 374 -271 469 -271 q 220 -278 306 -271 q 64 -297 135 -285 l 29 -247 q 89 35 54 -99 q 161 278 124 168 m 690 94 l 663 -25 l 132 -25 l 138 94 l 690 94 m 768 340 l 740 221 l 89 221 l 117 340 l 768 340 z "},"ྙ":{"ha":0,"x_min":50,"x_max":701,"o":"m 369 -579 l 344 -531 q 490 -361 439 -431 q 562 -241 542 -292 q 582 -147 582 -190 q 525 -23 582 -69 q 365 24 468 24 q 248 -3 285 24 q 211 -74 211 -29 q 249 -140 211 -111 q 364 -187 286 -168 l 289 -275 q 167 -212 213 -254 q 122 -104 122 -171 q 156 -2 122 -49 q 254 73 190 44 q 410 101 318 101 q 560 74 494 101 q 664 -4 626 47 q 701 -126 701 -56 q 667 -258 701 -192 q 560 -402 633 -325 q 369 -579 488 -479 m 78 26 q 56 70 63 49 q 50 118 50 92 q 92 238 50 182 q 213 340 133 294 l 192 276 q 151 233 167 263 q 135 167 135 203 q 156 104 135 136 l 78 26 m 547 35 l 503 54 q 531 103 522 78 q 539 153 539 128 q 457 281 539 229 l 549 329 q 601 265 582 303 q 619 186 619 228 q 601 107 619 146 q 547 35 583 68 m 142 221 l 213 340 l 629 340 l 601 221 l 142 221 z "},"ྚ":{"ha":0,"x_min":75,"x_max":715,"o":"m 424 -658 q 268 -499 332 -568 q 166 -373 204 -429 q 110 -265 128 -317 q 93 -161 93 -214 q 165 2 93 -57 q 351 61 238 61 q 513 20 443 61 q 622 -103 583 -21 l 615 -162 q 510 -81 568 -107 q 383 -54 453 -54 q 253 -93 299 -54 q 207 -197 207 -132 q 219 -273 207 -235 q 260 -359 231 -311 q 342 -472 290 -407 q 472 -628 393 -537 l 424 -658 m 600 -267 q 597 22 600 -115 q 589 268 593 158 l 715 340 q 694 130 704 242 q 676 -94 685 18 q 663 -306 668 -206 l 600 -267 m 688 218 l 75 218 l 103 340 l 715 340 l 688 218 z "},"ྛ":{"ha":0,"x_min":89,"x_max":825,"o":"m 89 -490 l 89 340 l 608 340 l 668 221 l 208 221 q 164 -89 179 76 q 149 -437 149 -254 l 153 -504 l 89 -490 m 153 -504 l 125 -458 q 252 -317 190 -367 q 383 -247 314 -267 q 542 -228 453 -228 q 656 -233 597 -228 q 769 -249 715 -237 l 753 -285 q 667 -188 719 -240 q 542 -90 615 -136 l 628 -19 q 734 -155 682 -79 q 825 -312 786 -231 l 783 -368 q 648 -354 707 -358 q 513 -350 589 -350 q 378 -362 436 -350 q 266 -408 319 -375 q 153 -504 213 -442 m 519 -103 q 387 -83 453 -103 q 265 -27 321 -62 q 171 56 208 8 l 182 118 q 322 43 246 68 q 496 18 399 18 q 638 56 593 18 q 682 153 682 93 q 660 221 682 192 q 600 265 638 250 l 608 340 q 722 242 682 299 q 761 103 761 185 q 733 -2 761 44 q 650 -76 704 -49 q 519 -103 596 -103 m 153 -476 l 153 -490 l 89 -490 l 89 -476 l 153 -476 z "},"ྜ":{"ha":0,"x_min":42,"x_max":774,"o":"m 42 -615 q 72 -312 50 -432 q 138 -124 94 -192 q 254 -29 181 -57 q 438 -1 328 -1 q 574 -7 503 -1 q 708 -24 644 -12 l 708 -67 q 640 97 682 10 q 539 260 599 183 l 653 278 q 719 100 688 199 q 774 -106 751 1 l 725 -150 q 582 -134 657 -139 q 442 -129 507 -129 q 285 -151 346 -129 q 190 -231 225 -174 q 137 -390 156 -287 q 106 -654 118 -493 l 42 -615 m 90 221 l 118 340 l 742 340 l 714 221 l 90 221 z "},"ྜྷ":{"ha":0,"x_min":42,"x_max":731,"o":"m 42 -199 q 97 -20 58 -89 q 212 81 135 49 q 424 114 289 114 q 542 108 481 114 q 656 93 604 103 l 665 50 q 594 155 638 99 q 489 260 550 211 l 603 278 q 673 154 639 224 q 731 11 707 85 l 682 -33 q 547 -18 621 -24 q 413 -12 474 -12 q 242 -34 303 -12 q 151 -106 181 -56 q 106 -243 121 -157 l 42 -199 m 89 221 l 117 340 l 699 340 l 671 221 l 89 221 m 422 -660 l 407 -600 q 519 -544 481 -568 q 573 -499 558 -519 q 588 -456 588 -478 q 558 -405 588 -424 q 474 -386 529 -386 q 381 -397 421 -386 q 314 -429 342 -408 l 278 -393 q 378 -312 322 -337 q 511 -286 435 -286 q 653 -328 601 -286 q 704 -436 704 -371 q 692 -500 704 -471 q 648 -555 679 -529 q 562 -606 617 -581 q 422 -660 507 -632 m 354 -519 q 256 -483 303 -494 q 128 -467 208 -472 l 104 -408 q 167 -271 131 -336 q 244 -154 204 -206 l 364 -172 q 251 -278 301 -221 q 172 -385 201 -335 l 154 -357 q 258 -381 214 -364 q 338 -427 301 -397 q 410 -507 375 -457 l 354 -519 m 167 -208 l 193 -90 l 661 -90 l 635 -208 l 167 -208 z "},"ྞ":{"ha":0,"x_min":56,"x_max":796,"o":"m 321 296 l 438 279 q 338 132 375 211 q 301 -37 301 53 q 361 -195 301 -143 q 519 -247 421 -247 q 645 -215 604 -247 q 686 -128 686 -183 q 637 -40 686 -72 q 492 -7 588 -7 q 354 -32 414 -7 q 250 -126 294 -57 q 174 -322 206 -194 q 119 -656 143 -450 l 56 -611 q 108 -242 74 -385 q 193 -21 142 -99 q 315 87 244 57 q 478 117 386 117 q 694 56 619 117 q 768 -107 768 -6 q 741 -212 768 -165 q 659 -285 714 -258 q 519 -312 604 -312 q 306 -237 386 -312 q 226 -26 226 -161 q 252 149 226 64 q 321 296 278 233 m 796 340 l 768 221 l 86 221 l 114 340 l 796 340 z "},"ྟ":{"ha":0,"x_min":89,"x_max":715,"o":"m 346 -656 l 322 -599 q 453 -437 403 -504 q 531 -321 504 -369 q 569 -235 558 -272 q 579 -164 579 -197 q 537 -56 579 -94 q 415 -17 494 -17 q 292 -39 347 -17 q 189 -108 238 -61 l 185 -53 q 294 57 225 21 q 450 93 363 93 q 628 35 560 93 q 696 -131 696 -24 q 678 -233 696 -182 q 622 -344 661 -285 q 515 -480 582 -404 q 346 -656 447 -556 m 206 -217 l 142 -181 q 128 -10 136 -100 q 110 170 119 81 q 89 340 100 260 l 217 271 q 209 45 213 169 q 206 -217 206 -79 m 115 221 l 89 340 l 715 340 l 688 221 l 115 221 z "},"ྠ":{"ha":0,"x_min":14,"x_max":778,"o":"m 750 -504 l 686 -490 l 690 -424 q 675 -83 690 -244 q 631 221 660 78 l 171 221 l 231 340 l 778 340 l 750 221 l 750 -504 m 686 -490 q 574 -403 626 -433 q 462 -361 521 -372 q 326 -350 403 -350 q 192 -354 250 -350 q 57 -368 133 -358 l 14 -312 q 106 -155 54 -231 q 211 -19 157 -79 l 297 -90 q 172 -188 224 -136 q 86 -285 119 -240 l 69 -249 q 183 -233 124 -237 q 297 -228 242 -228 q 456 -247 386 -228 q 587 -312 525 -265 q 714 -444 649 -360 l 686 -490 m 319 -103 q 189 -76 243 -103 q 106 -2 135 -49 q 78 103 78 44 q 117 242 78 185 q 231 340 157 299 l 239 265 q 180 221 203 250 q 157 153 157 192 q 201 56 157 93 q 343 18 246 18 q 517 43 440 18 q 657 118 593 68 l 668 56 q 574 -27 631 8 q 453 -83 518 -62 q 319 -103 388 -103 m 686 -476 l 750 -476 l 750 -490 l 686 -490 l 686 -476 z "},"ྡ":{"ha":0,"x_min":44,"x_max":775,"o":"m 165 278 l 279 260 q 179 100 221 186 q 110 -60 138 14 l 110 -22 q 249 -6 176 -11 q 390 0 322 0 q 574 -30 501 0 q 689 -133 647 -60 q 750 -333 731 -206 q 775 -654 769 -460 l 711 -617 q 688 -408 701 -494 q 653 -267 675 -322 q 596 -179 631 -211 q 508 -135 561 -147 q 376 -122 454 -122 q 238 -128 313 -122 q 93 -143 163 -133 l 44 -99 q 100 103 68 6 q 165 278 132 201 m 740 340 l 713 221 l 89 221 l 117 340 l 740 340 z "},"ྡྷ":{"ha":0,"x_min":44,"x_max":775,"o":"m 175 278 l 289 260 q 182 160 226 214 q 110 61 138 107 l 119 90 q 258 103 183 99 q 400 108 332 108 q 589 90 515 108 q 703 37 663 71 q 759 -44 743 3 q 775 -146 775 -90 l 711 -115 q 687 -64 703 -85 q 637 -30 671 -43 q 543 -10 603 -17 q 388 -4 483 -4 q 242 -9 322 -4 q 93 -22 161 -14 l 44 22 q 103 160 68 93 q 175 278 139 226 m 740 340 l 713 221 l 89 221 l 117 340 l 740 340 m 429 -656 l 414 -596 q 533 -531 492 -558 q 589 -480 574 -503 q 604 -433 604 -457 q 574 -379 604 -399 q 485 -360 543 -360 q 390 -371 431 -360 q 321 -404 350 -382 l 285 -367 q 388 -285 329 -311 q 522 -258 446 -258 q 669 -301 617 -258 q 721 -412 721 -344 q 708 -478 721 -447 q 663 -537 694 -508 q 574 -594 631 -565 q 429 -656 517 -624 m 365 -496 q 298 -467 331 -478 q 226 -450 265 -457 q 131 -440 186 -443 l 107 -382 q 170 -242 133 -308 q 249 -124 207 -176 l 368 -142 q 254 -249 304 -192 q 175 -358 204 -307 l 157 -329 q 264 -353 218 -336 q 347 -402 310 -371 q 421 -483 385 -433 l 365 -496 m 168 -178 l 196 -60 l 678 -60 l 650 -178 l 168 -178 z "},"ྣ":{"ha":0,"x_min":56,"x_max":796,"o":"m 500 296 q 570 148 543 233 q 597 -26 597 63 q 517 -237 597 -161 q 304 -312 438 -312 q 165 -285 221 -312 q 83 -212 110 -258 q 56 -107 56 -165 q 131 56 56 -6 q 350 117 207 117 q 530 81 453 117 q 658 -40 607 46 q 737 -276 710 -126 q 768 -656 764 -426 l 704 -611 q 663 -307 690 -425 q 591 -124 635 -189 q 485 -33 547 -58 q 338 -7 422 -7 q 189 -40 239 -7 q 139 -128 139 -72 q 179 -215 139 -183 q 304 -247 219 -247 q 463 -195 403 -247 q 522 -37 522 -143 q 485 132 522 53 q 386 279 449 211 l 500 296 m 796 340 l 768 221 l 86 221 l 114 340 l 796 340 z "},"ྤ":{"ha":0,"x_min":44,"x_max":829,"o":"m 738 -368 q 610 -225 671 -275 q 480 -156 549 -175 q 318 -137 411 -137 q 207 -142 268 -137 q 93 -156 146 -147 l 44 -111 q 99 99 67 -3 q 164 281 131 200 l 278 263 q 178 96 219 186 q 110 -72 136 6 l 107 -36 q 197 -21 147 -26 q 289 -15 246 -15 q 474 -42 394 -15 q 624 -135 554 -69 q 765 -318 693 -200 l 738 -368 m 738 -368 l 738 -354 l 801 -354 l 801 -368 l 738 -368 m 89 221 l 117 340 l 375 340 l 347 221 l 89 221 m 801 -382 l 738 -368 l 747 -300 q 725 -17 742 -151 q 685 221 708 118 l 626 221 l 654 340 l 829 340 l 801 221 l 801 -382 z "},"ྥ":{"ha":0,"x_min":44,"x_max":829,"o":"m 738 -368 q 610 -225 671 -275 q 480 -156 549 -175 q 318 -137 411 -137 q 207 -142 268 -137 q 93 -156 146 -147 l 44 -111 q 99 99 67 -3 q 164 281 131 200 l 278 263 q 178 96 219 186 q 110 -72 136 6 l 119 -33 q 204 -20 158 -25 q 289 -15 250 -15 q 474 -42 394 -15 q 624 -135 554 -69 q 765 -318 693 -200 l 738 -368 m 738 -368 l 738 -354 l 801 -354 l 801 -368 l 738 -368 m 89 221 l 117 340 l 375 340 l 347 221 l 89 221 m 413 -78 l 365 -37 q 515 109 431 43 q 693 219 600 175 l 710 160 q 547 55 625 118 q 413 -78 468 -8 m 801 -382 l 738 -368 l 747 -300 q 725 -17 742 -151 q 685 221 708 118 l 626 221 l 654 340 l 829 340 l 801 221 l 801 -382 z "},"ྦ":{"ha":0,"x_min":44,"x_max":829,"o":"m 829 340 l 801 221 l 801 -382 l 738 -368 l 747 -300 q 725 -17 742 -151 q 685 221 708 118 l 89 221 l 117 340 l 829 340 m 164 281 l 278 263 q 178 96 219 186 q 110 -72 136 6 l 119 -33 q 204 -20 158 -25 q 289 -15 250 -15 q 474 -42 394 -15 q 624 -135 554 -69 q 765 -318 693 -200 l 738 -368 q 610 -225 671 -275 q 480 -156 549 -175 q 318 -137 411 -137 q 207 -142 268 -137 q 93 -156 146 -147 l 44 -111 q 99 99 67 -3 q 164 281 131 200 m 738 -354 l 801 -354 l 801 -368 l 738 -368 l 738 -354 z "},"ྦྷ":{"ha":0,"x_min":44,"x_max":801,"o":"m 801 340 l 774 221 l 774 -104 l 710 -90 l 719 -39 q 700 102 714 35 q 664 221 686 169 l 89 221 l 117 340 l 801 340 m 172 290 l 286 272 q 181 172 225 225 q 110 71 138 118 l 119 96 q 201 109 157 104 q 282 114 244 114 q 459 99 382 114 q 603 49 536 85 q 738 -47 669 14 l 710 -90 q 588 -32 646 -53 q 464 -3 531 -11 q 308 6 397 6 q 202 1 261 6 q 93 -12 143 -4 l 44 32 q 103 169 68 103 q 172 290 138 236 m 710 -76 l 774 -76 l 774 -90 l 710 -90 l 710 -76 m 403 -656 l 388 -596 q 508 -528 467 -557 q 564 -476 549 -500 q 579 -429 579 -453 q 549 -375 579 -394 q 460 -356 518 -356 q 365 -367 406 -356 q 296 -399 325 -378 l 260 -362 q 363 -280 304 -306 q 497 -254 421 -254 q 643 -297 590 -254 q 696 -408 696 -340 q 683 -475 696 -444 q 638 -535 669 -506 q 548 -593 606 -564 q 403 -656 490 -622 m 340 -492 q 273 -462 306 -474 q 201 -444 240 -451 q 106 -435 161 -437 l 82 -376 q 145 -237 108 -303 q 224 -118 182 -171 l 343 -136 q 229 -244 279 -186 q 150 -353 179 -301 l 132 -325 q 239 -349 193 -332 q 322 -397 285 -365 q 396 -479 360 -428 l 340 -492 m 143 -172 l 171 -54 l 653 -54 l 625 -172 l 143 -172 z "},"ྨ":{"ha":0,"x_min":46,"x_max":872,"o":"m 781 -396 q 610 -207 682 -281 q 483 -92 539 -133 q 378 -34 428 -50 q 275 -18 329 -18 q 164 -49 201 -18 q 126 -135 126 -79 q 159 -217 126 -186 q 250 -247 192 -247 q 367 -198 322 -247 q 413 -51 413 -149 q 373 133 413 46 q 267 293 333 221 l 381 310 q 460 150 431 242 q 490 -37 490 58 q 426 -240 490 -168 q 250 -311 361 -311 q 137 -284 182 -311 q 69 -212 92 -257 q 46 -112 46 -167 q 106 48 46 -11 q 279 107 167 107 q 399 83 342 107 q 518 7 457 60 q 650 -133 579 -46 q 810 -346 721 -219 l 781 -396 m 781 -396 l 781 -382 l 844 -382 l 844 -396 l 781 -396 m 88 221 l 114 340 l 542 340 l 514 221 l 88 221 m 844 -410 l 781 -396 l 790 -325 q 768 -28 785 -169 q 728 221 751 114 l 672 221 l 700 340 l 872 340 l 844 221 l 844 -410 z "},"ྩ":{"ha":0,"x_min":14,"x_max":943,"o":"m 429 288 q 460 211 453 251 q 468 128 468 171 q 449 35 468 74 l 426 76 q 476 100 447 92 q 540 108 504 108 q 701 48 643 108 q 758 -111 758 -12 q 721 -251 758 -192 q 619 -343 683 -311 q 472 -375 554 -375 q 331 -347 389 -375 q 233 -272 274 -319 q 158 -165 192 -224 q 92 -42 125 -106 q 14 81 58 21 l 61 111 q 167 28 115 56 q 281 0 218 0 q 374 30 340 0 q 407 111 407 60 q 389 195 407 154 q 326 275 371 236 l 429 288 m 521 -11 q 457 -19 486 -11 q 401 -35 428 -26 q 344 -52 374 -44 q 279 -60 315 -60 q 249 -58 264 -60 q 224 -51 235 -56 l 221 -57 q 312 -178 269 -124 q 403 -265 354 -233 q 521 -297 453 -297 q 634 -256 590 -297 q 678 -147 678 -215 q 640 -49 678 -86 q 521 -11 601 -11 m 736 340 l 708 221 l 121 221 l 149 340 l 736 340 m 693 340 q 701 538 701 432 q 845 549 789 538 q 943 581 901 560 l 929 482 q 850 442 893 457 q 753 424 807 426 q 746 381 750 403 q 736 340 742 360 l 693 340 z "},"ྪ":{"ha":0,"x_min":42,"x_max":1007,"o":"m 260 -369 q 102 -306 163 -369 q 42 -128 42 -243 q 97 44 42 -22 q 261 111 151 111 q 371 88 322 111 q 460 11 419 64 q 549 88 500 64 q 658 111 599 111 q 823 44 768 111 q 878 -128 878 -22 q 817 -306 878 -243 q 660 -369 757 -369 q 537 -334 586 -369 q 463 -239 488 -299 q 438 -106 438 -179 l 482 -106 q 457 -239 482 -179 q 383 -334 432 -299 q 260 -369 333 -369 m 257 -256 q 385 -210 340 -256 q 429 -68 429 -165 l 429 -47 l 490 -47 l 490 -68 q 535 -210 490 -165 q 663 -256 579 -256 q 774 -224 732 -256 q 815 -128 815 -192 q 781 -43 815 -75 q 665 -11 747 -11 q 554 -34 603 -11 q 460 -106 506 -57 q 365 -34 414 -57 q 254 -11 317 -11 q 139 -43 174 -11 q 104 -128 104 -75 q 146 -224 104 -192 q 257 -256 188 -256 m 429 -10 l 429 42 q 422 143 429 100 q 402 219 415 186 q 367 282 389 253 l 478 282 q 485 221 482 254 q 489 144 488 188 q 490 42 490 101 l 490 -10 l 429 -10 m 149 221 l 176 340 l 800 340 l 772 221 l 149 221 m 757 340 q 765 538 765 432 q 909 549 853 538 q 1007 581 965 560 l 993 482 q 914 442 957 457 q 817 424 871 426 q 810 381 814 403 q 800 340 806 360 l 757 340 z "},"ྫ":{"ha":0,"x_min":29,"x_max":975,"o":"m 161 278 l 274 260 q 167 27 214 151 q 90 -207 119 -97 l 81 -175 q 219 -152 144 -160 q 358 -144 294 -144 q 553 -177 469 -144 q 710 -283 636 -210 q 868 -481 785 -357 l 807 -493 q 669 -359 732 -407 q 538 -291 607 -311 q 374 -271 469 -271 q 220 -278 306 -271 q 64 -297 135 -285 l 29 -247 q 89 35 54 -99 q 161 278 124 168 m 690 94 l 663 -25 l 132 -25 l 138 94 l 690 94 m 768 340 l 740 221 l 89 221 l 117 340 l 768 340 m 725 340 q 733 538 733 432 q 877 549 821 538 q 975 581 933 560 l 961 482 q 882 442 925 457 q 785 424 839 426 q 778 381 782 403 q 768 340 774 360 l 725 340 z "},"ྫྷ":{"ha":0,"x_min":29,"x_max":975,"o":"m 161 278 l 274 260 q 167 105 214 188 q 90 -53 119 22 l 81 -37 q 214 -18 142 -24 q 347 -12 286 -12 q 546 -32 461 -12 q 706 -94 631 -51 q 868 -210 782 -137 l 815 -229 q 671 -162 736 -186 q 534 -127 606 -137 q 363 -117 463 -117 q 215 -124 296 -117 q 64 -143 133 -131 l 29 -93 q 89 108 54 14 q 161 278 124 201 m 688 160 l 665 63 l 113 63 l 135 160 l 688 160 m 768 340 l 746 243 l 89 243 l 111 340 l 768 340 m 725 340 q 733 538 733 432 q 877 549 821 538 q 975 581 933 560 l 961 482 q 882 442 925 457 q 785 424 839 426 q 778 381 782 403 q 768 340 774 360 l 725 340 m 472 -840 l 456 -781 q 607 -714 556 -742 q 677 -663 658 -686 q 696 -618 696 -640 q 658 -562 696 -582 q 547 -543 621 -543 q 430 -553 479 -543 q 344 -585 381 -564 l 308 -549 q 428 -467 361 -493 q 583 -440 494 -440 q 754 -485 694 -440 q 814 -597 814 -529 q 799 -662 814 -632 q 748 -721 785 -693 q 644 -778 711 -749 q 472 -840 578 -807 m 418 -679 q 334 -651 375 -661 q 244 -633 293 -640 q 125 -624 194 -626 l 101 -565 q 168 -425 129 -492 q 250 -306 207 -358 l 369 -324 q 253 -431 306 -374 q 171 -540 201 -489 l 151 -512 q 282 -536 226 -519 q 383 -584 338 -553 q 474 -667 429 -615 l 418 -679 m 164 -362 l 192 -243 l 771 -243 l 743 -362 l 164 -362 z "},"ྭ":{"ha":0,"x_min":56,"x_max":422,"o":"m 372 15 q 279 -19 329 4 q 183 -72 229 -43 q 106 -129 138 -101 l 107 -94 l 163 -64 q 240 -126 197 -86 q 322 -210 282 -165 q 390 -297 363 -256 l 390 -339 l 358 -339 l 358 397 l 422 397 l 422 -362 l 358 -349 q 214 -233 293 -286 q 56 -140 135 -179 l 56 -83 q 144 -19 90 -53 q 259 42 199 14 q 372 83 319 69 l 372 15 z "},"ྮ":{"ha":0,"x_min":56,"x_max":819,"o":"m 642 335 q 705 207 682 282 q 728 54 728 132 q 695 -101 728 -36 q 604 -201 663 -167 q 465 -235 546 -235 q 356 -211 400 -235 q 289 -148 311 -187 q 267 -60 267 -108 q 325 75 267 24 q 490 126 383 126 q 626 93 565 126 q 729 -25 686 60 q 796 -262 772 -110 q 819 -656 819 -415 l 756 -618 q 722 -296 746 -419 q 663 -106 699 -172 q 581 -15 628 -40 q 476 10 533 10 q 383 -14 414 10 q 351 -79 351 -37 q 381 -145 351 -119 q 468 -171 410 -171 q 600 -120 550 -171 q 650 32 650 -69 q 613 186 650 113 q 513 321 576 260 l 642 335 m 274 340 l 257 251 q 178 152 208 217 q 149 4 149 88 q 175 -131 149 -71 q 257 -251 201 -190 l 174 -339 q 82 -197 108 -268 q 56 -50 56 -125 q 81 100 56 26 q 156 236 107 174 q 274 340 204 299 m 710 340 l 682 231 l 210 231 l 274 340 l 710 340 z "},"ྯ":{"ha":0,"x_min":38,"x_max":701,"o":"m 674 -382 l 610 -368 l 619 -312 q 599 -33 614 -168 q 560 221 583 101 l 61 221 l 89 340 l 701 340 l 674 221 l 674 -382 m 610 -368 q 482 -285 540 -315 q 365 -243 424 -256 q 236 -231 307 -231 q 138 -236 189 -231 q 38 -251 86 -242 l 65 -131 q 149 -117 106 -121 q 233 -112 193 -112 q 385 -135 317 -112 q 521 -210 454 -158 q 661 -351 588 -262 l 610 -368 m 610 -368 l 610 -354 l 674 -354 l 674 -368 l 610 -368 m 611 -68 q 508 -19 568 -33 q 349 -4 447 -4 l 96 -4 l 125 110 l 374 110 q 522 91 463 110 q 611 35 581 72 l 611 -68 z "},"ྰ":{"ha":0,"x_min":57,"x_max":778,"o":"m 418 0 q 552 -31 494 0 q 663 -136 610 -62 q 778 -337 715 -210 l 719 -351 q 615 -215 664 -264 q 513 -145 565 -165 q 393 -125 461 -125 q 355 -127 375 -125 q 317 -135 335 -129 l 331 -10 q 372 -2 350 -4 q 418 0 394 0 m 242 340 l 215 251 q 167 185 185 228 q 149 85 149 142 q 165 -8 149 33 q 214 -93 181 -49 l 129 -181 q 74 -77 90 -129 q 57 29 57 -25 q 105 205 57 119 q 242 340 153 290 m 582 340 q 644 246 622 301 q 667 128 667 190 q 575 -93 667 7 l 540 -72 q 574 -5 564 -40 q 583 65 583 31 q 561 181 583 131 q 490 276 539 232 l 582 340 m 676 340 l 649 221 l 172 221 l 242 340 l 676 340 z "},"ྱ":{"ha":0,"x_min":56,"x_max":958,"o":"m 824 171 l 849 140 l 849 121 q 671 -38 757 8 q 485 -85 585 -85 q 310 -49 390 -85 q 140 61 231 -12 l 132 57 q 228 -109 178 -42 q 339 -210 278 -176 q 479 -243 400 -243 q 577 -230 531 -243 q 674 -185 624 -217 q 790 -97 725 -153 q 946 43 856 -42 l 958 -32 q 809 -188 874 -124 q 690 -293 744 -253 q 586 -353 636 -333 q 479 -372 536 -372 q 307 -326 381 -372 q 174 -177 233 -281 q 56 97 114 -74 l 133 126 q 319 19 239 49 q 485 -11 399 -11 q 656 31 574 -11 q 824 171 738 72 m 785 238 l 849 238 l 849 126 l 785 85 l 785 238 z "},"ྲ":{"ha":0,"x_min":42,"x_max":753,"o":"m 168 132 q 300 117 236 132 q 432 64 364 101 q 578 -41 500 26 q 753 -211 656 -108 l 753 -242 l 689 -228 q 532 -108 601 -156 q 403 -35 463 -61 q 288 2 344 -8 q 171 13 232 13 q 42 -1 97 13 l 56 118 q 168 132 101 132 m 753 204 l 753 -225 l 689 -225 l 689 204 l 753 204 z "},"ླ":{"ha":0,"x_min":57,"x_max":864,"o":"m 421 -3 q 564 -37 501 -3 q 683 -144 626 -71 q 800 -333 739 -217 l 772 -382 q 644 -226 701 -282 q 528 -149 586 -171 q 399 -126 469 -126 q 355 -130 379 -126 q 310 -140 331 -133 l 324 -17 q 421 -3 365 -3 m 243 340 l 232 271 q 170 194 193 244 q 147 78 147 143 q 167 -29 147 18 q 229 -124 188 -76 l 149 -212 q 78 -99 99 -157 q 57 31 57 -42 q 106 205 57 121 q 243 340 154 289 m 469 338 q 525 244 506 299 q 544 129 544 190 q 530 22 544 74 q 488 -75 515 -29 l 438 -64 q 460 5 453 -31 q 467 76 467 40 q 447 185 467 138 q 382 275 426 233 l 469 338 m 549 340 l 521 221 l 176 221 l 243 340 l 549 340 m 782 -314 q 762 -23 776 -161 q 726 221 747 115 l 674 221 l 701 340 l 864 340 l 836 221 l 836 -396 l 772 -382 l 782 -314 m 772 -368 l 836 -368 l 836 -382 l 772 -382 l 772 -368 z "},"ྴ":{"ha":0,"x_min":-28,"x_max":760,"o":"m 760 340 l 732 219 l 732 -656 l 668 -625 q 662 -338 665 -462 q 653 -116 658 -214 q 640 63 647 -18 q 621 219 632 143 l 410 219 q 256 176 308 219 q 204 67 204 133 q 253 -47 204 -3 q 400 -90 301 -90 q 540 -64 472 -90 q 663 21 607 -37 l 671 -25 q 547 -162 619 -112 q 388 -211 474 -211 q 273 -181 317 -211 q 208 -104 229 -151 l 203 -104 l 203 -297 l 144 -281 l 144 60 q 179 203 144 140 q 279 303 214 267 q 436 340 344 340 l 760 340 m 268 -396 q 147 -319 204 -342 q 25 -296 90 -296 q -2 -297 13 -296 q -28 -301 -17 -299 l -15 -176 q 8 -172 -4 -174 q 29 -171 19 -171 q 178 -219 108 -171 q 326 -381 247 -267 l 268 -396 z "},"ྵ":{"ha":0,"x_min":89,"x_max":824,"o":"m 153 -656 l 89 -621 l 89 340 l 369 340 q 523 303 460 340 q 619 203 586 267 q 653 60 653 139 l 653 -286 l 592 -290 l 592 -103 l 586 -103 q 519 -181 564 -150 q 404 -212 474 -212 q 268 -168 332 -212 q 161 -43 204 -124 l 161 14 q 269 -66 210 -42 q 392 -90 328 -90 q 542 -47 493 -90 q 592 68 592 -3 q 542 178 592 135 q 397 221 493 221 l 206 221 q 183 53 193 140 q 167 -137 174 -33 q 158 -367 161 -240 q 153 -656 154 -494 m 529 -396 l 472 -382 q 616 -222 547 -269 q 765 -174 685 -174 q 789 -175 776 -174 q 811 -179 801 -176 l 824 -303 q 798 -299 813 -300 q 771 -297 783 -297 q 649 -319 706 -297 q 529 -396 592 -342 z "},"ྶ":{"ha":0,"x_min":46,"x_max":835,"o":"m 342 283 q 504 90 425 193 q 651 -119 583 -12 q 764 -328 718 -225 l 743 -396 q 505 -63 633 -218 q 239 210 376 92 l 342 283 m 229 278 l 322 261 l 322 218 q 203 101 258 163 q 117 -18 149 39 l 108 17 q 288 -92 207 -22 q 436 -267 369 -161 l 382 -283 q 235 -172 314 -218 q 68 -104 157 -125 l 46 -47 q 129 128 81 43 q 229 278 178 213 m 521 340 l 493 221 l 74 221 l 101 340 l 521 340 m 807 -382 l 807 -396 l 743 -396 l 743 -382 l 807 -382 m 835 340 l 807 221 l 807 -410 l 743 -396 l 753 -325 q 730 -28 747 -169 q 688 221 713 114 l 632 221 l 660 340 l 835 340 z "},"ྷ":{"ha":0,"x_min":26,"x_max":694,"o":"m 336 -656 l 313 -599 q 449 -433 396 -503 q 530 -313 501 -364 q 569 -223 558 -262 q 579 -146 579 -183 q 540 -47 579 -81 q 428 -14 501 -14 q 329 -28 372 -14 q 257 -71 286 -43 l 221 -28 q 328 62 268 33 q 467 90 388 90 q 634 35 574 90 q 694 -115 694 -21 q 678 -223 694 -169 q 624 -338 663 -276 q 515 -477 585 -400 q 336 -656 444 -554 m 318 -207 q 240 -147 278 -171 q 158 -110 203 -124 q 50 -89 114 -96 l 26 -31 q 92 134 54 56 q 171 275 129 213 l 290 257 q 175 125 226 196 q 93 -8 124 54 l 76 26 q 197 -8 146 17 q 290 -76 247 -32 q 372 -193 332 -121 l 318 -207 m 88 224 l 115 340 l 653 340 l 625 224 l 88 224 z "},"ྸ":{"ha":0,"x_min":61,"x_max":1051,"o":"m 581 285 q 726 91 653 194 q 865 -120 799 -12 q 979 -332 931 -228 l 960 -396 q 804 -179 885 -286 q 641 24 724 -72 q 475 197 558 121 l 581 285 m 758 340 l 731 221 l 324 221 l 351 340 l 758 340 m 969 -325 q 948 -28 964 -169 q 908 221 932 114 l 849 221 l 876 340 l 1051 340 l 1024 221 l 1024 -410 l 960 -396 l 969 -325 m 960 -382 l 1024 -382 l 1024 -396 l 960 -396 l 960 -382 m 253 340 q 173 173 201 257 q 144 7 144 89 q 212 -180 144 -124 q 386 -236 279 -236 q 494 -212 460 -236 q 529 -153 529 -189 q 494 -94 529 -115 q 386 -72 458 -72 q 348 -74 367 -72 q 313 -81 329 -76 l 269 -35 q 351 133 301 51 q 456 278 401 214 l 564 260 l 550 217 q 431 115 486 169 q 344 13 376 61 l 331 36 q 379 44 354 44 q 533 -2 474 44 q 593 -142 593 -49 q 530 -298 593 -239 q 364 -357 467 -357 q 160 -268 238 -357 q 83 -4 83 -179 q 89 113 83 54 q 104 221 94 172 l 61 221 l 89 340 l 253 340 z "},"ྐྵ":{"ha":0,"x_min":54,"x_max":796,"o":"m 771 340 l 743 221 l 743 -285 l 679 -264 q 666 -52 674 -139 q 649 99 658 35 q 624 221 639 164 l 478 221 q 485 82 483 161 q 488 -96 488 3 l 424 -65 q 401 94 418 22 q 358 221 385 165 l 269 221 q 229 90 261 144 q 128 -14 197 35 l 54 100 q 160 154 124 128 q 204 221 196 181 l 90 221 l 118 340 l 771 340 m 165 -656 l 101 -612 l 101 -125 l 378 -125 q 517 -153 460 -125 q 604 -228 574 -181 q 635 -335 635 -275 l 635 -519 l 575 -524 l 575 -450 l 569 -450 q 508 -505 547 -482 q 414 -528 469 -528 q 280 -492 342 -528 q 176 -392 218 -456 l 176 -347 q 283 -399 225 -383 q 403 -415 340 -415 q 532 -392 489 -415 q 575 -331 575 -368 q 532 -269 575 -293 q 406 -244 489 -244 l 215 -244 q 188 -349 199 -293 q 171 -478 176 -404 q 165 -656 165 -551 m 518 -610 l 460 -596 q 613 -466 546 -503 q 749 -429 681 -429 q 768 -430 757 -429 q 788 -433 779 -431 l 796 -547 q 776 -544 789 -544 q 753 -543 764 -543 q 638 -557 690 -543 q 518 -610 585 -571 z "},"ྺ":{"ha":0,"x_min":40,"x_max":894,"o":"m 843 -587 l 779 -574 l 789 -506 q 768 -267 783 -381 q 731 -69 753 -154 l 249 -69 l 276 47 l 869 47 l 843 -69 l 843 -587 m 779 -574 q 673 -458 724 -497 q 565 -403 622 -418 q 429 -387 507 -387 q 342 -392 390 -387 q 253 -406 294 -397 l 204 -361 q 261 -174 228 -264 q 329 -12 294 -83 l 443 -31 q 339 -176 382 -97 q 268 -322 296 -254 l 274 -283 q 340 -270 304 -275 q 406 -265 375 -265 q 563 -288 494 -265 q 690 -367 631 -311 q 813 -525 750 -424 l 779 -574 m 779 -574 l 779 -560 l 843 -560 l 843 -574 l 779 -574 m 97 -53 q 53 21 67 -17 q 40 106 40 58 q 82 233 40 174 q 201 340 124 292 l 199 275 q 149 227 168 260 q 129 154 129 194 q 142 92 129 119 q 178 38 154 65 l 97 -53 m 414 -14 l 369 8 q 396 63 389 35 q 403 118 403 90 q 385 201 403 164 q 328 269 368 239 l 415 328 q 464 256 447 299 q 481 164 481 213 q 414 -14 481 65 m 140 221 l 201 340 l 492 340 l 464 221 l 140 221 m 710 46 q 671 141 696 94 q 617 226 646 188 l 644 340 q 793 351 735 340 q 894 383 851 363 l 881 285 q 808 245 847 260 q 718 226 768 231 q 746 145 733 192 q 768 46 758 99 l 710 46 z "},"ྻ":{"ha":0,"x_min":74,"x_max":946,"o":"m 544 340 l 517 221 q 539 142 532 183 q 546 58 546 100 q 487 -150 546 -81 q 317 -219 428 -219 q 156 -151 208 -219 q 103 32 103 -83 q 110 131 103 81 q 131 221 118 182 l 74 221 l 101 340 l 257 340 q 189 206 214 272 q 164 72 164 139 q 206 -56 164 -17 q 324 -94 247 -94 q 444 -57 403 -94 q 485 53 485 -19 q 465 149 485 107 q 411 221 446 190 l 439 340 l 544 340 m 492 1 q 640 -33 575 1 q 760 -139 704 -67 q 872 -325 817 -211 l 854 -396 q 729 -231 786 -290 q 616 -147 672 -171 q 492 -122 560 -122 l 492 1 m 946 340 l 918 221 l 918 -410 l 854 -396 l 864 -324 q 842 -28 858 -169 q 803 221 826 114 l 743 221 l 771 340 l 946 340 m 854 -382 l 918 -382 l 918 -396 l 854 -396 l 854 -382 z "},"ྼ":{"ha":0,"x_min":56,"x_max":914,"o":"m 278 -24 q 476 -49 389 -24 q 635 -132 563 -75 q 774 -282 707 -189 q 914 -510 842 -375 l 850 -521 q 721 -342 782 -414 q 597 -228 660 -271 q 457 -168 533 -186 q 281 -150 381 -150 q 56 -178 154 -150 l 86 -49 q 172 -30 122 -36 q 278 -24 222 -24 m 417 282 q 465 69 465 192 q 453 -47 465 6 q 417 -147 440 -99 l 358 -137 q 386 14 386 -75 q 366 143 386 86 q 303 251 346 200 l 417 282 m 758 340 l 731 221 l 107 221 l 135 340 l 758 340 z "},"࿆":{"ha":0,"x_min":-1419,"x_max":-256,"o":"m -837 -1243 q -997 -1218 -940 -1243 l -1003 -1215 q -1069 -1103 -1069 -1182 q -1047 -1008 -1069 -1050 q -974 -926 -1025 -965 q -837 -844 -922 -887 q -701 -926 -751 -887 q -628 -1008 -650 -965 q -606 -1103 -606 -1050 q -622 -1170 -606 -1142 q -672 -1215 -639 -1199 l -678 -1218 q -837 -1243 -733 -1243 m -1351 -1269 l -1357 -1222 q -1282 -1200 -1315 -1215 q -1226 -1160 -1249 -1185 l -1193 -1193 q -1261 -1243 -1221 -1224 q -1351 -1269 -1301 -1262 m -1240 -1335 l -1257 -1290 q -1176 -1244 -1208 -1271 q -1126 -1182 -1143 -1217 l -1085 -1201 q -1144 -1278 -1104 -1243 q -1240 -1335 -1185 -1312 m -1032 -1369 l -1068 -1339 q -1030 -1278 -1046 -1312 q -1007 -1210 -1014 -1244 l -960 -1221 q -988 -1299 -969 -1261 q -1032 -1369 -1007 -1337 m -1186 -1171 q -1222 -1133 -1206 -1153 q -1253 -1087 -1239 -1112 q -1288 -1013 -1272 -1051 q -1320 -940 -1304 -975 q -1354 -881 -1336 -904 l -1351 -881 q -1331 -962 -1340 -919 q -1303 -1047 -1321 -1004 q -1272 -1101 -1289 -1079 q -1230 -1137 -1254 -1124 q -1171 -1160 -1206 -1151 l -1186 -1171 m -1108 -1207 q -1254 -1175 -1193 -1207 q -1347 -1067 -1315 -1143 q -1378 -962 -1369 -1011 q -1393 -873 -1386 -912 q -1419 -810 -1400 -833 q -1409 -807 -1412 -807 q -1401 -807 -1406 -807 q -1340 -832 -1365 -807 q -1294 -897 -1314 -857 q -1255 -983 -1274 -937 q -1214 -1068 -1236 -1028 q -1159 -1151 -1182 -1128 q -1106 -1175 -1136 -1175 l -1094 -1175 l -1108 -1207 m -1029 -1228 q -1069 -1223 -1050 -1228 q -1103 -1210 -1087 -1218 l -1114 -1203 q -1178 -1119 -1157 -1174 q -1199 -1011 -1199 -1065 q -1194 -967 -1199 -975 q -1179 -960 -1189 -960 q -1164 -967 -1168 -960 q -1160 -1011 -1160 -975 q -1147 -1091 -1160 -1051 q -1105 -1156 -1133 -1131 q -1029 -1181 -1076 -1181 q -1003 -1179 -1014 -1181 q -983 -1176 -993 -1178 l -972 -1221 q -998 -1226 -985 -1225 q -1029 -1228 -1011 -1228 m -861 -1382 l -861 -1219 l -814 -1219 l -814 -1382 l -861 -1382 m -1050 -1037 q -1095 -969 -1061 -1007 q -1174 -899 -1129 -932 q -1229 -968 -1212 -939 q -1246 -1021 -1246 -997 l -1287 -1010 q -1261 -933 -1287 -974 q -1179 -837 -1235 -892 q -1103 -894 -1137 -862 q -1042 -959 -1068 -926 q -1006 -1021 -1017 -992 l -1050 -1037 m -643 -1369 q -687 -1299 -668 -1337 q -715 -1221 -706 -1261 l -668 -1210 q -645 -1278 -661 -1244 q -607 -1339 -629 -1312 l -643 -1369 m -857 -1194 l -857 -1032 q -852 -986 -857 -996 q -837 -976 -847 -976 q -822 -986 -826 -976 q -818 -1032 -818 -996 l -818 -1194 q -689 -1169 -725 -1190 q -653 -1103 -653 -1147 q -692 -998 -653 -1043 q -837 -896 -732 -953 q -983 -998 -943 -953 q -1022 -1103 -1022 -1043 q -986 -1169 -1022 -1147 q -857 -1194 -950 -1190 m -435 -1335 q -531 -1278 -490 -1312 q -590 -1201 -571 -1243 l -549 -1182 q -499 -1244 -532 -1217 q -418 -1290 -465 -1271 l -435 -1335 m -646 -1228 q -677 -1226 -664 -1228 q -703 -1221 -690 -1225 l -692 -1176 q -672 -1179 -682 -1178 q -646 -1181 -661 -1181 q -570 -1156 -599 -1181 q -528 -1091 -542 -1131 q -515 -1011 -515 -1051 q -510 -967 -515 -975 q -496 -960 -506 -960 q -481 -967 -485 -960 q -476 -1011 -476 -975 q -497 -1119 -476 -1065 q -561 -1203 -517 -1174 l -572 -1210 q -606 -1223 -587 -1218 q -646 -1228 -625 -1228 m -324 -1269 q -414 -1243 -374 -1262 q -482 -1193 -454 -1224 l -449 -1160 q -392 -1200 -425 -1185 q -318 -1222 -360 -1215 l -324 -1269 m -625 -1037 l -669 -1021 q -633 -959 -658 -992 q -572 -894 -607 -926 q -496 -837 -536 -862 q -413 -933 -439 -892 q -387 -1010 -387 -974 l -429 -1021 q -446 -968 -429 -997 q -501 -899 -462 -939 q -580 -969 -546 -932 q -625 -1037 -614 -1007 m -489 -1171 l -504 -1160 q -445 -1137 -469 -1151 q -403 -1101 -421 -1124 q -372 -1047 -386 -1079 q -344 -962 -353 -1004 q -324 -881 -335 -919 l -321 -881 q -355 -940 -339 -904 q -387 -1013 -371 -975 q -422 -1087 -403 -1051 q -453 -1133 -436 -1112 q -489 -1171 -469 -1153 m -567 -1207 l -578 -1175 l -569 -1175 q -515 -1151 -539 -1175 q -461 -1068 -492 -1128 q -422 -983 -440 -1028 q -382 -897 -403 -937 q -335 -832 -361 -857 q -274 -807 -310 -807 q -265 -807 -269 -807 q -256 -810 -261 -807 q -282 -873 -275 -833 q -297 -962 -289 -912 q -328 -1067 -304 -1011 q -420 -1175 -360 -1143 q -567 -1207 -481 -1207 z "},"☸":{"ha":1590,"x_min":196,"x_max":1396,"o":"m 796 96 q 640 127 713 96 q 513 214 567 158 q 428 342 458 269 q 397 494 397 414 q 428 648 397 576 q 513 775 458 719 q 640 862 567 831 q 796 893 713 893 q 952 862 879 893 q 1079 775 1025 831 q 1164 648 1133 719 q 1194 494 1194 576 q 1164 342 1194 414 q 1079 214 1133 269 q 952 127 1025 158 q 796 96 879 96 m 422 50 q 371 71 392 50 q 350 122 350 92 q 371 172 350 151 q 422 193 392 193 q 473 172 453 193 q 493 122 493 151 q 473 71 493 92 q 422 50 453 50 m 796 -106 q 744 -84 765 -106 q 724 -33 724 -62 q 744 17 724 -4 q 796 39 765 39 q 847 17 825 39 q 868 -33 868 -4 q 847 -84 868 -62 q 796 -106 825 -106 m 268 422 q 217 444 238 422 q 196 494 196 465 q 217 545 196 524 q 268 567 238 567 q 319 545 297 567 q 340 494 340 524 q 319 444 340 465 q 268 422 297 422 m 447 97 l 399 146 l 699 446 l 747 397 l 447 97 m 763 -33 l 763 392 l 829 392 l 829 -33 l 763 -33 m 268 461 l 268 528 l 693 528 l 693 461 l 268 461 m 422 796 q 371 817 392 796 q 350 867 350 838 q 371 918 350 897 q 422 939 392 939 q 473 918 453 939 q 493 867 493 897 q 473 817 493 838 q 422 796 453 796 m 796 169 q 960 214 888 169 q 1076 333 1033 258 q 1118 494 1118 407 q 1076 657 1118 583 q 960 775 1033 731 q 796 819 888 819 q 632 775 706 819 q 516 657 558 731 q 474 494 474 583 q 516 333 474 407 q 632 214 558 258 q 796 169 706 169 m 796 349 q 722 369 756 349 q 669 422 689 389 q 650 494 650 456 q 669 567 650 535 q 722 620 689 600 q 796 640 756 640 q 869 620 836 640 q 922 567 901 600 q 942 494 942 535 q 922 422 942 456 q 869 369 901 389 q 796 349 836 349 m 796 414 q 853 438 829 414 q 876 494 876 461 q 853 551 876 528 q 796 575 829 575 q 738 551 761 575 q 715 494 715 528 q 738 438 715 461 q 796 414 761 414 m 1144 97 l 844 397 l 893 446 l 1193 146 l 1144 97 m 699 543 l 399 843 l 447 892 l 747 592 l 699 543 m 1169 50 q 1119 71 1139 50 q 1099 122 1099 92 q 1119 172 1099 151 q 1169 193 1139 193 q 1221 172 1200 193 q 1242 122 1242 151 q 1221 71 1242 92 q 1169 50 1200 50 m 763 597 l 763 1022 l 829 1022 l 829 597 l 763 597 m 899 461 l 899 528 l 1324 528 l 1324 461 l 899 461 m 893 543 l 844 592 l 1144 892 l 1193 843 l 893 543 m 796 950 q 744 972 765 950 q 724 1022 724 993 q 744 1073 724 1051 q 796 1094 765 1094 q 847 1073 825 1094 q 868 1022 868 1051 q 847 972 868 993 q 796 950 825 950 m 1324 422 q 1272 444 1293 422 q 1251 494 1251 465 q 1272 545 1251 524 q 1324 567 1293 567 q 1374 545 1353 567 q 1396 494 1396 524 q 1374 444 1396 465 q 1324 422 1353 422 m 1169 796 q 1119 817 1139 796 q 1099 867 1099 838 q 1119 918 1099 897 q 1169 939 1139 939 q 1221 918 1200 939 q 1242 867 1242 897 q 1221 817 1242 838 q 1169 796 1200 796 z "},"​":{"ha":0,"x_min":0,"x_max":0,"o":""},".":{"ha":347,"x_min":86,"x_max":261,"o":"m 174 -10 q 112 11 138 -10 q 86 85 86 32 q 112 159 86 139 q 174 179 138 179 q 235 159 210 179 q 261 85 261 139 q 235 11 261 32 q 174 -10 210 -10 z "},":":{"ha":397,"x_min":113,"x_max":288,"o":"m 200 563 q 138 583 164 563 q 113 657 113 604 q 138 731 113 711 q 200 751 164 751 q 262 731 236 751 q 288 657 288 711 q 262 583 288 604 q 200 563 236 563 m 200 -10 q 138 11 164 -10 q 113 85 113 32 q 138 159 113 139 q 200 179 164 179 q 262 159 236 179 q 288 85 288 139 q 262 11 288 32 q 200 -10 236 -10 z "},"…":{"ha":1192,"x_min":111,"x_max":1081,"o":"m 993 -10 q 931 11 957 -10 q 906 85 906 32 q 931 159 906 139 q 993 179 957 179 q 1055 159 1029 179 q 1081 85 1081 139 q 1055 11 1081 32 q 993 -10 1029 -10 m 199 -10 q 137 11 163 -10 q 111 85 111 32 q 137 159 111 139 q 199 179 163 179 q 260 159 235 179 q 286 85 286 139 q 260 11 286 32 q 199 -10 235 -10 m 596 -10 q 534 11 560 -10 q 508 85 508 32 q 534 159 508 139 q 596 179 560 179 q 658 159 632 179 q 683 85 683 139 q 658 11 683 32 q 596 -10 632 -10 z "},"!":{"ha":461,"x_min":143,"x_max":318,"o":"m 193 279 l 150 992 l 311 992 l 268 279 l 193 279 m 231 -10 q 169 11 194 -10 q 143 85 143 32 q 169 159 143 139 q 231 179 194 179 q 292 159 267 179 q 318 85 318 139 q 292 11 318 32 q 231 -10 267 -10 z "},"*":{"ha":694,"x_min":57,"x_max":629,"o":"m 283 525 l 318 744 l 106 613 l 57 721 l 290 790 l 57 860 l 106 969 l 319 835 l 283 1056 l 404 1056 l 365 836 l 581 967 l 629 858 l 394 790 l 629 722 l 581 615 l 365 744 l 404 525 l 283 525 z "},"#":{"ha":776,"x_min":35,"x_max":742,"o":"m 110 0 l 163 282 l 35 282 l 35 364 l 178 364 l 231 636 l 79 636 l 79 718 l 246 718 l 296 992 l 381 992 l 329 718 l 522 718 l 574 992 l 657 992 l 606 718 l 742 718 l 742 636 l 590 636 l 539 364 l 697 364 l 697 282 l 522 282 l 469 0 l 386 0 l 439 282 l 246 282 l 193 0 l 110 0 m 263 364 l 456 364 l 507 636 l 314 636 l 263 364 z "},"/":{"ha":400,"x_min":0,"x_max":400,"o":"m 0 -168 l 319 1056 l 400 1056 l 82 -168 l 0 -168 z "},"\\":{"ha":400,"x_min":0,"x_max":400,"o":"m 318 -168 l 0 1056 l 81 1056 l 400 -168 l 318 -168 z "},"(":{"ha":481,"x_min":79,"x_max":436,"o":"m 436 -178 q 230 -47 308 -126 q 115 153 151 33 q 79 440 79 274 q 115 726 79 607 q 230 925 151 844 q 436 1056 308 1006 l 436 993 q 322 890 365 950 q 258 756 279 829 q 231 603 238 683 q 224 440 224 524 q 231 277 224 357 q 258 124 238 197 q 322 -10 279 51 q 436 -114 365 -71 l 436 -178 z "},")":{"ha":481,"x_min":44,"x_max":401,"o":"m 44 -114 q 158 -10 115 -71 q 222 124 201 51 q 250 277 243 197 q 257 440 257 357 q 250 603 257 524 q 222 756 243 683 q 158 890 201 829 q 44 993 115 950 l 44 1056 q 251 925 172 1006 q 365 726 329 844 q 401 440 401 607 q 365 153 401 274 q 251 -47 329 33 q 44 -178 172 -126 l 44 -114 z "},"{":{"ha":594,"x_min":69,"x_max":525,"o":"m 433 -178 q 285 -124 336 -178 q 233 22 233 -69 l 233 264 q 212 352 233 321 q 153 397 190 383 q 69 411 115 410 l 69 469 q 153 484 115 471 q 212 528 190 497 q 233 615 233 560 l 233 857 q 285 1003 233 951 q 433 1056 336 1056 l 525 1056 l 525 996 l 483 996 q 396 959 422 996 q 369 850 369 922 l 369 613 q 331 499 369 544 q 215 442 293 454 l 215 440 q 332 382 294 426 q 369 268 369 338 l 369 28 q 396 -81 369 -43 q 483 -118 422 -118 l 525 -118 l 525 -178 l 433 -178 z "},"}":{"ha":594,"x_min":69,"x_max":525,"o":"m 69 -178 l 69 -118 l 111 -118 q 199 -81 172 -118 q 225 28 225 -43 l 225 268 q 263 382 225 338 q 379 440 300 426 l 379 442 q 264 499 303 454 q 225 613 225 544 l 225 850 q 199 959 225 922 q 111 996 172 996 l 69 996 l 69 1056 l 161 1056 q 310 1003 260 1056 q 361 857 361 951 l 361 615 q 383 528 361 560 q 442 484 406 497 q 525 469 479 471 l 525 411 q 442 397 479 410 q 383 352 406 383 q 361 264 361 321 l 361 22 q 310 -124 361 -69 q 161 -178 260 -178 l 69 -178 z "},"[":{"ha":500,"x_min":139,"x_max":449,"o":"m 139 -178 l 139 1056 l 449 1056 l 449 997 l 389 997 q 332 990 358 997 q 290 963 306 983 q 275 897 275 942 l 275 -19 q 290 -84 275 -62 q 332 -112 306 -106 q 389 -119 358 -119 l 449 -119 l 449 -178 l 139 -178 z "},"]":{"ha":500,"x_min":51,"x_max":361,"o":"m 51 -178 l 51 -119 l 111 -119 q 169 -112 143 -119 q 210 -84 194 -106 q 225 -19 225 -62 l 225 897 q 210 963 225 942 q 169 990 194 983 q 111 997 143 997 l 51 997 l 51 1056 l 361 1056 l 361 -178 l 51 -178 z "},"“":{"ha":625,"x_min":78,"x_max":583,"o":"m 463 600 q 388 631 419 600 q 356 721 356 663 q 408 883 356 810 q 583 993 460 957 l 583 935 q 509 902 539 921 q 465 860 479 883 q 451 810 451 838 q 467 778 451 789 q 502 757 482 767 q 538 731 522 747 q 553 682 553 714 q 527 622 553 643 q 463 600 501 600 m 185 600 q 110 631 142 600 q 78 721 78 663 q 130 883 78 810 q 306 993 182 957 l 306 935 q 231 902 261 921 q 188 860 201 883 q 174 810 174 838 q 189 778 174 789 q 224 757 204 767 q 260 731 244 747 q 275 682 275 714 q 249 622 275 643 q 185 600 224 600 z "},"”":{"ha":625,"x_min":42,"x_max":547,"o":"m 319 657 q 394 691 365 672 q 438 733 424 710 q 451 782 451 756 q 436 814 451 803 q 401 835 421 825 q 365 861 381 844 q 350 910 350 878 q 376 971 350 950 q 440 992 401 992 q 515 960 483 992 q 547 871 547 929 q 495 708 547 782 q 319 599 443 635 l 319 657 m 42 657 q 117 691 88 672 q 160 733 146 710 q 174 782 174 756 q 158 814 174 803 q 123 835 143 825 q 88 861 103 844 q 72 910 72 878 q 98 971 72 950 q 163 992 124 992 q 238 960 206 992 q 269 871 269 929 q 217 708 269 782 q 42 599 165 635 l 42 657 z "},"‘":{"ha":347,"x_min":78,"x_max":306,"o":"m 185 600 q 110 631 142 600 q 78 721 78 663 q 130 883 78 810 q 306 993 182 957 l 306 935 q 231 902 261 921 q 188 860 201 883 q 174 810 174 838 q 189 778 174 789 q 224 757 204 767 q 260 731 244 747 q 275 682 275 714 q 249 622 275 643 q 185 600 224 600 z "},"’":{"ha":347,"x_min":42,"x_max":269,"o":"m 42 657 q 117 691 88 672 q 160 733 146 710 q 174 782 174 756 q 158 814 174 803 q 123 835 143 825 q 88 861 103 844 q 72 910 72 878 q 98 971 72 950 q 163 992 124 992 q 238 960 206 992 q 269 871 269 929 q 217 708 269 782 q 42 599 165 635 l 42 657 z "},"«":{"ha":714,"x_min":90,"x_max":624,"o":"m 554 111 l 342 353 l 342 397 l 554 639 l 624 639 l 483 375 l 624 111 l 554 111 m 303 111 l 90 353 l 90 397 l 303 639 l 372 639 l 232 375 l 372 111 l 303 111 z "},"»":{"ha":714,"x_min":90,"x_max":624,"o":"m 342 111 l 482 375 l 342 639 l 411 639 l 624 397 l 624 353 l 411 111 l 342 111 m 90 111 l 231 375 l 90 639 l 160 639 l 372 397 l 372 353 l 160 111 l 90 111 z "},"\"":{"ha":567,"x_min":79,"x_max":488,"o":"m 121 665 l 79 992 l 226 992 l 185 665 l 121 665 m 382 665 l 340 992 l 488 992 l 446 665 l 382 665 z "},"'":{"ha":306,"x_min":79,"x_max":226,"o":"m 121 665 l 79 992 l 226 992 l 185 665 l 121 665 z "},"+":{"ha":776,"x_min":90,"x_max":686,"o":"m 346 199 l 346 456 l 90 456 l 90 538 l 346 538 l 346 794 l 429 794 l 429 538 l 686 538 l 686 456 l 429 456 l 429 199 l 346 199 z "},"×":{"ha":776,"x_min":99,"x_max":676,"o":"m 157 208 l 99 268 l 329 499 l 99 728 l 157 786 l 388 556 l 618 788 l 676 728 l 446 497 l 676 267 l 618 208 l 388 439 l 157 208 z "},"÷":{"ha":776,"x_min":90,"x_max":686,"o":"m 90 456 l 90 538 l 686 538 l 686 456 l 90 456 m 389 157 q 338 174 358 157 q 318 233 318 190 q 338 294 318 278 q 389 310 358 310 q 439 294 418 310 q 460 233 460 278 q 439 174 460 190 q 389 157 418 157 m 389 683 q 338 700 358 683 q 318 760 318 717 q 338 820 318 804 q 389 836 358 836 q 439 820 418 836 q 460 760 460 804 q 439 700 460 717 q 389 683 418 683 z "},"=":{"ha":776,"x_min":90,"x_max":686,"o":"m 90 592 l 90 674 l 686 674 l 686 592 l 90 592 m 90 318 l 90 400 l 686 400 l 686 318 l 90 318 z "},">":{"ha":776,"x_min":90,"x_max":686,"o":"m 90 153 l 90 246 l 557 496 l 90 749 l 90 842 l 686 521 l 686 472 l 90 153 z "},"<":{"ha":776,"x_min":90,"x_max":686,"o":"m 686 153 l 90 472 l 90 521 l 686 842 l 686 749 l 219 496 l 686 246 l 686 153 z "},"%":{"ha":1244,"x_min":63,"x_max":1182,"o":"m 326 0 l 822 992 l 913 992 l 418 0 l 326 0 m 290 389 q 117 474 171 389 q 63 699 63 560 q 117 922 63 839 q 292 1006 171 1006 q 462 922 406 1006 q 518 699 518 839 q 493 536 518 606 q 417 428 468 467 q 290 389 367 389 m 290 446 q 351 476 329 446 q 382 563 372 506 q 392 699 392 619 q 370 882 392 817 q 292 947 349 947 q 231 918 254 947 q 198 833 208 889 q 188 699 188 778 q 211 513 188 579 q 290 446 235 446 m 954 -14 q 781 72 835 -14 q 726 296 726 157 q 781 519 726 436 q 956 603 835 603 q 1126 519 1069 603 q 1182 296 1182 436 q 1157 133 1182 203 q 1081 25 1132 64 q 954 -14 1031 -14 m 954 43 q 1015 73 993 43 q 1046 160 1036 103 q 1056 296 1056 217 q 1034 479 1056 414 q 956 544 1013 544 q 895 515 918 544 q 862 431 872 486 q 851 296 851 375 q 875 110 851 176 q 954 43 899 43 z "},"̈":{"ha":0,"x_min":-203,"x_max":203,"o":"m 132 878 q 81 895 101 878 q 61 956 61 913 q 81 1017 61 1000 q 132 1033 101 1033 q 182 1017 161 1033 q 203 956 203 1000 q 182 895 203 913 q 132 878 161 878 m -132 878 q -183 895 -162 878 q -203 956 -203 913 q -183 1017 -203 1000 q -132 1033 -162 1033 q -82 1017 -103 1033 q -61 956 -61 1000 q -82 895 -61 913 q -132 878 -103 878 z "},"̀":{"ha":0,"x_min":-597,"x_max":-328,"o":"m -381 842 q -440 888 -408 861 q -503 946 -472 915 q -560 1004 -535 976 q -597 1050 -585 1032 l -597 1064 l -449 1064 q -413 996 -433 1033 q -370 922 -393 958 q -328 860 -347 886 l -328 842 l -381 842 z "},"́":{"ha":0,"x_min":-419,"x_max":-150,"o":"m -419 860 q -376 922 -399 886 q -333 996 -354 958 q -299 1064 -312 1033 l -150 1064 l -150 1050 q -187 1004 -162 1032 q -244 946 -212 976 q -307 888 -275 915 q -367 842 -339 861 l -419 842 l -419 860 z "},"̋":{"ha":0,"x_min":-206,"x_max":311,"o":"m 44 860 q 107 960 74 904 q 163 1064 140 1017 l 311 1064 l 311 1050 q 262 986 297 1026 q 185 906 226 946 q 113 842 144 867 l 44 842 l 44 860 m -206 860 q -143 960 -176 904 q -87 1064 -110 1017 l 61 1064 l 61 1050 q 11 986 47 1026 q -65 906 -25 946 q -137 842 -106 867 l -206 842 l -206 860 z "},"̄":{"ha":0,"x_min":-201,"x_max":201,"o":"m -201 856 l -201 938 l 201 938 l 201 856 l -201 856 z "},"˙":{"ha":269,"x_min":56,"x_max":214,"o":"m 135 883 q 78 903 101 883 q 56 969 56 922 q 78 1037 56 1018 q 135 1056 101 1056 q 190 1037 167 1056 q 214 969 214 1018 q 190 903 214 922 q 135 883 167 883 z "},"A":{"ha":979,"x_min":0,"x_max":979,"o":"m 0 0 l 0 58 l 26 58 q 71 67 54 58 q 101 99 88 75 q 132 167 115 122 l 440 992 l 549 992 l 863 132 q 886 87 874 103 q 917 65 899 71 q 961 58 935 58 l 979 58 l 979 0 l 597 0 l 597 58 l 629 58 q 692 74 671 58 q 713 125 713 90 q 711 141 713 133 q 708 158 710 149 q 701 176 706 167 l 646 332 l 281 332 l 228 186 q 221 164 224 175 q 217 144 218 153 q 215 126 215 135 q 238 75 215 92 q 307 58 261 58 l 339 58 l 339 0 l 0 0 m 307 401 l 621 401 l 535 644 q 508 724 521 686 q 484 796 494 761 q 465 864 474 831 q 449 799 458 831 q 429 734 440 768 q 401 657 418 700 l 307 401 z "},"Á":{"ha":979,"x_min":0,"x_max":979,"o":"m 0 0 l 0 58 l 26 58 q 71 67 54 58 q 101 99 88 75 q 132 167 115 122 l 440 992 l 549 992 l 863 132 q 886 87 874 103 q 917 65 899 71 q 961 58 935 58 l 979 58 l 979 0 l 597 0 l 597 58 l 629 58 q 692 74 671 58 q 713 125 713 90 q 711 141 713 133 q 708 158 710 149 q 701 176 706 167 l 646 332 l 281 332 l 228 186 q 221 164 224 175 q 217 144 218 153 q 215 126 215 135 q 238 75 215 92 q 307 58 261 58 l 339 58 l 339 0 l 0 0 m 307 401 l 621 401 l 535 644 q 508 724 521 686 q 484 796 494 761 q 465 864 474 831 q 449 799 458 831 q 429 734 440 768 q 401 657 418 700 l 307 401 m 432 1089 q 475 1151 453 1115 q 518 1225 497 1188 q 553 1293 539 1263 l 701 1293 l 701 1279 q 664 1233 689 1261 q 608 1175 639 1206 q 544 1117 576 1144 q 485 1071 513 1090 l 432 1071 l 432 1089 z "},"Ă":{"ha":979,"x_min":0,"x_max":979,"o":"m 0 0 l 0 58 l 26 58 q 71 67 54 58 q 101 99 88 75 q 132 167 115 122 l 440 992 l 549 992 l 863 132 q 886 87 874 103 q 917 65 899 71 q 961 58 935 58 l 979 58 l 979 0 l 597 0 l 597 58 l 629 58 q 692 74 671 58 q 713 125 713 90 q 711 141 713 133 q 708 158 710 149 q 701 176 706 167 l 646 332 l 281 332 l 228 186 q 221 164 224 175 q 217 144 218 153 q 215 126 215 135 q 238 75 215 92 q 307 58 261 58 l 339 58 l 339 0 l 0 0 m 307 401 l 621 401 l 535 644 q 508 724 521 686 q 484 796 494 761 q 465 864 474 831 q 449 799 458 831 q 429 734 440 768 q 401 657 418 700 l 307 401 m 486 1071 q 378 1097 421 1071 q 314 1166 335 1122 q 292 1261 293 1210 l 356 1261 q 401 1189 367 1211 q 486 1167 435 1167 q 572 1189 538 1167 q 617 1261 606 1211 l 681 1261 q 658 1166 679 1210 q 595 1097 638 1122 q 486 1071 553 1071 z "},"Ǎ":{"ha":979,"x_min":0,"x_max":979,"o":"m 0 0 l 0 58 l 26 58 q 71 67 54 58 q 101 99 88 75 q 132 167 115 122 l 440 992 l 549 992 l 863 132 q 886 87 874 103 q 917 65 899 71 q 961 58 935 58 l 979 58 l 979 0 l 597 0 l 597 58 l 629 58 q 692 74 671 58 q 713 125 713 90 q 711 141 713 133 q 708 158 710 149 q 701 176 706 167 l 646 332 l 281 332 l 228 186 q 221 164 224 175 q 217 144 218 153 q 215 126 215 135 q 238 75 215 92 q 307 58 261 58 l 339 58 l 339 0 l 0 0 m 307 401 l 621 401 l 535 644 q 508 724 521 686 q 484 796 494 761 q 465 864 474 831 q 449 799 458 831 q 429 734 440 768 q 401 657 418 700 l 307 401 m 438 1071 q 399 1140 424 1103 q 347 1213 374 1176 q 299 1275 321 1249 l 299 1293 l 353 1293 q 406 1256 379 1278 q 457 1212 432 1235 q 503 1167 482 1189 q 549 1212 524 1189 q 601 1256 574 1235 q 654 1293 628 1278 l 708 1293 l 708 1275 q 660 1213 688 1249 q 609 1140 633 1176 q 569 1071 585 1103 l 438 1071 z "},"Â":{"ha":979,"x_min":0,"x_max":979,"o":"m 0 0 l 0 58 l 26 58 q 71 67 54 58 q 101 99 88 75 q 132 167 115 122 l 440 992 l 549 992 l 863 132 q 886 87 874 103 q 917 65 899 71 q 961 58 935 58 l 979 58 l 979 0 l 597 0 l 597 58 l 629 58 q 692 74 671 58 q 713 125 713 90 q 711 141 713 133 q 708 158 710 149 q 701 176 706 167 l 646 332 l 281 332 l 228 186 q 221 164 224 175 q 217 144 218 153 q 215 126 215 135 q 238 75 215 92 q 307 58 261 58 l 339 58 l 339 0 l 0 0 m 307 401 l 621 401 l 535 644 q 508 724 521 686 q 484 796 494 761 q 465 864 474 831 q 449 799 458 831 q 429 734 440 768 q 401 657 418 700 l 307 401 m 286 1089 q 335 1151 308 1115 q 386 1225 361 1188 q 425 1293 411 1263 l 557 1293 q 597 1225 572 1263 q 648 1151 621 1188 q 696 1089 675 1115 l 696 1071 l 642 1071 q 588 1107 615 1086 q 536 1151 561 1128 q 490 1196 511 1174 q 444 1151 469 1174 q 393 1107 419 1128 q 340 1071 367 1086 l 286 1071 l 286 1089 z "}}}
